<?xml version="1.0" encoding="UTF-8" standalone="no"?>
<svg width="116px" height="72px" viewBox="0 0 116 72" version="1.1" xmlns="http://www.w3.org/2000/svg" xmlns:xlink="http://www.w3.org/1999/xlink">
    <!-- Generator: Sketch 41 (35326) - http://www.bohemiancoding.com/sketch -->
    <title>principal</title>
    <desc>Created with Sketch.</desc>
    <defs></defs>
    <g id="Page-1" stroke="none" stroke-width="1" fill="none" fill-rule="evenodd">
        <g id="principal" fill="#999999">
            <g id="Page-1">
                <g id="Group">
                    <path d="M63.95283,21.9992 C63.95283,22.9162909 64.698855,23.1970182 65.22883,23.1970182 C66.447555,23.1970182 67.68658,22.4479273 67.68658,21.2312 L67.68658,19.9584727 C67.41108,20.1642909 66.95868,20.3315636 65.81898,20.5002909 C64.797455,20.6690182 63.95283,20.9126545 63.95283,21.9992" id="Fill-1"></path>
                    <path d="M55.798755,16.8497455 C53.91303,16.8497455 53.46063,18.4599273 53.46063,20.0519273 C53.46063,21.5297455 54.128355,22.9166545 55.878505,22.9166545 C57.64678,22.9166545 58.13833,21.0802909 58.13833,19.9006545 C58.13833,18.3282909 57.54818,16.8497455 55.798755,16.8497455" id="Fill-3"></path>
                    <path d="M78.4417375,11.7904 C78.4417375,11.5307636 78.1937875,11.4813091 77.9603375,11.4813091 L77.5035875,11.4813091 L77.5035875,12.1351273 L77.9045125,12.1351273 C78.1887125,12.1351273 78.4417375,12.1147636 78.4417375,11.7904" id="Fill-5"></path>
                    <path d="M77.90937,14.0911268 C76.85522,14.0911268 75.962745,13.3165814 75.962745,12.2598541 C75.962745,11.2103995 76.85522,10.4380359 77.90937,10.4380359 C78.954095,10.4380359 79.844395,11.2103995 79.844395,12.2598541 C79.844395,13.3165814 78.954095,14.0911268 77.90937,14.0911268 L77.90937,14.0911268 Z M71.92957,24.8082177 L74.68022,24.8082177 L74.68022,11.3638541 L71.92957,11.3638541 L71.92957,24.8082177 Z M70.98707,24.8082177 L68.019645,24.8082177 C67.86232,24.3398541 67.823895,24.1878541 67.76372,23.6271268 C67.135145,24.2453086 66.252095,25.0693086 64.38522,25.0693086 C62.81342,25.0693086 61.200295,24.2263995 61.200295,22.1682177 C61.200295,20.2198541 62.49877,19.2271268 64.24747,18.9842177 L66.72262,18.6285814 C67.15617,18.5718541 67.68687,18.4038541 67.68687,17.8423995 C67.68687,16.7376723 66.585595,16.6802177 65.877995,16.6802177 C64.50267,16.6802177 64.267045,17.4860359 64.18802,18.0663995 L61.535245,18.0663995 C61.849895,15.0147632 64.07057,14.584945 66.212945,14.584945 C67.68687,14.584945 70.377345,15.0147632 70.377345,17.4671268 L70.377345,22.8598541 C70.377345,24.0394905 70.65357,24.3027632 70.98707,24.4133086 L70.98707,24.8082177 Z M56.56537,25.0693086 C54.640495,25.0693086 53.953195,24.0765814 53.618245,23.5347632 L53.579095,23.5347632 L53.579095,28.6831268 L50.828445,28.6831268 L50.828445,14.8460359 L53.460195,14.8460359 L53.460195,16.2882177 L53.499345,16.2882177 C54.011195,15.5013086 54.778245,14.584945 56.62482,14.584945 C58.923795,14.584945 60.96757,16.2693086 60.96757,19.7151268 C60.96757,22.4474905 59.67127,25.0693086 56.56537,25.0693086 L56.56537,25.0693086 Z M46.485695,13.6671268 L49.237795,13.6671268 L49.237795,11.2322177 L46.485695,11.2322177 L46.485695,13.6671268 Z M46.485695,24.8082177 L49.237795,24.8082177 L49.237795,14.8460359 L46.485695,14.8460359 L46.485695,24.8082177 Z M40.80677,22.9165814 C42.203845,22.9165814 42.675095,21.6431268 42.675095,21.1747632 L45.466345,21.1747632 C45.367745,22.2053086 44.522395,25.0693086 40.69077,25.0693086 C36.760545,25.0693086 35.85647,22.2053086 35.85647,20.1071268 C35.85647,16.8867632 37.32967,14.584945 40.86622,14.584945 C42.517045,14.584945 45.22927,15.2954905 45.485195,18.4038541 L42.69467,18.4038541 C42.576495,17.7471268 42.144395,16.7187632 40.86622,16.792945 C39.137095,16.792945 38.686145,18.4416723 38.686145,19.6773086 C38.686145,20.7631268 38.725295,22.9165814 40.80677,22.9165814 L40.80677,22.9165814 Z M34.894395,24.8082177 L32.14447,24.8082177 L32.14447,18.7594905 C32.14447,18.0300359 32.10532,16.792945 30.355895,16.792945 C29.13717,16.792945 28.193945,17.5805814 28.193945,19.0962177 L28.193945,24.8082177 L25.443295,24.8082177 L25.443295,14.8460359 L28.07577,14.8460359 L28.07577,16.3071268 L28.11637,16.3071268 C28.488295,15.7078541 29.275645,14.584945 31.25997,14.584945 C33.30447,14.584945 34.894395,15.7267632 34.894395,17.9173086 L34.894395,24.8082177 Z M21.04182,13.6671268 L23.79392,13.6671268 L23.79392,11.2322177 L21.04182,11.2322177 L21.04182,13.6671268 Z M21.04182,24.8082177 L23.79392,24.8082177 L23.79392,14.8460359 L21.04182,14.8460359 L21.04182,24.8082177 Z M19.86442,17.2802177 C19.628795,17.2431268 19.332995,17.2431268 19.07852,17.2431268 C16.93687,17.2431268 16.543195,18.5165814 16.543195,19.6213086 L16.543195,24.8082177 L13.792545,24.8082177 L13.792545,14.8460359 L16.425745,14.8460359 L16.425745,16.5682177 L16.46417,16.5682177 C17.03402,15.5580359 17.66332,14.584945 19.332995,14.584945 C19.509895,14.584945 19.68752,14.6031268 19.86442,14.6213086 L19.86442,17.2802177 Z M8.72407,19.9587632 L5.34412,19.9587632 L5.34412,24.8082177 L2.39627,24.8082177 L2.39627,11.3638541 L8.842245,11.3638541 C11.57332,11.3638541 13.22487,13.0293086 13.22487,15.6700359 C13.22487,16.8867632 12.516545,19.9587632 8.72407,19.9587632 L8.72407,19.9587632 Z M0.000145,0.727490455 L0.000145,71.456945 L115.540495,0.727490455 L0.000145,0.727490455 Z" id="Fill-7"></path>
                    <path d="M78.4723325,13.3168727 L77.8901575,12.4041455 L77.5037325,12.4041455 L77.5037325,13.3168727 L77.1687825,13.3168727 L77.1687825,11.2106909 L78.0112325,11.2106909 C78.5325075,11.2106909 78.7913325,11.3954182 78.7913325,11.8099636 C78.7913325,12.1874182 78.5441075,12.3503273 78.2193075,12.3910545 L78.8471575,13.3168727 L78.4723325,13.3168727 Z M77.9097325,10.7430545 C77.0339325,10.7430545 76.3495325,11.3954182 76.3495325,12.2594182 C76.3495325,13.1386909 77.0339325,13.7859636 77.9097325,13.7859636 C78.7761075,13.7859636 79.4605075,13.1386909 79.4605075,12.2594182 C79.4605075,11.3954182 78.7761075,10.7430545 77.9097325,10.7430545 L77.9097325,10.7430545 Z" id="Fill-10"></path>
                    <path d="M7.6837675,13.6845818 L5.3441925,13.6845818 L5.3441925,17.6358545 L8.0767175,17.6358545 C10.2770925,17.6358545 10.2770925,16.1384 10.2770925,15.5391273 C10.2770925,14.2278545 9.5114925,13.6845818 7.6837675,13.6845818" id="Fill-12"></path>
                </g>
            </g>
        </g>
    </g>
</svg>