<?xml version="1.0" encoding="UTF-8" standalone="no"?>
<svg width="39px" height="29px" viewBox="0 0 39 29" version="1.1" xmlns="http://www.w3.org/2000/svg" xmlns:xlink="http://www.w3.org/1999/xlink">
    <!-- Generator: Sketch 41 (35326) - http://www.bohemiancoding.com/sketch -->
    <title>Group</title>
    <desc>Created with Sketch.</desc>
    <defs>
        <polygon id="path-1" points="0.0984359651 0.0340298724 0.0984359651 28.5085609 37.7955143 28.5085609 37.7955143 0.0340298724"></polygon>
    </defs>
    <g id="Page-1" stroke="none" stroke-width="1" fill="none" fill-rule="evenodd">
        <g id="Group">
            <g id="Group-4" transform="translate(0.000000, 22.027635)" fill="#FFFFFF">
                <path d="M6.92819343,2.30217029 C6.78528832,1.61310067 6.21708394,1.43024306 5.58084307,1.3717851 C3.52594161,1.18229096 3.16141971,2.70954033 3.16141971,3.35441348 C3.16141971,4.45748967 3.48551825,5.36980089 5.5029854,5.36980089 C5.87490876,5.36980089 6.90228832,4.98897697 6.90228832,4.37022635 L9.80366058,4.37022635 C9.68666058,6.20543901 6.58374088,6.64500329 5.23069708,6.64500329 C2.42668248,6.64500329 0.0263321168,6.12608304 0.142335766,3.37912396 C0.225175182,1.41866443 2.08820803,0.0427844453 5.79420438,0.128635742 C7.85992336,0.176503487 9.84408394,0.816716936 9.85276642,2.30217029 L6.92819343,2.30217029" id="Fill-1"></path>
                <path d="M35.9887445,2.30217029 C35.8458394,1.61310067 35.2773504,1.43024306 34.6412518,1.3717851 C32.586208,1.18229096 32.2221131,2.70954033 32.2221131,3.35441348 C32.2221131,4.45748967 32.545927,5.36980089 34.5636788,5.36980089 C34.9353175,5.36980089 35.9622701,4.98897697 35.9622701,4.37022635 L38.8640693,4.37022635 C38.7476387,6.20543901 35.644292,6.64500329 34.2909635,6.64500329 C31.4870912,6.64500329 29.0865985,6.12608304 29.2027445,3.37912396 C29.2855839,1.41866443 31.1490438,0.0427844453 34.8541861,0.128635742 C36.9203321,0.176503487 38.904635,0.816716936 38.9133175,2.30217029 L35.9887445,2.30217029" id="Fill-3"></path>
            </g>
            <polyline id="Fill-5" fill="#FFFFFF" points="10.3705839 22.2874483 14.137073 22.2874483 17.3507299 26.7678129 17.3767774 26.7678129 17.3767774 22.2874483 19.790792 22.2874483 19.790792 28.5085609 16.1822956 28.5085609 12.811073 24.0281963 12.7845985 24.0281963 12.7845985 28.5085609 10.3705839 28.5085609 10.3705839 22.2874483"></polyline>
            <g id="Group-9" transform="translate(0.427007, 0.000000)">
                <mask id="mask-2" fill="white">
                    <use xlink:href="#path-1"></use>
                </mask>
                <g id="Clip-7"></g>
                <path d="M20.1087701,22.2874483 L24.6838686,22.2874483 C26.8825292,22.2874483 28.175792,22.8982916 28.175792,23.8209106 C28.175792,24.3659534 27.6344891,25.0387847 26.4274818,25.2368922 L26.4274818,25.2542602 C27.8808723,25.3403939 28.4173358,26.2539759 28.4173358,26.8017015 C28.4173358,27.8981412 27.1563832,28.5085609 24.6972482,28.5085609 L20.1087701,28.5085609 L20.1087701,22.2874483 Z M22.757354,24.7046989 L23.515719,24.7046989 C24.6838686,24.7046989 25.3034562,24.6141879 25.3034562,24.1315568 C25.3034562,23.6147546 24.7877737,23.4420636 23.7364818,23.4420636 L22.757354,23.4420636 L22.757354,24.7046989 Z M22.757354,27.2049767 L23.515719,27.2049767 C24.923562,27.2049767 25.4399562,27.058267 25.4399562,26.5759183 C25.4399562,26.0588337 24.7877737,25.8860014 23.7364818,25.8860014 L22.757354,25.8860014 L22.757354,27.2049767 L22.757354,27.2049767 Z" id="Fill-6" fill="#FFFFFF" mask="url(#mask-2)"></path>
            </g>
            <path d="M32.5426533,12.7518827 L21.7587263,19.9062045 L25.3905657,11.3422553 L27.1135401,7.3541237 C27.8116971,6.06522463 29.1257409,5.2435656 30.5596314,5.22069075 C31.9333139,5.22069075 33.1514234,5.87671891 33.9237372,7.05265574 C34.7188248,8.22859258 34.7632336,10.1510686 33.968146,11.3422553 C33.6120219,11.8998651 33.0846679,12.3974637 32.5426533,12.7518827" id="Fill-10" fill="#FFFFFF"></path>
            <path d="M27.1730365,5.99730609 L21.840427,18.5039196 L21.6027263,17.1396182 L19.9987445,6.88674247 C19.9317044,6.2610729 20.1913248,5.73339808 20.6961898,5.38660403 L21.4615292,4.93433149 C21.506365,4.77590196 21.2833248,4.72323332 21.179135,4.67042348 L19.6790584,4.65531478 C19.5828394,3.17762758 20.2361606,1.83620108 21.4985365,1.02950954 C22.4790876,0.39579142 23.9719051,0.23030175 25.0636204,0.742867877 C26.482281,1.3157276 27.4696642,2.81600724 27.4918686,4.34622187 C27.4847518,4.91173904 27.3882482,5.49222371 27.1730365,5.99730609" id="Fill-11" fill="#FFFFFF"></path>
            <path d="M16.9315511,18.5492457 L11.6807847,6.01241479 C11.1161387,4.67042348 11.3536971,2.90637702 12.3193029,1.82066877 C13.3515219,0.682433083 14.8070474,0.19994315 16.3074088,0.58457955 C17.5773285,0.893531254 18.7655474,2.09982669 19.0776898,3.38886696 C19.226146,3.87149809 19.2036569,4.45170036 19.1741934,4.97937518 L16.9315511,18.5492457" id="Fill-12" fill="#FFFFFF"></path>
            <path d="M5.7095146,12.2996102 C4.63260219,11.3724727 4.14994161,10.1359599 4.30579927,8.70345756 C4.46165693,7.25612896 5.61301095,5.83887656 6.98683577,5.40185393 C8.39809489,4.96454889 9.93517883,5.31134294 10.960281,6.35920884 C11.3909891,6.76643769 11.6581533,7.24878642 11.8809088,7.74624385 L16.9537555,19.9289381 L5.7095146,12.2996102" id="Fill-13" fill="#FFFFFF"></path>
            <path d="M4.5570219,21.1994809 C3.15373358,21.0416161 2.07212409,20.2911233 1.41254015,19.0147913 C0.744416058,17.7263158 0.918065693,15.8981633 1.81620438,14.7555503 C2.79476277,13.5921806 4.21086131,13.006895 5.6374927,13.2941015 C6.21907664,13.3871541 6.70671898,13.6353886 7.16518248,13.9213243 L18.0820511,21.2024461 L4.5570219,21.1994809" id="Fill-14" fill="#FFFFFF"></path>
            <path d="M34.1947445,21.1994809 C35.5987445,21.0416161 36.6795,20.2911233 37.3395109,19.0147913 C38.0074927,17.7263158 37.8338431,15.8981633 36.9358467,14.7555503 C35.9570036,13.5921806 34.5409051,13.006895 33.1138467,13.2941015 C32.5326898,13.3871541 32.0453321,13.6353886 31.5865839,13.9213243 L20.6701423,21.2024461 L34.1947445,21.1994809" id="Fill-15" fill="#FFFFFF"></path>
        </g>
    </g>
</svg>