<svg xmlns="http://www.w3.org/2000/svg" width="42" height="32" viewBox="0 0 42 32"><title>  Icon &#x2F; Car</title><desc>  Created with Sketch.</desc><g fill="none"><g style="fill:#4D4D4D;stroke:#4D4D4D"><path d="M37.4 11.5L39.5 9.3C39.8 9 39.8 8.6 39.5 8.3 39.3 8 38.8 8 38.5 8.3L36.2 10.7 32 3.2C30.9 1.3 28.9 0.1 26.7 0.1L15.3 0.1C13.1 0.1 11.1 1.3 10 3.2L5.8 10.7 3.5 8.3C3.2 8 2.7 8 2.5 8.3 2.2 8.6 2.2 9 2.5 9.3L4.6 11.5C2 12.6 0.1 15.2 0.1 18.2 0.1 21.8 2.7 24.8 6 25.4L6 27.7C6 29.7 7.6 31.3 9.6 31.3 11.5 31.3 13.1 29.7 13.1 27.7L13.1 25.6 28.9 25.6 28.9 27.7C28.9 29.7 30.5 31.3 32.4 31.3 34.4 31.3 36 29.7 36 27.7L36 25.4C39.3 24.8 41.9 21.8 41.9 18.2 41.9 15.2 40 12.6 37.4 11.5L37.4 11.5ZM11.3 3.9C12.1 2.4 13.6 1.5 15.3 1.5L26.7 1.5C28.4 1.5 29.9 2.4 30.7 3.9L34.7 10.9 7.3 10.9 11.3 3.9ZM11.7 27.7C11.7 28.3 11.5 28.8 11.1 29.2 10.7 29.6 10.2 29.8 9.6 29.8 9 29.8 8.5 29.6 8.1 29.2 7.7 28.8 7.5 28.3 7.5 27.7L7.5 25.6 11.7 25.6 11.7 27.7ZM33.9 29.2C33.5 29.6 33 29.8 32.4 29.8 31.8 29.8 31.3 29.6 30.9 29.2 30.5 28.8 30.3 28.3 30.3 27.7L30.3 25.6 34.6 25.6 34.6 27.7C34.6 28.3 34.3 28.8 33.9 29.2L33.9 29.2ZM38.7 22.4C37.6 23.5 36.2 24.2 34.5 24.2L7.5 24.2C5.8 24.2 4.3 23.5 3.3 22.4 2.2 21.4 1.5 19.9 1.5 18.2 1.5 16.6 2.2 15.1 3.3 14 4.3 13 5.8 12.3 7.5 12.3L34.5 12.3C36.2 12.3 37.6 13 38.7 14 39.8 15.1 40.5 16.6 40.5 18.2 40.5 19.9 39.8 21.4 38.7 22.4L38.7 22.4Z" stroke-width="0.8"/><path d="M34.5 17.2C34.3 17.2 34 17.3 33.8 17.5 33.6 17.7 33.5 18 33.5 18.2 33.5 18.5 33.6 18.8 33.8 19 34 19.2 34.3 19.3 34.5 19.3 34.8 19.3 35.1 19.2 35.3 19 35.5 18.8 35.6 18.5 35.6 18.2 35.6 18 35.5 17.7 35.3 17.5 35.1 17.3 34.8 17.2 34.5 17.2Z"/><path d="M7.5 17.2C7.2 17.2 6.9 17.3 6.7 17.5 6.5 17.7 6.4 18 6.4 18.2 6.4 18.5 6.5 18.8 6.7 19 6.9 19.2 7.2 19.3 7.5 19.3 7.8 19.3 8 19.2 8.2 19 8.4 18.8 8.5 18.5 8.5 18.2 8.5 18 8.4 17.7 8.2 17.5 8 17.3 7.8 17.2 7.5 17.2Z"/></g></g></svg>