<?xml version="1.0" encoding="UTF-8" standalone="no"?>
<svg width="114px" height="26px" viewBox="0 0 114 26" version="1.1" xmlns="http://www.w3.org/2000/svg" xmlns:xlink="http://www.w3.org/1999/xlink">
    <!-- Generator: Sketch 41 (35326) - http://www.bohemiancoding.com/sketch -->
    <title>bbb-rating</title>
    <desc>Created with Sketch.</desc>
    <defs>
        <polygon id="path-1" points="0 25.6536 113.282 25.6536 113.282 -0.0004 0 -0.0004"></polygon>
    </defs>
    <g id="Page-1" stroke="none" stroke-width="1" fill="none" fill-rule="evenodd">
        <g id="bbb-rating">
            <g id="Page-1">
                <g id="bbb-rating">
                    <g id="Page-1">
                        <g id="Group">
                            <path d="M37.85,16.8604 C39.387,16.8604 40.507,16.5884 40.507,15.0674 C40.507,13.6274 39.451,13.2274 38.138,13.2274 L36.138,13.2274 L36.138,16.8604 L37.85,16.8604 L37.85,16.8604 Z M37.514,11.7064 C38.73,11.7064 40.171,11.4184 40.171,9.8814 C40.171,8.5054 39.339,8.2814 37.946,8.2814 L36.138,8.2814 L36.138,11.7064 L37.514,11.7064 L37.514,11.7064 Z M34.281,18.3654 L34.281,6.7764 L38.538,6.7764 C41.275,6.7764 42.044,8.0244 42.044,9.6094 C42.044,11.2104 40.972,12.0264 39.739,12.3144 L39.739,12.3624 C41.628,12.5864 42.476,13.6114 42.476,15.1954 C42.476,17.5644 40.667,18.3654 38.154,18.3654 L34.281,18.3654 L34.281,18.3654 Z" id="Fill-1" fill="#999999"></path>
                            <path d="M47.9266,16.8604 C49.4636,16.8604 50.5836,16.5884 50.5836,15.0674 C50.5836,13.6274 49.5276,13.2274 48.2146,13.2274 L46.2146,13.2274 L46.2146,16.8604 L47.9266,16.8604 Z M47.5906,11.7064 C48.8066,11.7064 50.2476,11.4184 50.2476,9.8814 C50.2476,8.5054 49.4156,8.2814 48.0226,8.2814 L46.2146,8.2814 L46.2146,11.7064 L47.5906,11.7064 Z M44.3576,18.3654 L44.3576,6.7764 L48.6146,6.7764 C51.3516,6.7764 52.1206,8.0244 52.1206,9.6094 C52.1206,11.2104 51.0486,12.0264 49.8156,12.3144 L49.8156,12.3624 C51.7046,12.5864 52.5526,13.6114 52.5526,15.1954 C52.5526,17.5644 50.7436,18.3654 48.2306,18.3654 L44.3576,18.3654 Z" id="Fill-3" fill="#999999"></path>
                            <path d="M58.0028,16.8604 C59.5398,16.8604 60.6598,16.5884 60.6598,15.0674 C60.6598,13.6274 59.6038,13.2274 58.2908,13.2274 L56.2908,13.2274 L56.2908,16.8604 L58.0028,16.8604 Z M57.6668,11.7064 C58.8828,11.7064 60.3238,11.4184 60.3238,9.8814 C60.3238,8.5054 59.4918,8.2814 58.0988,8.2814 L56.2908,8.2814 L56.2908,11.7064 L57.6668,11.7064 Z M54.4338,18.3654 L54.4338,6.7764 L58.6908,6.7764 C61.4278,6.7764 62.1968,8.0244 62.1968,9.6094 C62.1968,11.2104 61.1248,12.0264 59.8918,12.3144 L59.8918,12.3624 C61.7808,12.5864 62.6288,13.6114 62.6288,15.1954 C62.6288,17.5644 60.8198,18.3654 58.3068,18.3654 L54.4338,18.3654 Z" id="Fill-5" fill="#999999"></path>
                            <path d="M71.3627,12.2026 C72.7227,12.2026 73.7317,11.7546 73.7317,10.1056 C73.7317,8.7296 72.8357,8.3126 71.3147,8.3126 L69.5537,8.3126 L69.5537,12.2026 L71.3627,12.2026 Z M76.2927,18.3646 L74.2597,18.3646 L71.7627,13.7076 L69.5537,13.7076 L69.5537,18.3646 L67.6967,18.3646 L67.6967,6.7766 L71.8907,6.7766 C74.7717,6.7766 75.6687,8.3446 75.6687,9.9776 C75.6687,11.7066 74.8037,12.7306 73.5237,13.2266 L76.2927,18.3646 Z" id="Fill-7" fill="#999999"></path>
                            <path d="M82.0941,14.7796 C81.9341,14.7636 81.7411,14.7476 81.3251,14.7476 C80.3971,14.7476 79.0521,14.8596 79.0521,16.0766 C79.0521,16.6526 79.3091,17.1806 80.2851,17.1806 C81.0371,17.1806 81.7261,16.7966 82.0941,16.4126 L82.0941,14.7796 Z M83.8861,16.6206 C83.8861,17.0686 83.9671,17.2606 84.3831,17.2606 C84.5271,17.2606 84.6711,17.2286 84.8791,17.1646 L84.9431,18.2526 C84.6231,18.4126 84.0941,18.5246 83.6461,18.5246 C82.7821,18.5246 82.3981,18.1886 82.2541,17.5486 C81.6941,18.1566 80.7821,18.5566 79.6291,18.5566 C77.5481,18.5566 77.1801,17.1486 77.1801,16.3326 C77.1801,14.1876 79.0051,13.4826 81.2291,13.4826 C81.6141,13.4826 81.8541,13.4986 82.0781,13.5146 L82.0781,12.8906 C82.0781,11.8826 81.8541,11.3066 80.6371,11.3066 C79.6291,11.3066 79.2931,11.7226 79.1161,12.5866 L77.5001,12.2986 C77.7561,10.7456 78.7481,9.9136 80.7821,9.9136 C82.8941,9.9136 83.8861,10.7296 83.8861,12.7946 L83.8861,16.6206 Z" id="Fill-9" fill="#999999"></path>
                            <path d="M91.1849,17.9809 C90.7689,18.2529 89.8729,18.5569 88.9919,18.5569 C87.3599,18.5569 86.5269,17.8209 86.5269,16.0599 L86.5269,11.4499 L85.2629,11.4499 L85.2629,10.0899 L86.5269,10.0899 L86.5269,7.6729 L88.3679,7.4169 L88.3679,10.0899 L90.6089,10.0899 L90.6089,11.4499 L88.3679,11.4499 L88.3679,15.8039 C88.3679,16.6199 88.5759,17.0529 89.4729,17.0529 C89.9689,17.0529 90.5449,16.8609 90.8809,16.6689 L91.1849,17.9809 Z" id="Fill-11" fill="#999999"></path>
                            <g id="Fill-13-Clipped">
                                <g>
                                    <mask id="mask-2" fill="white">
                                        <use xlink:href="#path-1"></use>
                                    </mask>
                                    <g id="path-1"></g>
                                    <path d="M92.495,18.3646 L94.336,18.3646 L94.336,10.0896 L92.495,10.0896 L92.495,18.3646 Z M93.423,8.6976 C92.671,8.6976 92.223,8.2646 92.223,7.4806 C92.223,6.7126 92.671,6.2806 93.423,6.2806 C94.192,6.2806 94.624,6.7126 94.624,7.4806 C94.624,8.2646 94.192,8.6976 93.423,8.6976 L93.423,8.6976 Z" id="Fill-13" fill="#999999" mask="url(#mask-2)"></path>
                                </g>
                            </g>
                            <path d="M103.6063,18.3651 L101.7653,18.3651 L101.7653,13.0351 C101.7653,11.9941 101.3813,11.4501 100.4053,11.4501 C99.5723,11.4501 98.7083,11.9621 98.3083,12.3311 L98.3083,18.3651 L96.4673,18.3651 L96.4673,10.0901 L98.1003,10.0901 L98.1803,10.9541 C98.9163,10.3621 99.9083,9.9141 101.0453,9.9141 C102.8373,9.9141 103.6063,10.8581 103.6063,12.7311 L103.6063,18.3651 Z" id="Fill-15" fill="#999999"></path>
                            <g id="Fill-16-Clipped" transform="translate(105.000000, 9.000000)" fill="#999999">
                                <g id="Fill-16">
                                    <path d="M3.9764,2.3382 C2.9354,2.3382 2.1514,2.7862 2.1514,3.8592 C2.1514,4.8192 2.6804,5.4112 3.9604,5.4112 C5.0174,5.4112 5.7534,4.8352 5.7534,3.8912 C5.7534,2.8502 5.0804,2.3382 3.9764,2.3382 M5.0004,9.6692 L2.4554,9.5412 C2.0234,9.8452 1.7834,10.1652 1.7834,10.6132 C1.7834,11.2862 2.4724,11.5902 4.0244,11.5902 C5.4654,11.5902 6.2494,11.2702 6.2494,10.5172 C6.2494,10.0052 6.0094,9.7172 5.0004,9.6692 M6.2494,1.5702 C6.5374,0.8972 7.0184,0.4332 7.6254,0.4332 C7.8974,0.4332 8.0424,0.4492 8.2824,0.5292 L8.2824,1.8902 C7.7694,1.8582 7.2734,1.9222 6.8414,2.0502 C7.2734,2.5462 7.4814,3.2022 7.4814,3.8752 C7.4814,5.7472 5.9934,6.8362 3.9924,6.8362 C3.4484,6.8362 3.0164,6.8042 2.5834,6.6762 C2.3754,6.8362 2.1844,7.0602 2.1844,7.3002 C2.1844,7.5882 2.3284,7.7962 3.0324,7.8442 L5.3854,7.9882 C7.1134,8.1002 8.1384,8.6292 8.1384,10.1492 C8.1384,12.3102 6.0574,12.9822 3.8484,12.9822 C0.7754,12.9822 0.0064,11.9582 0.0064,10.9172 C0.0064,10.0532 0.6154,9.5092 1.3834,9.2532 L1.3834,9.2052 C0.7754,8.9972 0.4074,8.5972 0.4074,7.9562 C0.4074,7.2042 0.9674,6.7242 1.5754,6.2602 C0.8394,5.8432 0.3584,5.0272 0.3584,3.9712 C0.3584,2.1782 1.7034,0.9132 3.9284,0.9132 C4.8894,0.9132 5.6894,1.0892 6.2494,1.5702"></path>
                                </g>
                            </g>
                            <path d="M25.6536,12.8268 C25.6536,19.9108 19.9106,25.6538 12.8266,25.6538 C5.7426,25.6538 -0.0004,19.9108 -0.0004,12.8268 C-0.0004,5.7428 5.7426,-0.0002 12.8266,-0.0002 C19.9106,-0.0002 25.6536,5.7428 25.6536,12.8268 Z M9.6815,8.6964 L9.6495,8.6964 L7.9525,13.8184 L11.3625,13.8184 L9.6815,8.6964 Z M10.8665,6.9674 L14.9315,18.5564 L12.8825,18.5564 L11.7945,15.3874 L7.5845,15.3874 L6.5285,18.5564 L4.6235,18.5564 L8.4805,6.9674 L10.8665,6.9674 Z M18.1049,16.5555 L18.1049,14.1705 L15.8479,14.1705 L15.8479,12.6175 L18.1049,12.6175 L18.1049,10.2965 L19.6729,10.2965 L19.6729,12.6175 L21.9459,12.6175 L21.9459,14.1705 L19.6729,14.1705 L19.6729,16.5555 L18.1049,16.5555 Z" id="Combined-Shape" fill="#999999"></path>
                        </g>
                    </g>
                </g>
            </g>
        </g>
    </g>
</svg>