<?xml version="1.0" encoding="UTF-8" standalone="no"?>
<svg width="306px" height="102px" viewBox="0 0 306 102" version="1.1" xmlns="http://www.w3.org/2000/svg" xmlns:xlink="http://www.w3.org/1999/xlink">
    <!-- Generator: Sketch 42 (36781) - http://www.bohemiancoding.com/sketch -->
    <title>Group 25</title>
    <desc>Created with Sketch.</desc>
    <defs></defs>
    <g id="Page-1" stroke="none" stroke-width="1" fill="none" fill-rule="evenodd">
        <g id="Group-25" transform="translate(0.000000, -1.000000)" fill="#999999">
            <polyline id="Fill-1" points="119.253 85.906 119.253 87.912 112.733 87.912 112.733 91.444 118.644 91.444 118.644 93.429 112.733 93.429 112.733 97.265 119.253 97.265 119.253 99.293 110.51 99.293 110.51 85.906 119.253 85.906"></polyline>
            <path d="M122.893,96.502 C123.133,97.31 123.851,97.724 124.811,97.724 C125.814,97.724 126.469,97.331 126.469,96.568 C126.469,96.045 126.142,95.761 125.334,95.565 L123.328,95.085 C121.955,94.758 120.931,94.016 120.931,92.424 C120.931,90.681 122.478,89.393 124.593,89.393 C126.86,89.393 128.148,90.484 128.473,92.25 L126.337,92.25 C126.142,91.618 125.575,91.183 124.571,91.183 C123.809,91.183 123.024,91.531 123.024,92.294 C123.024,92.73 123.328,93.015 124.025,93.189 L126.076,93.667 C127.734,94.06 128.562,94.998 128.562,96.415 C128.562,98.334 126.971,99.511 124.79,99.511 C122.522,99.511 120.952,98.377 120.669,96.502 L122.893,96.502" id="Fill-2"></path>
            <path d="M131.106,91.422 L129.58,91.422 L129.58,89.612 L131.106,89.612 L131.106,87.019 L133.287,87.019 L133.287,89.612 L135.467,89.612 L135.467,91.422 L133.287,91.422 L133.287,96.438 C133.287,97.222 133.722,97.571 134.443,97.571 C134.878,97.571 135.38,97.396 135.686,97.178 L135.686,99.162 C135.314,99.381 134.726,99.511 134.05,99.511 C132.328,99.511 131.106,98.595 131.106,96.678 L131.106,91.422" id="Fill-3"></path>
            <path d="M143.057,95.913 C142.817,95.304 141.945,94.932 141.072,94.932 C140.092,94.932 139.066,95.346 139.066,96.307 C139.066,97.286 140.092,97.701 141.072,97.701 C141.945,97.701 142.817,97.331 143.057,96.721 L143.057,95.913 Z M143.057,99.293 L143.057,98.749 C142.729,99.076 141.748,99.467 140.658,99.467 C138.675,99.467 137.038,98.29 137.038,96.307 C137.038,94.475 138.675,93.189 140.811,93.189 C141.684,93.189 142.664,93.493 143.057,93.778 L143.057,92.992 C143.057,92.011 142.447,91.247 141.204,91.247 C140.33,91.247 139.786,91.618 139.546,92.294 L137.453,92.294 C137.737,90.637 139.263,89.393 141.246,89.393 C143.688,89.393 145.129,90.747 145.129,92.949 L145.129,99.293 L143.057,99.293 L143.057,99.293 Z" id="Fill-4"></path>
            <path d="M149.642,96.285 C150.011,97.048 150.84,97.57 151.735,97.57 C153.414,97.57 154.417,96.24 154.417,94.452 C154.417,92.665 153.414,91.335 151.735,91.335 C150.84,91.335 150.011,91.858 149.642,92.62 L149.642,96.285 Z M149.642,99.294 L147.461,99.294 L147.461,85.121 L149.642,85.121 L149.642,90.44 C150.077,89.896 151.038,89.395 152.104,89.395 C154.939,89.395 156.597,91.683 156.597,94.452 C156.597,97.243 154.939,99.511 152.104,99.511 C151.038,99.511 150.077,99.009 149.642,98.465 L149.642,99.294 L149.642,99.294 Z" id="Fill-5"></path>
            <polygon id="Fill-6" points="158.451 99.294 160.632 99.294 160.632 85.121 158.451 85.121"></polygon>
            <path d="M163.048,99.294 L165.228,99.294 L165.228,89.614 L163.048,89.614 L163.048,99.294 Z M164.138,88.02 C163.42,88.02 162.787,87.432 162.787,86.692 C162.787,85.95 163.42,85.361 164.138,85.361 C164.859,85.361 165.49,85.95 165.49,86.692 C165.49,87.432 164.859,88.02 164.138,88.02 L164.138,88.02 Z" id="Fill-7"></path>
            <path d="M169.213,96.502 C169.453,97.31 170.171,97.724 171.132,97.724 C172.135,97.724 172.79,97.331 172.79,96.568 C172.79,96.045 172.462,95.761 171.654,95.565 L169.648,95.085 C168.275,94.758 167.251,94.016 167.251,92.424 C167.251,90.681 168.798,89.393 170.913,89.393 C173.181,89.393 174.468,90.484 174.793,92.25 L172.658,92.25 C172.462,91.618 171.895,91.183 170.892,91.183 C170.128,91.183 169.344,91.531 169.344,92.294 C169.344,92.73 169.648,93.015 170.345,93.189 L172.396,93.667 C174.054,94.06 174.88,94.998 174.88,96.415 C174.88,98.334 173.291,99.511 171.11,99.511 C168.843,99.511 167.272,98.377 166.99,96.502 L169.213,96.502" id="Fill-8"></path>
            <path d="M176.797,85.121 L178.978,85.121 L178.978,90.528 C179.5,89.918 180.461,89.395 181.594,89.395 C183.796,89.395 185.018,90.855 185.018,92.993 L185.018,99.294 L182.837,99.294 L182.837,93.363 C182.837,92.164 182.249,91.378 181.005,91.378 C180.068,91.378 179.218,91.966 178.978,92.927 L178.978,99.294 L176.797,99.294 L176.797,85.121" id="Fill-9"></path>
            <path d="M188.955,93.363 L193.336,93.363 C193.315,92.185 192.64,91.227 191.309,91.227 C190.11,91.227 189.216,91.967 188.955,93.363 M195.409,96.285 C195.082,98.204 193.664,99.511 191.331,99.511 C188.627,99.511 186.752,97.462 186.752,94.474 C186.752,91.576 188.648,89.395 191.288,89.395 C194.012,89.395 195.496,91.335 195.496,94.17 L195.496,94.954 L188.889,94.954 C188.955,96.655 189.936,97.679 191.331,97.679 C192.378,97.679 193.162,97.222 193.402,96.285 L195.409,96.285" id="Fill-10"></path>
            <path d="M203.745,92.621 C203.375,91.858 202.546,91.336 201.651,91.336 C199.972,91.336 198.969,92.666 198.969,94.453 C198.969,96.241 199.972,97.571 201.651,97.571 C202.546,97.571 203.375,97.048 203.745,96.285 L203.745,92.621 Z M203.745,98.466 C203.309,99.01 202.348,99.511 201.281,99.511 C198.446,99.511 196.789,97.244 196.789,94.453 C196.789,91.684 198.446,89.395 201.281,89.395 C202.348,89.395 203.309,89.897 203.745,90.441 L203.745,85.121 L205.925,85.121 L205.925,99.292 L203.745,99.292 L203.745,98.466 L203.745,98.466 Z" id="Fill-11"></path>
            <path d="M215.185,96.285 C215.555,97.048 216.384,97.57 217.278,97.57 C218.957,97.57 219.96,96.24 219.96,94.452 C219.96,92.665 218.957,91.335 217.278,91.335 C216.384,91.335 215.555,91.858 215.185,92.62 L215.185,96.285 Z M215.185,99.294 L213.004,99.294 L213.004,85.121 L215.185,85.121 L215.185,90.44 C215.621,89.896 216.579,89.395 217.65,89.395 C220.483,89.395 222.141,91.683 222.141,94.452 C222.141,97.243 220.483,99.511 217.65,99.511 C216.579,99.511 215.621,99.009 215.185,98.465 L215.185,99.294 L215.185,99.294 Z" id="Fill-12"></path>
            <polyline id="Fill-14" points="225.039 103 226.412 99.555 222.661 89.613 224.994 89.613 227.525 96.741 230.009 89.613 232.256 89.613 227.153 103 225.039 103"></polyline>
            <polyline id="Fill-16" points="244.089 99.293 241.296 91.334 241.296 99.293 238.025 99.293 238.025 85.906 242.301 85.906 245.243 94.235 248.165 85.906 252.417 85.906 252.417 99.293 249.124 99.293 249.124 91.334 246.356 99.293 244.089 99.293"></polyline>
            <path d="M256.985,93.341 L259.95,93.341 C259.907,92.534 259.406,91.923 258.554,91.923 C257.748,91.923 257.202,92.425 256.985,93.341 M263.221,95.87 C262.872,98.138 261.17,99.511 258.62,99.511 C255.612,99.511 253.627,97.44 253.627,94.387 C253.627,91.356 255.721,89.262 258.554,89.262 C261.563,89.262 263.265,91.269 263.265,94.191 L263.265,95.041 L256.919,95.041 C257.028,96.219 257.638,96.852 258.62,96.852 C259.319,96.852 259.863,96.546 260.058,95.87 L263.221,95.87" id="Fill-17"></path>
            <path d="M265.378,92.141 L263.941,92.141 L263.941,89.481 L265.378,89.481 L265.378,86.778 L268.759,86.778 L268.759,89.481 L270.808,89.481 L270.808,92.141 L268.759,92.141 L268.759,95.412 C268.759,96.175 269.129,96.503 269.805,96.503 C270.174,96.503 270.589,96.415 270.895,96.284 L270.895,99.184 C270.502,99.359 269.76,99.489 268.997,99.489 C266.687,99.489 265.378,98.4 265.378,95.914 L265.378,92.141" id="Fill-18"></path>
            <polyline id="Fill-19" points="272.771 85.906 276.282 85.906 276.282 96.262 282.277 96.262 282.277 99.293 272.771 99.293 272.771 85.906"></polyline>
            <path d="M283.59,99.294 L287.014,99.294 L287.014,89.482 L283.59,89.482 L283.59,99.294 Z M285.311,88.653 C284.266,88.653 283.373,87.933 283.373,86.822 C283.373,85.689 284.266,84.968 285.311,84.968 C286.359,84.968 287.254,85.689 287.254,86.822 C287.254,87.933 286.359,88.653 285.311,88.653 L285.311,88.653 Z" id="Fill-20"></path>
            <path d="M295.104,87.977 C294.866,87.846 294.604,87.781 294.298,87.781 C293.536,87.781 293.077,88.173 293.077,88.959 L293.077,89.482 L294.974,89.482 L294.974,92.142 L293.077,92.142 L293.077,99.294 L289.7,99.294 L289.7,92.142 L288.237,92.142 L288.237,89.482 L289.7,89.482 L289.7,88.761 C289.7,86.406 291.115,84.925 293.514,84.925 C294.169,84.925 294.692,85.034 295.104,85.187 L295.104,87.977" id="Fill-21"></path>
            <path d="M299.034,93.341 L301.998,93.341 C301.956,92.534 301.454,91.923 300.602,91.923 C299.794,91.923 299.25,92.425 299.034,93.341 M305.269,95.87 C304.92,98.138 303.218,99.511 300.668,99.511 C297.661,99.511 295.673,97.44 295.673,94.387 C295.673,91.356 297.769,89.262 300.602,89.262 C303.611,89.262 305.313,91.269 305.313,94.191 L305.313,95.041 L298.968,95.041 C299.076,96.219 299.686,96.852 300.668,96.852 C301.367,96.852 301.911,96.546 302.106,95.87 L305.269,95.87" id="Fill-22"></path>
            <polyline id="Fill-24" points="1.939 54.632 1.939 34.136 0 36.076 0 72.709 1.939 54.632"></polyline>
            <polyline id="Fill-25" points="0 72.709 3.906 54.507 6.772 29.304 4.569 31.506 1.939 54.632 0 72.709"></polyline>
            <polyline id="Fill-26" points="0 72.709 5.903 54.47 13.083 22.993 10.505 25.57 3.906 54.507 0 72.709"></polyline>
            <polyline id="Fill-27" points="0 72.709 7.902 54.623 21.838 14.238 18.705 17.37 5.903 54.47 0 72.709"></polyline>
            <polyline id="Fill-28" points="0 72.709 9.846 55.057 35.197 0.879 31.127 4.949 7.902 54.623 0 72.709"></polyline>
            <polyline id="Fill-29" points="0 72.709 11.848 55.49 41.079 6.761 39.665 5.347 9.846 55.057 0 72.709"></polyline>
            <polyline id="Fill-30" points="0 72.709 13.841 56.06 46.488 12.17 45.102 10.784 11.848 55.49 0 72.709"></polyline>
            <polyline id="Fill-31" points="0 72.709 15.755 56.835 51.559 17.242 50.186 15.869 13.841 56.06 0 72.709"></polyline>
            <polyline id="Fill-32" points="0 72.709 17.596 57.778 56.419 22.101 55.046 20.728 15.755 56.835 0 72.709"></polyline>
            <polyline id="Fill-33" points="0 72.709 19.642 58.654 61.158 26.841 59.775 25.457 17.596 57.778 0 72.709"></polyline>
            <polyline id="Fill-34" points="0 72.709 21.465 59.789 65.781 31.463 64.376 30.059 19.642 58.654 0 72.709"></polyline>
            <polyline id="Fill-35" points="68.959 34.641 21.465 59.789 0 72.709 23.284 61.021 70.393 36.076 68.959 34.641"></polyline>
            <polyline id="Fill-36" points="0 72.709 24.948 62.414 70.393 42.737 70.393 40.623 23.284 61.021 0 72.709"></polyline>
            <polyline id="Fill-37" points="0 72.709 26.579 63.902 70.393 48.737 70.393 46.684 24.948 62.414 0 72.709"></polyline>
            <polyline id="Fill-38" points="0 72.709 28.184 65.48 70.393 54.217 70.393 52.209 26.579 63.902 0 72.709"></polyline>
            <polyline id="Fill-39" points="0 72.709 29.777 67.147 70.393 59.281 70.393 57.305 28.184 65.48 0 72.709"></polyline>
            <polyline id="Fill-40" points="0 72.709 31.37 68.902 70.393 64.006 70.393 62.051 29.777 67.147 0 72.709"></polyline>
            <polyline id="Fill-41" points="0 72.709 32.603 70.769 70.393 68.451 70.393 66.508 31.37 68.902 0 72.709"></polyline>
            <polyline id="Fill-42" points="0 72.709 70.393 72.709 70.393 70.769 32.603 70.769 0 72.709"></polyline>
            <path d="M200.534,72.709 L200.534,62.264 L207.204,62.264 L207.204,63.828 L202.304,63.828 L202.304,66.925 L206.88,66.925 L206.88,68.473 L202.304,68.473 L202.304,72.709 L200.534,72.709 Z M212.512,72.709 L214.282,72.709 L214.282,62.264 L212.512,62.264 L212.512,72.709 Z M228.763,72.709 L227.402,72.709 L222.06,65.104 L222.06,72.709 L220.358,72.709 L220.358,62.264 L222.026,62.264 L227.062,69.511 L227.062,62.264 L228.763,62.264 L228.763,72.709 Z M236.828,68.286 L239.686,68.286 L238.257,64.424 L236.828,68.286 Z M239.124,62.264 L243.139,72.709 L241.335,72.709 L240.264,69.817 L236.266,69.817 L235.194,72.709 L233.408,72.709 L237.423,62.264 L239.124,62.264 Z M255.933,72.709 L254.573,72.709 L249.231,65.104 L249.231,72.709 L247.53,72.709 L247.53,62.264 L249.197,62.264 L254.232,69.511 L254.232,62.264 L255.933,62.264 L255.933,72.709 Z M266.22,62.093 C268.585,62.093 270.082,63.454 270.474,65.547 L268.738,65.547 C268.33,64.441 267.615,63.692 266.22,63.692 C264.383,63.692 263.26,65.291 263.26,67.486 C263.26,69.664 264.367,71.28 266.22,71.28 C267.615,71.28 268.33,70.531 268.738,69.408 L270.474,69.408 C270.082,71.518 268.568,72.879 266.22,72.879 C263.532,72.879 261.474,70.701 261.474,67.486 C261.474,64.271 263.532,62.093 266.22,62.093 L266.22,62.093 Z M275.954,72.709 L277.724,72.709 L277.724,62.264 L275.954,62.264 L275.954,72.709 Z M286.025,68.286 L288.883,68.286 L287.455,64.424 L286.025,68.286 Z M288.323,62.264 L292.337,72.709 L290.534,72.709 L289.462,69.817 L285.464,69.817 L284.392,72.709 L282.606,72.709 L286.621,62.264 L288.323,62.264 Z M297.499,62.264 L299.268,62.264 L299.268,71.127 L304.286,71.127 L304.286,72.709 L297.499,72.709 L297.499,62.264 L297.499,62.264 Z" id="Fill-44"></path>
            <path d="M291.99,39.678 L299.803,39.678 C299.758,37.555 298.493,35.884 296.19,35.884 C294.022,35.884 292.487,37.194 291.99,39.678 L291.99,39.678 Z M305.177,45.368 C304.454,49.658 301.293,52.413 296.235,52.413 C290.365,52.413 286.436,48.122 286.436,41.89 C286.436,35.794 290.5,31.323 296.145,31.323 C302.061,31.323 305.313,35.432 305.313,41.348 L305.313,43.064 L291.854,43.064 C292.035,46.09 293.751,47.896 296.235,47.896 C298.132,47.896 299.532,47.083 299.984,45.368 L305.177,45.368 Z M272.071,45.955 C272.522,47.4 273.787,48.167 275.457,48.167 C277.173,48.167 278.303,47.49 278.303,46.181 C278.303,45.277 277.67,44.826 276.27,44.464 L272.206,43.561 C269.135,42.838 266.968,41.258 266.968,37.871 C266.968,33.942 270.49,31.323 275.005,31.323 C280.109,31.323 282.909,33.761 283.586,37.555 L278.257,37.555 C277.896,36.426 276.947,35.568 275.096,35.568 C273.742,35.568 272.432,36.2 272.432,37.464 C272.432,38.277 272.973,38.729 274.238,39.045 L278.392,39.994 C281.915,40.852 283.767,42.794 283.767,45.865 C283.767,49.974 280.199,52.413 275.503,52.413 C270.58,52.413 267.103,50.064 266.516,45.955 L272.071,45.955 Z M262.736,51.961 L257.136,51.961 L257.136,50.109 C256.007,51.374 254.065,52.413 251.716,52.413 C247.201,52.413 244.627,49.432 244.627,44.961 L244.627,31.774 L250.227,31.774 L250.227,43.832 C250.227,45.955 251.265,47.4 253.478,47.4 C255.194,47.4 256.684,46.361 257.091,44.6 L257.091,31.774 L262.736,31.774 L262.736,51.961 Z M231.196,36.065 C228.396,36.065 226.861,38.503 226.861,41.89 C226.861,45.232 228.396,47.67 231.196,47.67 C233.996,47.67 235.532,45.232 235.532,41.89 C235.532,38.503 233.996,36.065 231.196,36.065 L231.196,36.065 Z M231.196,52.413 C225.325,52.413 221.307,48.077 221.307,41.89 C221.307,35.658 225.325,31.323 231.196,31.323 C237.067,31.323 241.086,35.658 241.086,41.89 C241.086,48.077 237.067,52.413 231.196,52.413 L231.196,52.413 Z M199.508,22.606 L205.108,22.606 L205.108,33.626 C206.191,32.362 208.179,31.323 210.527,31.323 C215.088,31.323 217.663,34.303 217.663,38.774 L217.663,51.961 L212.062,51.961 L212.062,39.949 C212.062,37.826 210.979,36.38 208.766,36.38 C207.05,36.38 205.559,37.419 205.108,39.181 L205.108,51.961 L199.508,51.961 L199.508,22.606 Z M185.138,36.29 L182.068,36.29 L182.068,31.774 L185.138,31.774 L185.138,26.31 L190.693,26.31 L190.693,31.774 L195.119,31.774 L195.119,36.29 L190.693,36.29 L190.693,45.141 C190.693,46.722 191.551,47.445 192.996,47.445 C193.854,47.445 194.803,47.174 195.435,46.767 L195.435,51.736 C194.667,52.141 193.312,52.368 191.822,52.368 C187.713,52.368 185.138,50.335 185.138,45.865 L185.138,36.29 Z M161.173,22.606 L166.772,22.606 L166.772,33.626 C167.856,32.362 169.843,31.323 172.191,31.323 C176.753,31.323 179.327,34.303 179.327,38.774 L179.327,51.961 L173.727,51.961 L173.727,39.949 C173.727,37.826 172.643,36.38 170.43,36.38 C168.714,36.38 167.224,37.419 166.772,39.181 L166.772,51.961 L161.173,51.961 L161.173,22.606 Z M150.669,38.097 C149.991,36.968 148.546,36.02 146.874,36.02 C143.895,36.02 142.133,38.277 142.133,41.393 C142.133,44.555 143.895,46.813 146.874,46.813 C148.546,46.813 149.991,45.865 150.669,44.69 L150.669,38.097 Z M150.669,49.432 C149.765,50.516 147.914,51.51 145.701,51.51 C139.874,51.51 136.533,46.813 136.533,41.393 C136.533,36.02 139.874,31.323 145.701,31.323 C147.914,31.323 149.765,32.317 150.669,33.355 L150.669,31.774 L156.223,31.774 L156.223,49.748 C156.223,56.658 152.023,59.864 146.333,59.864 C141.094,59.864 137.527,57.199 136.94,52.683 L142.359,52.683 C142.811,54.58 144.165,55.528 146.333,55.528 C149.178,55.528 150.669,53.858 150.669,50.606 L150.669,49.432 Z M127.321,51.961 L132.92,51.961 L132.92,31.774 L127.321,31.774 L127.321,51.961 Z M130.121,29.155 C128.314,29.155 126.779,27.845 126.779,25.949 C126.779,24.097 128.314,22.742 130.121,22.742 C131.882,22.742 133.417,24.097 133.417,25.949 C133.417,27.845 131.882,29.155 130.121,29.155 L130.121,29.155 Z M124.164,37.284 C123.396,36.832 122.403,36.606 121.364,36.606 C119.467,36.606 117.932,37.6 117.525,39.451 L117.525,51.961 L111.926,51.961 L111.926,31.774 L117.525,31.774 L117.525,33.761 C118.383,32.317 120.055,31.323 122.041,31.323 C122.99,31.323 123.848,31.503 124.164,31.684 L124.164,37.284 Z M92.386,47.083 L97.85,47.083 C100.56,47.083 102.004,45.729 102.004,43.606 C102.004,41.439 100.56,40.129 97.85,40.129 L92.386,40.129 L92.386,47.083 Z M97.082,35.613 C99.837,35.613 101.282,34.529 101.282,32.317 C101.282,30.103 99.837,29.11 97.082,29.11 L92.386,29.11 L92.386,35.613 L97.082,35.613 Z M107.65,44.103 C107.65,49.206 104.127,51.961 98.346,51.961 L86.83,51.961 L86.83,24.233 L97.443,24.233 C103.224,24.233 106.792,26.806 106.792,31.774 C106.792,34.755 105.165,36.923 103.133,37.645 C105.753,38.503 107.65,41.077 107.65,44.103 L107.65,44.103 Z" id="Fill-45"></path>
        </g>
    </g>
</svg>