<svg id="Layer_1" data-name="Layer 1" xmlns="http://www.w3.org/2000/svg" viewBox="0 0 174 27.33"><defs><style>.cls-1{fill:#fff;}</style></defs><title>businessweek-logo</title>
<style>.cls-1 {fill: #999999}</style><path class="cls-1" d="M14.53,20.93c-.18,2.69-1.08,5.49-6.19,5.49H.89V1.72H8.34c4.55,0,5.95,2.41,5.95,5.74v.81c0,3.6-1.85,4.48-3.53,4.93,2.83.56,3.67,2.38,3.78,4.65,0,.46,0,1.09,0,1.43s0,1.16,0,1.64M9.67,7.88c0-2.17-1.12-2.69-2.48-2.69H5.33v6.44h2c1.85,0,2.34-1.15,2.34-2.9ZM10,17.57c-.1-1.71-.91-2.48-2.83-2.48H5.33v7.83H7.08c1.89,0,2.76-.52,2.9-2.45,0-.42,0-1.12,0-1.54s0-.95,0-1.37"/><path class="cls-1" d="M24.71,26.42V24.78a5.31,5.31,0,0,1-3.92,2c-2.76,0-4-1.82-4-4.48V7.18h4.41V20.44c0,1,.1,2.45,1.61,2.45,1.89,0,1.89-1.85,1.89-2.73v-13h4.37V26.42Z"/><path class="cls-1" d="M37.07,26.81c-3,0-5.81-.91-5.81-5.07V19.53h4.27v2c0,1.12.49,2,1.71,2a1.66,1.66,0,0,0,1.68-1.75,2.54,2.54,0,0,0-1.22-2.38l-3.81-2.31a5.15,5.15,0,0,1-2.59-4.41v-.88c0-2.87,2.24-5,6.16-5,3,0,5.7,1.19,5.7,5.11V14H38.88V12c0-1-.39-2-1.61-2a1.67,1.67,0,0,0-1.68,1.78,2.45,2.45,0,0,0,1.22,2.31l3.71,2.27a5.12,5.12,0,0,1,2.73,4.41v.84c0,3.08-2.38,5.14-6.19,5.14"/><path class="cls-1" d="M45.25,1.2h4.37V5.4H45.25Zm0,6h4.37V26.42H45.25Z"/><path class="cls-1" d="M60.3,26.42V13.16c0-1-.1-2.45-1.61-2.45-1.89,0-1.89,1.85-1.89,2.73v13H52.42V7.18h4.41V8.82a5.31,5.31,0,0,1,3.92-2c2.77,0,4,1.82,4,4.48V26.42Z"/><path class="cls-1" d="M73.21,26.81a6.79,6.79,0,0,1-4.06-1.08c-1.4-.95-2.06-2.52-2.06-4.76V12.6c0-2.41.84-3.78,2.06-4.62a7,7,0,0,1,4-1.16,6.46,6.46,0,0,1,4.62,1.65,5.57,5.57,0,0,1,1.33,3.78v5.49H71.35v3.39c0,.84.11,2.45,1.75,2.45,1.22,0,1.71-1,1.71-2.21V19.53h4.27v2c0,4.17-3.11,5.25-5.88,5.25M74.82,12c0-1.19-.59-2-1.75-2a1.78,1.78,0,0,0-1.72,2V14.6h3.46Z"/><path class="cls-1" d="M86.71,26.81c-3,0-5.81-.91-5.81-5.07V19.53h4.27v2c0,1.12.49,2,1.71,2a1.66,1.66,0,0,0,1.68-1.75,2.54,2.54,0,0,0-1.22-2.38l-3.81-2.31a5.14,5.14,0,0,1-2.59-4.41v-.88c0-2.87,2.24-5,6.16-5,3,0,5.7,1.19,5.7,5.11V14H88.53V12c0-1-.38-2-1.61-2a1.67,1.67,0,0,0-1.68,1.78,2.45,2.45,0,0,0,1.22,2.31l3.71,2.27a5.12,5.12,0,0,1,2.73,4.41v.84c0,3.08-2.38,5.14-6.19,5.14"/><path class="cls-1" d="M100.11,26.81c-3,0-5.81-.91-5.81-5.07V19.53h4.27v2c0,1.12.49,2,1.71,2A1.66,1.66,0,0,0,102,21.84a2.54,2.54,0,0,0-1.22-2.38l-3.81-2.31a5.15,5.15,0,0,1-2.59-4.41v-.88c0-2.87,2.24-5,6.16-5,3,0,5.7,1.19,5.7,5.11V14h-4.27V12c0-1-.39-2-1.61-2a1.67,1.67,0,0,0-1.68,1.78,2.45,2.45,0,0,0,1.22,2.31l3.71,2.27a5.12,5.12,0,0,1,2.73,4.41v.84c0,3.08-2.38,5.14-6.19,5.14"/><polygon class="cls-1" points="125.58 26.42 120.68 26.42 118.23 9.66 115.54 26.42 110.64 26.42 106.41 1.72 110.99 1.72 113.33 20.05 116.06 1.72 120.23 1.72 122.96 20.05 125.3 1.72 129.81 1.72 125.58 26.42"/><path class="cls-1" d="M136,26.81A6.8,6.8,0,0,1,132,25.72c-1.4-.95-2.06-2.52-2.06-4.76V12.6c0-2.41.84-3.78,2.06-4.62a7,7,0,0,1,4-1.16,6.46,6.46,0,0,1,4.62,1.65,5.57,5.57,0,0,1,1.33,3.78v5.49h-7.73v3.39c0,.84.1,2.45,1.75,2.45,1.23,0,1.71-1,1.71-2.21V19.53h4.27v2c0,4.17-3.11,5.25-5.87,5.25M137.65,12c0-1.19-.59-2-1.75-2a1.78,1.78,0,0,0-1.72,2V14.6h3.46Z"/><path class="cls-1" d="M150.07,26.81A6.8,6.8,0,0,1,146,25.72c-1.4-.95-2.06-2.52-2.06-4.76V12.6c0-2.41.84-3.78,2.06-4.62a7,7,0,0,1,4-1.16,6.46,6.46,0,0,1,4.62,1.65A5.57,5.57,0,0,1,156,12.25v5.49h-7.73v3.39c0,.84.1,2.45,1.75,2.45,1.23,0,1.71-1,1.71-2.21V19.53H156v2c0,4.17-3.11,5.25-5.88,5.25M151.68,12c0-1.19-.6-2-1.75-2a1.78,1.78,0,0,0-1.72,2V14.6h3.46Z"/><polygon class="cls-1" points="166.31 26.42 162.6 16.66 162.6 26.42 158.26 26.42 158.26 1.2 162.6 1.2 162.6 14.42 166.24 7.18 171.03 7.18 166.66 15.23 171.31 26.42 166.31 26.42"/><path class="cls-1" d="M16.26,1.84h.62c.56,0,.81.18.81.54s-.25.53-.75.53h-.68ZM15.51,5.4H17c.79,0,1.59-.29,1.59-1.2a1,1,0,0,0-.91-1h0a.93.93,0,0,0,.73-.92c0-.77-.65-1.06-1.29-1.06H15.51Zm.75-1.85H17c.6,0,.89.16.89.59s-.53.62-.92.62h-.69Z"/><rect class="cls-1" x="19.1" y="1.1" width="0.71" height="4.3"/><path class="cls-1" d="M21,4a.84.84,0,1,1,1.67,0A.84.84,0,1,1,21,4m-.71,0a1.55,1.55,0,0,0,3.1,0,1.55,1.55,0,0,0-3.1,0"/><path class="cls-1" d="M24.41,4a.84.84,0,1,1,1.67,0,.84.84,0,1,1-1.67,0M23.7,4a1.55,1.55,0,0,0,3.1,0,1.55,1.55,0,0,0-3.1,0"/><path class="cls-1" d="M27.23,2.55h.68V3h0a.91.91,0,0,1,.87-.51.87.87,0,0,1,.89.53,1,1,0,0,1,.94-.53c.76,0,1,.54,1,1.22V5.4h-.71V3.78c0-.36-.11-.67-.53-.67s-.61.37-.61.74V5.4h-.71V3.7c0-.35-.14-.58-.49-.58a.64.64,0,0,0-.65.72V5.4h-.71Z"/><path class="cls-1" d="M34.58,4a.84.84,0,1,1-1.67,0,.84.84,0,1,1,1.67,0M32.22,5.4h.68V5h0a1.1,1.1,0,0,0,1,.5A1.38,1.38,0,0,0,35.29,4a1.4,1.4,0,0,0-1.38-1.49,1.17,1.17,0,0,0-1,.43h0V1.1h-.71Z"/><path class="cls-1" d="M36.32,3.69A.71.71,0,0,1,37.06,3a.65.65,0,0,1,.72.67Zm2.17.53V4c0-1-.54-1.55-1.33-1.55A1.48,1.48,0,0,0,35.61,4a1.55,1.55,0,0,0,2.75.93l-.51-.39a.93.93,0,0,1-.76.39.74.74,0,0,1-.76-.68Z"/><path class="cls-1" d="M39,2.55h.71V3h0a.91.91,0,0,1,.84-.52.87.87,0,0,1,.25,0v.69a1.45,1.45,0,0,0-.34-.05.72.72,0,0,0-.76.72V5.4H39Z"/><path class="cls-1" d="M42.36,3.12A.79.79,0,0,1,43.2,4a.8.8,0,0,1-.85.84A.82.82,0,0,1,41.52,4a.8.8,0,0,1,.84-.85m.84-.57V3h0a1.09,1.09,0,0,0-1-.5A1.38,1.38,0,0,0,40.81,4a1.39,1.39,0,0,0,1.42,1.46A1.15,1.15,0,0,0,43.16,5h0v.21c0,.56-.21,1-.9,1a1.37,1.37,0,0,1-1-.41l-.42.58a2,2,0,0,0,1.41.47,1.47,1.47,0,0,0,1.6-1.68V2.55Z"/></svg>