<?xml version="1.0" encoding="UTF-8" standalone="no"?>
<svg width="65px" height="14px" viewBox="0 0 65 14" version="1.1" xmlns="http://www.w3.org/2000/svg" xmlns:xlink="http://www.w3.org/1999/xlink">
    <!-- Generator: Sketch 41.2 (35397) - http://www.bohemiancoding.com/sketch -->
    <title>digicert</title>
    <desc>Created with Sketch.</desc>
    <defs></defs>
    <g id="Page-1" stroke="none" stroke-width="1" fill="none" fill-rule="evenodd">
        <g id="digicert" fill="#FFFFFF">
            <path d="M10.4979779,3.12224082 C10.4572733,3.07242684 10.4389522,3.03309152 10.408364,3.01495536 C9.16452206,2.27983631 7.85647672,1.98828745 6.44519608,2.44080481 C5.28204657,2.81376488 4.3300674,3.53679315 3.41680147,4.32253224 C3.10908701,4.58723958 2.8275,4.50341022 2.73860294,4.09804687 C2.70283701,3.93474082 2.72992034,3.75241195 2.75214461,3.58193204 C2.78360907,3.34011657 2.83705882,3.10128348 2.88102941,2.86124132 C2.74664828,2.94990699 2.67503676,3.05848214 2.61298407,3.17237723 C1.59632353,5.03572669 1.84102941,7.51272321 3.20324142,9.1344184 C3.54528799,9.54163566 3.89386642,9.94312996 4.24292279,10.3513951 C3.82313113,11.0019593 3.21869485,10.749504 2.60175245,10.6967076 C2.69988971,10.7826327 2.72577819,10.8122148 2.75764093,10.8321243 C4.56051471,11.9612413 7.15270833,11.7328063 8.73341912,10.3085131 C9.12461397,9.95602679 9.52090686,9.6094246 9.92476716,9.25145709 C10.3236887,9.7468564 10.3506924,10.2836062 10.3137316,10.8531622 C10.4547243,10.6403646 10.5839277,10.4250682 10.6709926,10.193409 C11.4135539,8.21834077 11.1138051,6.40553075 9.82997549,4.74812748 C9.49557598,4.31640625 9.17216912,3.87597966 8.83912377,3.43337674 C9.31555147,2.86744792 9.91257966,3.07952009 10.4979779,3.12224082 M11.9174632,12.6228485 C12.0362316,11.7626302 11.9729044,10.9661706 11.4031985,10.2264571 C10.8046569,10.7613529 10.2500858,11.3001984 9.65202206,11.7839906 C6.95985907,13.961942 3.54130515,14.0540737 0.926887255,12.230785 C1.19780025,12.2791481 1.46719975,12.3516121 1.74002451,12.369184 C2.02710784,12.3876426 2.33394608,12.4086 2.60167279,12.3265439 C2.86007966,12.247309 3.07969363,12.038058 3.35610294,11.8604043 C2.75867647,11.1589782 2.18522672,10.5591952 1.69446078,9.89662078 C-0.364270833,7.11735491 -0.405931373,3.79021577 1.23157475,1.10969122 C1.27028799,1.04633557 1.32963235,0.995876736 1.43963848,0.870858135 C1.3325,1.43291791 1.23308824,1.90212054 1.15629902,2.375031 C1.10053922,2.71832837 1.14530637,3.04494048 1.41860907,3.30029762 C1.61066176,3.47980531 1.76519608,3.4953621 1.99978554,3.31295263 C2.90269608,2.6108817 3.80082721,1.89518849 4.7560723,1.27138517 C5.75911152,0.616307044 6.89031863,0.245684524 8.09202206,0.1953063 C9.63489583,0.130580357 11.0214828,0.631783234 12.3003738,1.48361855 C11.4628615,1.44025298 10.5874326,1.11307664 9.86351103,1.9266245 C10.3088725,2.51528398 10.7449939,3.08540427 11.174424,3.66068328 C11.9141176,4.65140129 12.588652,5.68516245 12.8485723,6.92011409 C13.2432721,8.79555432 13.0375184,10.6013517 12.1240135,12.3023624 C12.0640319,12.4140005 11.986685,12.5162078 11.9174632,12.6228485" id="Fill-4"></path>
            <path d="M31.8711569,6.79952071 C31.8559424,6.46508991 31.8776091,6.12380766 31.8183444,5.79759859 C31.658951,4.92085627 31.0172353,4.35113901 30.088038,4.21298177 C29.2177071,4.08361049 28.3097782,4.54241505 27.9028909,5.36619978 C27.4529093,6.27736049 27.4142757,7.22664745 27.813038,8.16618118 C28.2103664,9.10224888 29.1026029,9.56274616 30.1599681,9.42112289 C31.024723,9.30521267 31.6982218,8.63764075 31.8291777,7.72398127 M31.8614387,9.28417473 C30.9534301,10.3547724 29.8622904,10.6083563 28.6405931,10.3528379 C27.3135098,10.0752338 26.3812855,9.00769903 26.1732218,7.48273003 C25.909,5.54667473 26.9141103,3.63818638 28.969576,3.26304998 C30.1430809,3.04880146 31.209049,3.28747334 32.0128664,4.39909908 C32.0357279,4.01074343 32.0534914,3.70968316 32.0724498,3.38774616 L33.2520086,3.38774616 C33.2637181,3.41458767 33.2927929,3.44965092 33.2923946,3.48439174 C33.2711262,5.68644407 33.2880931,7.88986669 33.2124988,10.0899039 C33.1384179,12.2463337 32.0186814,13.3546546 29.8685037,13.5192504 C28.9463162,13.5898605 28.0447598,13.4818496 27.1718799,13.1428243 C26.8726091,13.026511 26.7682586,12.8902883 26.9213591,12.5823766 C27.0140797,12.3959369 27.0649804,12.1882174 27.1464694,11.9564776 C27.9551458,12.3736899 28.7733015,12.5442504 29.6371005,12.501046 C31.0162794,12.4318868 31.8134853,11.6251904 31.8600846,10.2308823 C31.8694044,9.95061818 31.8614387,9.6697092 31.8614387,9.28417473" id="Fill-6"></path>
            <path d="M20.0456256,6.35193638 C20.0339161,5.2974597 19.4759197,4.53098524 18.5439344,4.28779948 C17.5545962,4.02954055 16.5610362,4.41644531 16.0825374,5.30503658 C15.5327457,6.32614273 15.5108401,7.39496714 16.0194491,8.4350155 C16.4425067,9.29998946 17.1996452,9.63546813 18.128046,9.57235429 C18.9844369,9.51423797 19.7118634,8.9427474 19.9380092,8.11130518 C20.0452273,7.71706535 19.9999822,7.29163132 20.0459442,6.88022259 C20.0459442,6.70111793 20.047617,6.52652716 20.0456256,6.35193638 Z M20.0249148,0.0673939732 L21.4465509,0.0673939732 L21.4465509,10.44555 L20.2562384,10.44555 C20.2283585,10.077265 20.2015141,9.72300533 20.166943,9.26597408 C19.6683707,9.98513331 19.0694308,10.396542 18.3120533,10.5509009 C16.2039344,10.9804458 14.406796,9.57517547 14.2703437,7.37675037 C14.184394,5.99066406 14.5265202,4.75821119 15.6630643,3.87211868 C16.9363793,2.87946615 18.650356,2.99400608 20.0249148,4.17011595 L20.0249148,0.0673939732 Z" id="Fill-8"></path>
            <path d="M49.7387089,6.10510727 C49.7704124,5.12946243 49.1969626,4.45350756 48.3193033,4.40957775 C47.2593094,4.35645895 46.4835313,5.04660032 46.4213989,6.10510727 L49.7387089,6.10510727 Z M46.4173364,7.39898127 C46.4414724,8.36841952 47.0553879,9.00729601 48.086068,9.18140315 C49.0213989,9.33938926 49.9324344,9.1899473 50.8868033,8.93088232 C50.973231,9.29199343 51.070731,9.64697855 51.1332616,10.0082509 C51.1444933,10.0734604 51.0269197,10.2104086 50.9447935,10.2362829 C49.6034516,10.6594599 48.2406023,10.8031789 46.8783107,10.3790346 C45.1436232,9.83898003 44.2280472,8.20164745 44.5518523,6.32378906 C45.0297138,3.55193886 47.4909516,2.732265 49.4760006,3.32777592 C50.7400754,3.70710379 51.5329001,4.8836973 51.6049099,6.4135026 C51.6198058,6.73157056 51.6070607,7.0510088 51.6070607,7.39898127 L46.4173364,7.39898127 Z" id="Fill-10"></path>
            <path d="M60.8979822,3.30088604 L62.7304087,3.30088604 L62.7304087,4.66931982 L60.9429884,4.66931982 C60.9429884,5.91410528 60.9167813,7.1190718 60.9551759,8.32186198 C60.9718241,8.84466704 61.314269,9.09679998 61.8350656,9.11308222 C62.0982518,9.12122334 62.3619957,9.11453311 62.657443,9.11453311 L62.657443,10.4394401 C61.9211746,10.6241871 61.1804455,10.7178503 60.431432,10.4982819 C59.5861134,10.2503404 59.0867445,9.66063306 59.0343303,8.7019153 C58.9720386,7.56377046 58.9888462,6.42111173 58.9723572,5.28046813 C58.9696489,5.09418961 58.9719589,4.90783048 58.9719589,4.68326451 L57.9079822,4.68326451 L57.9079822,3.3065284 L58.9719589,3.3065284 C58.9719589,2.99265191 58.9972102,2.69989397 58.9655067,2.41366505 C58.9264749,2.06061446 59.0647592,1.91818514 59.3992384,1.85418465 C59.8902433,1.76027964 60.372008,1.61680246 60.8979822,1.48428757 L60.8979822,3.30088604 Z" id="Fill-12"></path>
            <path d="M43.6951348,8.94328745 C43.7836336,9.38540675 43.867114,9.80221602 43.9610294,10.2708544 C42.2501593,10.7476339 40.5799142,10.9181944 39.0809314,9.77698661 C37.1343566,8.29489955 37.4000919,5.02958457 39.5481985,3.79003844 C40.9460172,2.98350322 42.4268382,2.99527158 43.9749694,3.46294271 C43.855723,3.92988839 43.7421324,4.37490947 43.6304534,4.81243428 C42.3725123,4.48283978 41.1641176,4.30599206 40.2377083,5.45372892 C39.6565319,6.1737748 39.6496017,7.39115451 40.1478554,8.18696925 C40.7401838,9.13303199 41.7369301,9.35123016 43.6951348,8.94328745" id="Fill-14"></path>
            <path d="M54.8757243,10.4510956 L52.9055711,10.4510956 L52.9055711,3.33341828 L54.5317659,3.33341828 C54.5590086,3.73789497 54.5858529,4.13423053 54.6196275,4.63398251 C54.7353689,4.45133123 54.7988554,4.34976873 54.8638554,4.24901228 C55.3451422,3.50260851 56.0273235,3.14085255 56.9068946,3.14907428 C57.1445907,3.15125062 57.271723,3.22250558 57.2584203,3.5009964 C57.2374706,3.94166481 57.252924,4.38410652 57.252924,4.87716828 C57.0979118,4.86765687 56.9726115,4.85999938 56.8473113,4.85234189 C55.6616189,4.77923301 54.8925319,5.49057354 54.8796275,6.69481461 C54.8676789,7.80958395 54.8762022,8.92459511 54.8757243,10.0394451 C54.8756446,10.1700254 54.8757243,10.3005252 54.8757243,10.4510956" id="Fill-16"></path>
            <polygon id="Fill-18" points="23.3832721 10.4586 24.751777 10.4586 24.751777 3.37638889 23.3832721 3.37638889"></polygon>
            <polygon id="Fill-20" points="35.0897243 10.4432044 36.4461213 10.4432044 36.4461213 3.37630828 35.0897243 3.37630828"></polygon>
            <path d="M24.0320613,2.16367622 C23.5467917,2.15827567 23.1756703,1.7994215 23.186424,1.3462593 C23.197337,0.888099578 23.5625637,0.557860243 24.0607377,0.555603299 C24.5685502,0.553346354 24.9436544,0.915424727 24.9271654,1.39180122 C24.9116324,1.83778956 24.527288,2.16923797 24.0320613,2.16367622" id="Fill-22"></path>
            <path d="M35.7668634,2.16344246 C35.2744246,2.17101935 34.9024271,1.83715278 34.8921513,1.378187 C34.8816366,0.917850942 35.2395349,0.565687004 35.7297433,0.55375744 C36.2387506,0.541424851 36.6283523,0.890203373 36.6305031,1.35997024 C36.6325741,1.80926339 36.2599393,2.15586558 35.7668634,2.16344246" id="Fill-23"></path>
            <path d="M65,1.05391728 C65,0.466400117 64.6201648,0.0820430933 64.0070023,0.0820430933 C63.4535282,0.0820430933 63.0085784,0.466400117 63.0085784,1.09235298 C63.0085784,1.64143445 63.3450039,2.05873636 64.0015761,2.05873636 C64.5930337,2.05873636 65,1.65241608 65,1.05391728 Z M64.7883775,1.07038973 C64.7883775,1.55907223 64.4899356,1.86106703 64.0070023,1.86106703 C63.524069,1.86106703 63.2256271,1.57005386 63.2256271,1.08686217 C63.2256271,0.57621641 63.5674788,0.27971242 64.0070023,0.27971242 C64.4573783,0.27971242 64.7883775,0.554253151 64.7883775,1.07038973 Z M64.2023461,1.10333461 C64.3162967,1.05391728 64.3868375,0.971555063 64.3868375,0.828793883 C64.3868375,0.675051073 64.3217229,0.532289893 64.0395596,0.532289893 L63.6814293,0.532289893 L63.6814293,1.58103549 L63.8767731,1.58103549 L63.8767731,1.16373357 L64.0287072,1.16373357 L64.2728869,1.58103549 L64.4790832,1.58103549 L64.2023461,1.10333461 Z M63.8767731,1.00999077 L63.8767731,0.686032702 L63.9852975,0.686032702 C64.1101004,0.686032702 64.1860675,0.713486775 64.1860675,0.834284697 C64.1860675,0.982536692 64.0829694,1.00999077 63.9473139,1.00999077 L63.8767731,1.00999077 Z" id="®"></path>
        </g>
    </g>
</svg>