<?xml version="1.0" encoding="UTF-8"?>
<svg width="52px" height="52px" viewBox="0 0 52 52" version="1.1" xmlns="http://www.w3.org/2000/svg" xmlns:xlink="http://www.w3.org/1999/xlink">
    <!-- Generator: Sketch 45.2 (43514) - http://www.bohemiancoding.com/sketch -->
    <title>Disability Guy</title>
    <desc>Created with Sketch.</desc>
    <defs></defs>
    <g id="Page-1" stroke="none" stroke-width="1" fill="none" fill-rule="evenodd">
        <g id="Disability-Guy" transform="translate(1.000000, 1.000000)" fill="#4D4D4D">
            <g id="Page-1-Copy-2" stroke="#FFFFFF" stroke-width="1.5">
                <path d="M24.8656274,0 C11.153795,0 0,11.1541477 0,24.8656274 C0,38.5774597 11.1541477,49.7312548 24.8656274,49.7312548 C38.5774597,49.7312548 49.7312548,38.5771071 49.7312548,24.8656274 C49.7358513,11.153795 38.5771071,0 24.8656274,0 Z M6.33631485,13.4731919 L43.3984666,13.4731919 C44.4454516,15.1676565 45.2628009,17.0090672 45.8184922,18.9653309 L3.92005111,18.9653309 C4.46650243,17.0090672 5.28853054,15.1676565 6.33549195,13.4731919 L6.33631485,13.4731919 Z M41.0978789,10.391909 L17.9215436,10.391909 L35.6150268,5.94684896 C37.6768566,7.12241758 39.522852,8.6285561 41.0979964,10.391909 L41.0978789,10.391909 Z M30.8942959,3.94920521 L9.6788091,9.27594173 C13.6049732,5.44617429 18.9593355,3.0812829 24.8648045,3.0812829 C26.9587273,3.08587938 28.9792947,3.39813391 30.8941784,3.9491817 L30.8942959,3.94920521 Z M24.8649221,46.6505597 C12.8517864,46.6505597 3.08046001,36.8786455 3.08046001,24.8660976 C3.08046001,23.9109481 3.16311423,22.9741375 3.28251674,22.0511986 L46.4435185,22.0511986 C46.5629093,22.974208 46.6455753,23.9109481 46.6455753,24.8660976 C46.6501717,36.8792333 36.8782458,46.6505597 24.8658155,46.6505597 L24.8649221,46.6505597 Z" id="Fill-4"></path>
            </g>
            <g id="Group-32" transform="translate(12.087912, 25.274725)">
                <path d="M3.12809053,6.25618107 C1.40373688,6.25618107 0,4.85244418 0,3.12809053 C0,1.40373688 1.40373688,0 3.12809053,0 C4.85244418,0 6.25618107,1.40373688 6.25618107,3.12809053 C6.25618107,4.85244418 4.85244418,6.25618107 3.12809053,6.25618107 Z M3.12809053,2.08606102 C2.55332267,2.08606102 2.08606102,2.55331766 2.08606102,3.12809053 C2.08606102,3.7028584 2.55331766,4.17012005 3.12809053,4.17012005 C3.7028584,4.17207699 4.17012005,3.70481533 4.17012005,3.12809053 C4.17012005,2.55332267 3.70286341,2.08606102 3.12809053,2.08606102 Z" id="Fill-2"></path>
                <path d="M22.3588598,6.25618107 C20.6345061,6.25618107 19.2307692,4.85244418 19.2307692,3.12809053 C19.2307692,1.40373688 20.6345061,0 22.3588598,0 C24.0832134,0 25.4869503,1.40373688 25.4869503,3.12809053 C25.4869503,4.85244418 24.0832134,6.25618107 22.3588598,6.25618107 Z M22.3588598,2.08606102 C21.7840919,2.08606102 21.3168302,2.55331766 21.3168302,3.12809053 C21.3168302,3.7028584 21.7840869,4.17012005 22.3588598,4.17012005 C22.9336276,4.17207699 23.4008893,3.70481533 23.4008893,3.12809053 C23.4008893,2.55332267 22.9336326,2.08606102 22.3588598,2.08606102 Z" id="Fill-2-Copy"></path>
            </g>
            <path d="M28.2252295,39.6076758 C27.8496306,39.6076758 27.4761636,39.4509945 27.2078669,39.1462253 C25.7848998,37.5193571 23.0204493,37.5193571 21.5974273,39.1462253 C21.1059273,39.7063901 20.2538559,39.7665 19.6914932,39.2728571 C19.1313284,38.7813571 19.0733614,37.9292857 19.5648614,37.3669231 C20.788268,35.9675275 22.5524987,35.1648352 24.4026086,35.1648352 C26.2527185,35.1648352 28.0148064,35.9675275 29.2403559,37.3669231 C29.7318559,37.9292308 29.6739053,38.7813187 29.113724,39.2728571 C28.8583174,39.4960714 28.5406471,39.6076813 28.2251526,39.6076813 L28.2252295,39.6076758 Z" id="Fill-1-Copy-2"></path>
        </g>
    </g>
</svg>