<svg width="32" height="32" viewBox="0 0 32 32" xmlns="http://www.w3.org/2000/svg"><title>Combined Shape</title><desc>Created with Sketch.</desc><path d="M0 16c0-8.837 7.162-16 16-16 8.837 0 16 7.162 16 16 0 8.837-7.162 16-16 16-8.837 0-16-7.162-16-16zm7.741 3.647c0 1.435 1.125 2.588 2.526 2.588h12.081c1.401 0 2.526-1.153 2.526-2.588v-6.706l-8.061 5.035c-.161.094-.345.141-.505.141-.161 0-.345-.047-.505-.141l-8.061-5.035v6.706zm17.065-8.33c-.253-1.153-1.263-2.024-2.457-2.024h-12.081c-1.194 0-2.205.871-2.457 2.024l8.498 5.318 8.498-5.318z" fill="#EE7832"/></svg>