<svg width="36" height="35" viewBox="0 0 36 35" xmlns="http://www.w3.org/2000/svg"><title>Shape</title><desc>Created with Sketch.</desc><path d="M10.4 33.3c0 .9-.7 1.6-1.6 1.6h-6.7c-.9 0-1.6-.7-1.6-1.6v-16.6c0-.9.7-1.6 1.6-1.6h6.7c.9 0 1.6.7 1.6 1.6v16.6zm23.6-15.1c1.4.8 1.1 4.2-.6 4.8-.1 0-.1.2 0 .3 1.9.9 1.2 4.1-.6 4.6-.1 0-.1.2 0 .2.5.4.8.9.8 1.6 0 .5-.2.9-.4 1.2-.4.5-.9.7-1.5.7l-18.7.4c-.4 0-.8-.4-.8-.8v-13.7c-.2-4.1 3.2-6 6.6-11.1.4-.6.7-1.7.7-2.7v-1.4c0-.7.5-1.3 1.1-1.7.7-.5 1.8-.5 2.5-.1 3.3 2.5 1.5 9.7.9 11.6l9.5-.1c2.7 0 2.6 5.1.5 5.9-.1 0-.1.2 0 .3z" fill-rule="nonzero" fill="#fff"/></svg>