<svg xmlns="http://www.w3.org/2000/svg" width="42" height="42" viewBox="0 0 42 42"><title>  Icon &#x2F; Stethoscope</title><desc>  Created with Sketch.</desc><g fill="none"><g fill="#4D4D4D"><path d="M37.1 21C34.7 21 32.8 22.6 32.3 24.8 28 25.3 24.8 28.9 24.7 33.2 24.7 33.3 24.7 33.3 24.7 33.4 24.7 36.8 21.9 39.5 18.5 39.5 15.1 39.5 12.4 36.8 12.4 33.4L12.4 19.7C16.5 19.1 19.7 15.5 19.8 11.2 19.8 11.2 19.8 11.2 19.8 11.1L19.8 7.2C21.2 6.7 22.2 5.3 22.2 3.7 22.2 1.7 20.6 0 18.5 0 16.5 0 14.8 1.7 14.8 3.7 14.8 5.3 15.9 6.7 17.3 7.2L17.3 11.1C17.3 14.5 14.5 17.3 11.1 17.3 7.7 17.3 4.9 14.5 4.9 11.1L4.9 7.2C6.4 6.7 7.4 5.3 7.4 3.7 7.4 1.7 5.8 0 3.7 0 1.7 0 0 1.7 0 3.7 0 5.3 1 6.7 2.5 7.2L2.5 11.1C2.5 11.2 2.5 11.2 2.5 11.2 2.5 15.5 5.7 19.1 9.9 19.7L9.9 33.4C9.9 33.4 9.9 33.4 9.9 33.5 9.9 38.2 13.8 42 18.5 42 23.3 42 27.1 38.2 27.2 33.5 27.2 33.4 27.2 33.4 27.2 33.4 27.2 30.3 29.4 27.8 32.3 27.3 32.9 29.3 34.8 30.9 37.1 30.9 39.8 30.9 42 28.7 42 25.9 42 23.2 39.8 21 37.1 21L37.1 21ZM18.5 2.5C19.2 2.5 19.8 3 19.8 3.7 19.8 4.4 19.2 4.9 18.5 4.9 17.9 4.9 17.3 4.4 17.3 3.7 17.3 3 17.9 2.5 18.5 2.5ZM3.7 4.9C3 4.9 2.5 4.4 2.5 3.7 2.5 3 3 2.5 3.7 2.5 4.4 2.5 4.9 3 4.9 3.7 4.9 4.4 4.4 4.9 3.7 4.9ZM37.1 28.4C35.7 28.4 34.6 27.3 34.6 25.9 34.6 24.6 35.7 23.5 37.1 23.5 38.4 23.5 39.5 24.6 39.5 25.9 39.5 27.3 38.4 28.4 37.1 28.4Z"/></g></g></svg>