<?xml version="1.0" encoding="UTF-8"?>
<svg width="47px" height="50px" viewBox="0 0 47 50" version="1.1" xmlns="http://www.w3.org/2000/svg" xmlns:xlink="http://www.w3.org/1999/xlink">
    <!-- Generator: Sketch 45.2 (43514) - http://www.bohemiancoding.com/sketch -->
    <title>Page 1</title>
    <desc>Created with Sketch.</desc>
    <defs></defs>
    <g id="Page-1" stroke="none" stroke-width="1" fill="none" fill-rule="evenodd">
        <path d="M22.2892771,42.1686627 C22.7716747,42.1686627 23.1928916,42.5898795 23.1928916,43.0722771 C23.1928916,43.5546747 22.7716747,43.9758916 22.2892771,43.9758916 L10.2410843,43.9758916 C9.75868675,43.9758916 9.33746988,43.5546747 9.33746988,43.0722771 C9.33746988,42.5898795 9.75868675,42.1686627 10.2410843,42.1686627 L22.2892771,42.1686627 Z M16.8675904,11.1445783 L16.8675904,14.9403494 L12.6506024,14.9403494 C12.6506024,14.9403494 11.746988,16.166705 11.746988,17.1686747 C11.746988,18.1706444 12.6506024,19.1572169 12.6506024,19.1572169 L16.8675904,19.1572169 L16.8675904,22.8915663 C16.8675904,22.8915663 17.92165,23.7951807 18.9759036,23.7951807 C20.0301572,23.7951807 21.0844578,22.8915663 21.0844578,22.8915663 L21.0844578,19.1572169 L25.3012048,19.1572169 C25.3012048,19.1572169 26.2048193,18.2675773 26.2048193,17.1686747 C26.2048193,16.0697721 25.3012048,14.9403494 25.3012048,14.9403494 L21.0844578,14.9403494 L21.0844578,11.1445783 C21.0844578,11.1445783 20.0300691,10.2409639 18.9759036,10.2409639 C17.9217381,10.2409639 16.8675904,11.1445783 16.8675904,11.1445783 Z M7.83144578,28.9156506 C7.34904819,28.9156506 6.92783133,29.3368675 6.92783133,29.8192651 C6.92783133,30.3016627 7.34904819,30.7228795 7.83144578,30.7228795 C8.31384337,30.7228795 8.73506024,30.3016627 8.73506024,29.8192651 C8.73506024,29.3368675 8.31384337,28.9156506 7.83144578,28.9156506 Z M7.83144578,37.7704699 C7.34904819,37.7704699 6.92783133,38.1916867 6.92783133,38.6740843 C6.92783133,39.1564819 7.34904819,39.5776988 7.83144578,39.5776988 C8.31384337,39.5776988 8.73506024,39.1564819 8.73506024,38.6740843 C8.73506024,38.1916867 8.31384337,37.7704699 7.83144578,37.7704699 Z M7.83144578,42.1685422 C7.34904819,42.1685422 6.92783133,42.589759 6.92783133,43.0721566 C6.92783133,43.5545542 7.34904819,43.9757711 7.83144578,43.9757711 C8.31384337,43.9757711 8.73506024,43.5545542 8.73506024,43.0721566 C8.73506024,42.589759 8.31384337,42.1685422 7.83144578,42.1685422 Z M7.83144578,33.3137229 C7.34904819,33.3137229 6.92783133,33.7349398 6.92783133,34.2173373 C6.92783133,34.6997349 7.34904819,35.1209518 7.83144578,35.1209518 C8.31384337,35.1209518 8.73506024,34.6997349 8.73506024,34.2173373 C8.73506024,33.7349398 8.31384337,33.3137229 7.83144578,33.3137229 Z M10.2410843,37.7704819 C9.75868675,37.7704819 9.33746988,38.1916988 9.33746988,38.6740964 C9.33746988,39.156494 9.75868675,39.5777108 10.2410843,39.5777108 L27.0471084,39.5777108 C26.7459036,38.9753012 26.4446988,38.3728916 26.263494,37.7704819 L10.2410843,37.7704819 Z M10.2410843,35.1208434 L25.6639759,35.1208434 C25.6027952,34.7584578 25.6027952,34.3372289 25.6027952,33.9772289 C25.6027952,33.7372048 25.6027952,33.556012 25.6639759,33.3136145 L10.2410843,33.3136145 C9.75868675,33.3136145 9.33746988,33.7348313 9.33746988,34.2172289 C9.33746988,34.6996265 9.69750602,35.1208434 10.2410843,35.1208434 Z M9.33746988,29.8191566 C9.33746988,30.3015542 9.75868675,30.7227711 10.2410843,30.7227711 L26.0236145,30.7227711 C26.2048072,30.1203614 26.4448313,29.5179518 26.7460241,28.9155422 L10.2412048,28.9155422 C9.69762651,28.9155422 9.33759036,29.336759 9.33759036,29.8191566 L9.33746988,29.8191566 Z M32.2289157,48.1927711 L5.72289157,48.1927711 C3.55325301,48.1927711 1.80722892,46.446747 1.80722892,44.2771084 L1.80722892,5.72289157 C1.80722892,3.55325301 3.55325301,1.80722892 5.72289157,1.80722892 L32.2289157,1.80722892 C34.3985542,1.80722892 36.1445783,3.55325301 36.1445783,5.72289157 L36.1445783,22.5903614 C36.4457831,22.5903614 36.746988,22.5291807 37.0481928,22.5291807 C37.3493976,22.5291807 37.6506024,22.5291807 37.9518072,22.5903614 L37.9518072,5.72289157 C37.9518072,2.59084337 35.3609639,0 32.2289157,0 L5.72289157,0 C2.59084337,0 0,2.59084337 0,5.72289157 L0,44.2771084 C0,47.4091566 2.59084337,50 5.72289157,50 L32.2289157,50 C35.0009639,50 37.3493976,48.0115663 37.8318072,45.4207229 C37.5917831,45.4207229 37.2905783,45.4819036 37.0481928,45.4819036 C36.6858072,45.4207229 36.3257831,45.4207229 35.9633735,45.3618916 C35.4809759,46.9879518 33.9749398,48.1927711 32.2289157,48.1927711 Z M46.9880723,33.9751807 C46.9880723,39.4580723 42.5312048,43.9149398 37.0483133,43.9149398 C31.5654217,43.9149398 27.1085542,39.4580723 27.1085542,33.9751807 C27.1085542,28.4922892 31.5654217,24.0354217 37.0483133,24.0354217 C42.5288554,24.0354217 46.9880723,28.4946386 46.9880723,33.9751807 Z M45.1808434,33.9751807 C45.1808434,29.5183133 41.5051807,25.8426506 37.0483133,25.8426506 C32.5914458,25.8426506 28.9157831,29.5183133 28.9157831,33.9751807 C28.9157831,38.4320482 32.5914458,42.1077108 37.0483133,42.1077108 C41.5051807,42.1077108 45.1808434,38.493253 45.1808434,33.9751807 Z M37.0483133,31.5655422 C37.7707229,31.5655422 38.3143373,31.986759 38.3143373,32.3491566 C38.3143373,32.8315542 38.6767229,33.1915663 39.156747,33.1915663 C39.6391446,33.1915663 39.9991566,32.8291807 39.9991566,32.3491566 C39.9991566,31.2055422 39.0955422,30.2407229 37.8907229,29.9395181 L37.8907229,29.699494 C37.8907229,29.2170964 37.5283373,28.8570843 37.0483133,28.8570843 C36.5659157,28.8570843 36.2059036,29.2194699 36.2059036,29.699494 L36.2059036,29.9395181 C35.0010843,30.2407229 34.0974699,31.2055422 34.0974699,32.3491566 C34.0974699,33.7351807 35.4222892,34.82 37.1095181,34.82 C37.8319277,34.82 38.3755422,35.2412169 38.3755422,35.6036145 C38.3731928,35.9636506 37.7707831,36.4460241 37.0483735,36.4460241 C36.3259639,36.4460241 35.7823494,36.0248072 35.7823494,35.6624096 C35.7823494,35.180012 35.4199639,34.82 34.9399398,34.82 C34.4575422,34.82 34.0975301,35.1823855 34.0975301,35.6624096 C34.0975301,36.8060241 35.0011446,37.7708434 36.2059639,38.0720482 L36.2036145,38.253241 C36.2036145,38.7356386 36.566,39.0956506 37.0460241,39.0956506 C37.5284217,39.0956506 37.8884337,38.7332651 37.8884337,38.253241 L37.8884337,38.0132169 C39.093253,37.712012 39.9968675,36.7471928 39.9968675,35.6035783 C39.9968675,34.2175542 38.6720482,33.1327349 36.9848193,33.1327349 C36.2624096,33.1327349 35.7187952,32.7115181 35.7187952,32.3491205 C35.7235,31.9890843 36.2647289,31.565506 37.0483133,31.565506 L37.0483133,31.5655422 Z" fill="#4D4D4D"></path>
    </g>
</svg>