<svg width="13" height="22" viewBox="0 0 13 22" xmlns="http://www.w3.org/2000/svg"><title>Group 11</title><desc>Created with Sketch.</desc><g fill="none"><g fill="#4D4D4D"><path d="M6.402 0c-3.105 0-5.021.478-5.843.868-.286.136-.468.422-.468.739v2.75c0 .317.182.604.469.74.823.388 2.737.867 5.842.867 3.105 0 5.021-.478 5.843-.867.286-.136.469-.423.469-.74v-2.75c0-.317-.181-.604-.469-.74-.822-.389-2.738-.867-5.843-.867zM1.385 6.51v13.33c0 1.153 2.245 2.086 5.017 2.086 2.771 0 5.017-.934 5.017-2.086l-.001-13.33c-1.558.406-3.632.542-5.017.542-1.384 0-3.455-.136-5.016-.542z"/></g><path fill="#fff" d="M10 14.366h-2.45v2.45h-2.1v-2.45h-2.45v-2.1h2.45v-2.45h2.1v2.45h2.45z"/></g></svg>