<svg id="Layer_1" data-name="Layer 1" xmlns="http://www.w3.org/2000/svg" viewBox="0 0 1000 738"><defs><style>.cls-1{fill:none}.cls-2{fill:#fff}.cls-3,.cls-4{fill:#00a4a5}.cls-4{fill-rule:evenodd}</style></defs><title>Seamless Pattern Background</title><path class="cls-1" d="M0 0h1000v738H0z"/><path class="cls-1" d="M0 0h1000v738H0z"/><path class="cls-2" d="M0 0h1000v738H0z"/><path class="cls-3" d="M783 405.37a62.32 62.32 0 0 1 7.45-29.79l20.19 18.74a37.22 37.22 0 0 0 0 22.1l-20.19 18.74a65.15 65.15 0 0 1-7.45-29.79zm27.63-51.91l18 19.46a35.46 35.46 0 0 0-15.14 15.14l-19.46-18a60.5 60.5 0 0 1 16.64-16.59zm65.12-3.37L857 370.28a37.22 37.22 0 0 0-22.1 0l-18.46-20.18a61.94 61.94 0 0 1 29.56-7.45 59.73 59.73 0 0 1 29.79 7.45zM897.9 370l-19.46 18a36.79 36.79 0 0 0-15.14-15.14l18-19.46a60.5 60.5 0 0 1 16.6 16.6zm3.37 65.12l-20.19-18.74a37.22 37.22 0 0 0 0-22.1l20.19-18.74a62.19 62.19 0 0 1 7.45 29.79 59.73 59.73 0 0 1-7.45 29.84zm-19.95 22.11l-18-19.46a36.79 36.79 0 0 0 15.14-15.14l19.46 18a60.5 60.5 0 0 1-16.6 16.65zm-65.12 3.37l18.74-20.19a37.22 37.22 0 0 0 22.1 0l18.74 20.19a62.19 62.19 0 0 1-29.78 7.49 59.73 59.73 0 0 1-29.8-7.44zm6.24-36a5.35 5.35 0 0 0-1-1.21 4.28 4.28 0 0 0-1-1.21c-.24-.24-.48-.72-.72-1-.24-.48-.72-1.21-1-1.68 0-.24-.24-.48-.24-.72a7 7 0 0 1-1-2.4 28.34 28.34 0 0 1-2.16-11.05 30.55 30.55 0 1 1 7.43 19.69zm-24 21.63c-.48-.48-.72-1-1.21-1.44-1-1.21-1.68-2.4-2.65-3.6-.24-.24-.24-.48-.48-.48l19.46-18a.88.88 0 0 0 .24.48c.48.72 1 1.68 1.44 2.4 0 .24.24.24.24.48a17.13 17.13 0 0 0 1.93 2.4l.24.24a25.41 25.41 0 0 0 2.4 2.65 44.73 44.73 0 0 0 8.65 6.25l-18 19.46a54.8 54.8 0 0 1-9.86-8.41 7.92 7.92 0 0 1-2.42-2.43zm-8.17.24l.48.48a61.27 61.27 0 0 0 6.25 7.21h.24a68.76 68.76 0 1 0-11.3-14.67l1.44 2.16a10.58 10.58 0 0 1 1 1.68 1.26 1.26 0 0 1 .48 1c.42.67.91 1.41 1.39 2.14zM574.42 483.71h13.38v13.38h-13.38zM574.42 510.48h13.38v13.38h-13.38zM547.65 510.48h13.38v13.38h-13.38zM547.65 483.71h13.38v13.38h-13.38z"/><path class="cls-4" d="M601.19 537.25h-66.92v-93.69h66.92zm-113.76 0v-66.93h40.15v66.92h-40.15zm113.76-100.38h-66.92a6.71 6.71 0 0 0-6.69 6.69v20.08h-40.15a6.71 6.71 0 0 0-6.69 6.69v66.92a6.71 6.71 0 0 0 6.69 6.69h113.76a6.71 6.71 0 0 0 6.69-6.69v-93.7a6.72 6.72 0 0 0-6.69-6.68z"/><path class="cls-3" d="M547.65 456.94h13.38v13.38h-13.38zM574.42 456.94h13.38v13.38h-13.38zM500.82 510.48h13.38v13.38h-13.38zM500.82 483.71h13.38v13.38h-13.38zM674.54 754.61c-7.36 0-15.26-5.79-15.26-13.15v-57.88a24.33 24.33 0 0 1 4.21-.26c3.69 0 6.58 1.05 9.47 1.84a31.61 31.61 0 0 0 8.42 1.58h.26a17 17 0 0 0 8.42-2.37v57.34c-.26 7.38-8.15 12.9-15.52 12.9zm15.26-92.07v13.94c-3.95 3.16-6.58 3.42-8.42 3.42a20.88 20.88 0 0 1-6.58-1.32 34.61 34.61 0 0 0-11.31-2.1 22.74 22.74 0 0 0-4.21.26v-14.2zm13.42-6.54h-57.35a3.2 3.2 0 0 0-3.16 3.16 3.4 3.4 0 0 0 3.16 3.16h6.58v79.18c0 10.52 10.26 19.73 21.83 19.73s21.83-9.21 21.83-19.73v-78.96h6.58a3.2 3.2 0 0 0 3.16-3.16c-.01-1.57-1.06-3.38-2.63-3.38z"/><path class="cls-3" d="M665.59 717.52a4.13 4.13 0 0 0 0 5.79 4 4 0 0 0 2.89 1.06 5.48 5.48 0 0 0 2.89-1.06 3.81 3.81 0 0 0 0-5.52 4.13 4.13 0 0 0-5.78-.27zM670.07 697a3.83 3.83 0 0 0 0 5.78 4 4 0 0 0 2.89 1.06 5.48 5.48 0 0 0 2.89-1.06 3.81 3.81 0 0 0 0-5.52c-1.85-1.84-4.47-1.84-5.78-.26zM681.12 706.73a4.13 4.13 0 0 0 0 5.79 4 4 0 0 0 2.89 1.06 5.48 5.48 0 0 0 2.89-1.06 4 4 0 0 0 1.05-2.89 5.48 5.48 0 0 0-1.05-2.89 4.12 4.12 0 0 0-5.78-.01zM867.49 549.29a16.18 16.18 0 1 1 15.78-16.17 16 16 0 0 1-15.78 16.17zm0-38.26a22.09 22.09 0 1 0 21.69 22.09A22 22 0 0 0 867.49 511z"/><path class="cls-3" d="M867.49 568.48c-29.32 0-53.24-28.39-53.24-35.37s23.92-35.37 53.24-35.37 53.24 28.39 53.24 35.37-23.92 35.37-53.24 35.37zm0-76.65c-32.34 0-59.16 30-59.16 41.28s26.82 41.28 59.16 41.28 59.16-30 59.16-41.28-26.82-41.28-59.16-41.28zM660.12 606.08a3.2 3.2 0 0 1 3.13 3.13 11.62 11.62 0 0 0 23.25 0 9.68 9.68 0 0 0-.44-2 35.35 35.35 0 0 0-5.59-10.74c-3.8-5.15-8.5-12.52-8.5-19.45v-55.48c0-6.93 4.69-14.32 8.5-19.45a35.21 35.21 0 0 0 5.59-10.74 9.5 9.5 0 0 0 .44-2 11.62 11.62 0 0 0-23.25 0 3.2 3.2 0 0 1-3.13 3.13 3.06 3.06 0 0 1-3.13-3.13 11.62 11.62 0 0 0-23.25 0 9.68 9.68 0 0 0 .44 2 35.35 35.35 0 0 0 5.59 10.74c3.8 5.15 8.5 12.52 8.5 19.45V577c0 6.93-4.69 14.32-8.5 19.45a35.21 35.21 0 0 0-5.59 10.74 9.5 9.5 0 0 0-.44 2 11.62 11.62 0 0 0 23.25 0 3.2 3.2 0 0 1 3.13-3.11zm32.21-116.75a14.69 14.69 0 0 1-.68 3.8 39.1 39.1 0 0 1-6.49 12.52c-2.68 3.58-7.38 10.28-7.38 15.65V577c0 4 2.68 9.62 7.38 15.65a39.1 39.1 0 0 1 6.49 12.52 15.29 15.29 0 0 1 .68 3.8 17.58 17.58 0 0 1-32.21 9.84 17.58 17.58 0 0 1-32.2-9.81 14.67 14.67 0 0 1 .68-3.8 39.1 39.1 0 0 1 6.49-12.52c4.69-6 7.38-11.86 7.38-15.65v-55.49c0-4-2.68-9.62-7.38-15.65a39.1 39.1 0 0 1-6.49-12.52 15.29 15.29 0 0 1-.68-3.8 17.58 17.58 0 0 1 32.21-9.84 17.58 17.58 0 0 1 32.21 9.61zM279 256.07c0 8.8-13.2 8.8-13.2 0s13.2-8.79 13.2 0M336.08 256.07c0 8.8-13.19 8.8-13.19 0s13.19-8.79 13.19 0"/><path class="cls-3" d="M353.33 243.73a10.15 10.15 0 0 1-7.22 3 10.15 10.15 0 0 1-7.22-3L322.13 227a10.21 10.21 0 0 1 14.44-14.44l16.76 16.76a10.23 10.23 0 0 1 0 14.41zM304 288.18v-11.55a6.13 6.13 0 0 0 4.2-5.52c0-3.36-3.24-6.09-7.24-6.09s-7.24 2.73-7.24 6.09a6.16 6.16 0 0 0 4.36 5.59v11.49c-18.59-.47-39.33-5.82-39.33-27.29a39.91 39.91 0 0 1 1-8.76 16 16 0 0 0 7.41-4.21l16.76-16.76a16.12 16.12 0 0 0 4.38-14.67 31.1 31.1 0 0 1 25.24 0 16.56 16.56 0 0 0-.33 3.27 16 16 0 0 0 4.72 11.41l16.76 16.76a16 16 0 0 0 7.41 4.21 39.9 39.9 0 0 1 1 8.76c.05 21.4-20.57 26.77-39.1 27.27zm-3 11a6.79 6.79 0 0 1-6.6-5.22c2.13.13 4.32.2 6.6.2s4.47-.07 6.6-.2a6.78 6.78 0 0 1-6.67 5.21zm-52.46-69.88l16.76-16.76A10.21 10.21 0 1 1 279.74 227L263 243.73a10.21 10.21 0 0 1-14.44-14.44zm109-4.19l-16.76-16.76a16.12 16.12 0 0 0-24.95 2.65 37.47 37.47 0 0 0-29.77 0 16.13 16.13 0 0 0-24.94-2.62l-16.77 16.76a16.11 16.11 0 0 0 9.27 27.38 44.87 44.87 0 0 0-.83 8.4c0 18.32 12.48 29.6 35.48 32.51a12.71 12.71 0 0 0 25.34 0c23-2.91 35.47-14.18 35.47-32.51a44.94 44.94 0 0 0-.83-8.4 16.11 16.11 0 0 0 9.27-27.38zM547.11 637.45a3.75 3.75 0 0 1-3.75-3.75v-.39a9.41 9.41 0 0 0 3.75-2.32 9.46 9.46 0 0 0 3.75 2.32v.39a3.75 3.75 0 0 1-3.75 3.75zm13.39-15.84a2.76 2.76 0 0 0-2.76 2.75 3.92 3.92 0 0 1-7.69 1.07 2.75 2.75 0 0 0-1-5.3h-3.82a2.75 2.75 0 0 0-1 5.3 3.92 3.92 0 0 1-7.69-1.07 2.76 2.76 0 0 0-5.51 0 9.45 9.45 0 0 0 6.89 9.08v.27a9.26 9.26 0 1 0 18.52 0v-.27a9.45 9.45 0 0 0 6.89-9.08 2.76 2.76 0 0 0-2.84-2.76zM530.87 608.19c0 7-10.55 7-10.55 0s10.55-7 10.55 0M573.9 608.19c0 7-10.55 7-10.55 0s10.55-7 10.55 0"/><path class="cls-3" d="M547.11 647.7c-12.37 0-41.12-2.83-41.15-29l1.66-45.41 18.55 11.42a2.75 2.75 0 0 0 1.44.41h38.46a2.78 2.78 0 0 0 1.42-.39l19.1-11.48 1.67 45.47c-.03 26.15-28.79 28.98-41.15 28.98zm46.66-29.17l-1.84-50.18a2.75 2.75 0 0 0-4.17-2.26l-22.45 13.5h-36.92l-21.91-13.49a2.75 2.75 0 0 0-4.2 2.24l-1.84 50.18v.1c0 21.65 17.44 34.57 46.66 34.57s46.66-12.92 46.66-34.57zM54.18 321.8c-3.18 0-5.76 3-5.76 6.76s2.59 6.76 5.76 6.76h35.06c3.18 0 5.75-3 5.75-6.76s-2.59-6.76-5.75-6.76zm35.07 19.54H54.18c-6.5 0-11.78-5.73-11.78-12.78s5.28-12.78 11.78-12.78h35.06c6.49 0 11.78 5.73 11.78 12.78s-5.29 12.78-11.78 12.78z"/><path class="cls-3" d="M112.29 457.2H31.11a15.87 15.87 0 0 1-15.85-15.85v-99.94a15.87 15.87 0 0 1 15.85-15.85h16v6h-16a9.85 9.85 0 0 0-9.84 9.84v99.94a9.85 9.85 0 0 0 9.84 9.84h81.18a9.85 9.85 0 0 0 9.84-9.84v-99.93a9.85 9.85 0 0 0-9.84-9.84h-16v-6h16a15.87 15.87 0 0 1 15.85 15.85v99.94a15.86 15.86 0 0 1-15.85 15.84z"/><path class="cls-3" d="M103.89 405.62H39.52a3 3 0 1 0 0 6h64.37a3 3 0 0 0 0-6zM103.89 426H39.52a3 3 0 1 0 0 6h64.37a3 3 0 0 0 0-6zM84.21 382.87c-3.76 4.42-8 7-9.53 5.67s.3-5.9 4.06-10.31 8-6.93 9.53-5.64-.27 5.88-4.06 10.28zm-14.91 5.65c-1.5 1.3-5.8-1.17-9.6-5.53s-5.67-9-4.17-10.27 5.8 1.17 9.6 5.53 5.66 8.97 4.17 10.27zM56.2 366c2.4-6.65 8.74-10.83 16.24-10.73a16.52 16.52 0 0 1 15.3 11.14c.23.7.35 1.38-.27 1.91a1.78 1.78 0 0 1-2.09.09 30.93 30.93 0 0 0-10-3.07c-1.19-.14-2.37-.19-3.57-.29a31.15 31.15 0 0 0-13 3.17c-.8.39-1.64.8-2.44.11s-.46-1.47-.17-2.33zm15.68-16.22a22 22 0 1 0 22.05 22 22.11 22.11 0 0 0-22.05-21.95zM955.32 497.5v-18.15l.45.12.33.12c.38.11.78.23 1.2.4.24.1.45.17.64.24l.76.27v11.17a2.94 2.94 0 1 0 5.88 0v-8.55l.57.28.88.4c.07 0 .14.08.21.1l.26.17c.28.16.54.28.8.4s.38.17.52.24l.12.07v6.89a2.94 2.94 0 1 0 5.88 0v-4.37l1.72.54 1.29.36.38.09v3.38a2.94 2.94 0 1 0 5.89 0V489h.61a10.2 10.2 0 0 0 1.25 0h.38c.45 0 .83-.07 1.15-.12v2.84a3 3 0 0 0 2.94 2.95.93.93 0 0 0 .38-.05 2.9 2.9 0 0 0 2.57-2.9v-4.22c.4-.17.73-.29 1-.43l.33-.14a6.16 6.16 0 0 0 .74-.33h1.28v10.9h-40.41zm21.59-28.5l1.45.64a16 16 0 0 1 1.55.73c.36.18.74.37 1.14.54l.59.29c.4.24.87.45 1.31.65l1.17.59.31.14.14.07a1.79 1.79 0 0 1 .26.12l.23.12a2.37 2.37 0 0 1 .5.23 1.23 1.23 0 0 1 .21.12l.26.1c.21.1.45.19.66.31a1.33 1.33 0 0 1 .45.21.88.88 0 0 1 .26.12c.07 0 .15.07.24.09l.74.31.73.31a.78.78 0 0 0 .26.12 5.44 5.44 0 0 1 .67.26l1.46.55.64.23.33.12.28.09.79.26c.31.1.68.22 1 .31l.54.14.73.21 1.34.33a14.1 14.1 0 0 1-1.05 1.17 3.37 3.37 0 0 1-.29.26 6.88 6.88 0 0 1-1 .85 11.73 11.73 0 0 1-1.62 1.1c-.31.19-.55.31-.78.43 0 0-.08 0-.1.05l-.21.12c-.16.09-.4.19-.61.28l-.38.14c-.32.15-.7.29-1.07.43a2.92 2.92 0 0 1-.57.17 3 3 0 0 1-.57.17c-.42.12-.81.23-1.24.33a11.24 11.24 0 0 1-1.13.14.14.14 0 0 1-.1 0 11.4 11.4 0 0 1-1.36.16H983.14a7.48 7.48 0 0 1-.83 0c-.33 0-.79-.07-1.24-.14l-.87-.12-.74-.09a4.39 4.39 0 0 1-.69-.14l-.64-.14c-.29-.07-.57-.14-.9-.24h-.1l-1.62-.52c-.57-.23-1.12-.44-1.67-.68-.38-.17-.76-.34-1.12-.48h-.07l-.67-.31c-.3-.14-.56-.28-.85-.4l-.21-.12-.57-.28-.35-.14-.21-.1-.36-.19-.33-.16a2.26 2.26 0 0 0-.5-.29l-.19-.07-.45-.21-1-.52c-.07-.05-.17-.07-.26-.12l-.36-.14-.29-.14c-.21-.09-.4-.19-.59-.28s-.24-.12-.33-.17a4.42 4.42 0 0 1-.55-.24h-.09a5.64 5.64 0 0 1-.74-.33l-1.22-.52c-.15 0-.24-.13-.36-.17s-.08 0-.1 0-.19-.07-.28-.12l-2.43-.9a2.56 2.56 0 0 0-.43-.17l-1.11-.38-.24-.07c-.3-.12-.7-.21-1.07-.33l-.52-.14c-.76-.22-1.45-.38-2.09-.55a1.9 1.9 0 0 0 .21-.26c.23-.28.51-.59.87-.94a12.19 12.19 0 0 1 1.27-1.11 11.83 11.83 0 0 1 1.64-1.1c.31-.19.57-.33.8-.45l.29-.17.54-.23.43-.19.88-.33.28-.12a7.24 7.24 0 0 0 .76-.21l.33-.09c.42-.12.83-.21 1.24-.31l1.22-.19c.48 0 .89-.12 1.34-.14a10.81 10.81 0 0 1 1.27 0h.4a6.31 6.31 0 0 1 1.07 0c.35 0 .85.07 1.31.14l1.53.21c.19 0 .34.08.5.1l.85.21a11.28 11.28 0 0 1 1.12.33l2 .66zm24.76 28.52v-5h130.05a5.54 5.54 0 0 1-5.5 5zm-49.28 5.89h173.83a11.4 11.4 0 0 0 10.94-14.66 3 3 0 0 0-2.82-2.12h-132.67V481a13.57 13.57 0 0 0 1.14-1.57 14.62 14.62 0 0 0 1.26-2.52 8.13 8.13 0 0 0 .38-1.34v-.38a3 3 0 0 0-.64-1.86 2.9 2.9 0 0 0-2-1.15h-.17l-2.33-.43c-.77-.16-1.67-.35-2.64-.61l-.59-.19c-.26-.07-.52-.14-.8-.24l-1.63-.55c-.11 0-.35-.12-.56-.19l-.91-.35c-.26-.12-.55-.21-.83-.33l-.59-.26-.78-.33h-.14c-.29-.14-.57-.26-.83-.4l-.77-.33c-.38-.19-.61-.31-.85-.4s-.57-.26-.78-.36l-1.29-.65c-.33-.15-.64-.29-1-.48s-.69-.33-1-.5-.45-.19-.66-.31c-.69-.38-1.33-.68-2-1l-.4-.19-.28-.12-.89-.38c-.3-.14-.64-.26-1-.4l-2.42-.79c-.48-.14-.92-.29-1.39-.38l-.83-.21a9.67 9.67 0 0 0-1.15-.24l-1.53-.22c-.61-.07-1.17-.14-1.74-.16a8.77 8.77 0 0 0-1.45 0h-2a14.57 14.57 0 0 0-1.79.21c-.51.06-1.05.13-1.57.23s-1.15.26-1.67.43l-.31.07c-.4.12-.8.22-1.17.36l-.4.14c-.38.14-.76.28-1.11.45l-.36.17c-.36.14-.69.29-1 .45l-.33.17c-.33.19-.66.36-1 .55a15 15 0 0 0-2.23 1.5 16.34 16.34 0 0 0-1.88 1.64 17.17 17.17 0 0 0-2.59 3.2 13.43 13.43 0 0 0-1.27 2.54 9.1 9.1 0 0 0-.35 1.29 3 3 0 0 0 .54 2.23 3 3 0 0 0 1.95 1.2h.26v22.41a3 3 0 0 0 3.09 2.97zM278.92 490.62h-3a11.93 11.93 0 0 0-23.06 0h-46.67a11.93 11.93 0 0 0-23.06 0h-3v-14a4.88 4.88 0 0 1 4.88-4.88h75.29c7.35 0 18.6 6.06 18.6 11.29v7.57zm-14.55 8.86a5.78 5.78 0 1 1 5.78-5.78 5.78 5.78 0 0 1-5.78 5.79zm-69.69 0a5.78 5.78 0 1 1 5.78-5.78 5.78 5.78 0 0 1-5.78 5.79zm65.64-33.89h-9.48l-16.19-17.33a3.08 3.08 0 0 0-4.5 4.2l12.25 13.1h-38v-3.74a3.09 3.09 0 0 0-6.17 0v3.74H185a11.1 11.1 0 0 0-11.07 11.07v17.07a3.08 3.08 0 0 0 3.07 3.1h6.13a11.93 11.93 0 0 0 23.06 0h46.65a11.93 11.93 0 0 0 23.06 0h6.1a3.08 3.08 0 0 0 3.09-3.09v-10.65c0-10.66-16.25-17.47-24.77-17.47zM184.33 641.71a37.15 37.15 0 1 1 37.15-37.16 37.29 37.29 0 0 1-37.15 37.16zm0-79.84A42.67 42.67 0 1 0 227 604.54a42.7 42.7 0 0 0-42.67-42.67z"/><path class="cls-3" d="M184.33 592.59a12 12 0 1 0 12 12 12.17 12.17 0 0 0-12-12z"/><path class="cls-3" d="M257.35 664.15H111.11a5 5 0 0 1 0-9.93h16a2.79 2.79 0 0 0 2.58-1.66 2.9 2.9 0 0 0-.37-2.94 71.19 71.19 0 1 1 110 0 2.81 2.81 0 0 0-.36 2.94 2.88 2.88 0 0 0 2.58 1.66h16a4.94 4.94 0 0 1 5 5 5.09 5.09 0 0 1-5.19 4.93zm0-15.45h-10.48a76.71 76.71 0 1 0-125.46 0h-10.48a10.48 10.48 0 0 0-10.48 10.48 10.63 10.63 0 0 0 10.66 10.49h146.42a10.49 10.49 0 1 0-.18-21z"/><path class="cls-3" d="M184.33 630.11a25.57 25.57 0 1 1 25.57-25.57 25.52 25.52 0 0 1-25.57 25.57zm0-56.66a31.09 31.09 0 1 0 31.09 31.09 31.17 31.17 0 0 0-31.09-31.09zM210.95 402.85l-7.84-10.78v-2.18a32.37 32.37 0 0 0 15.41 0v2.2zM187.25 370h47.13c-4.7 9.05-13.31 14.86-23.56 14.86S192 379.05 187.25 370zm-3.13-24h53.4a40.15 40.15 0 0 1 .72 7.52 37.52 37.52 0 0 1-1.48 10.48h-23V359.45a3 3 0 1 0-6 0v4.32a2.16 2.16 0 0 0 0 .23h-23a37.52 37.52 0 0 1-1.48-10.57 40.15 40.15 0 0 1 .84-7.43zm5.77-30.72c4.19-.79 14.21-2.54 20.93-2.54 6.54 0 16.69 1.75 20.93 2.54L236.4 340h-51.17zM200 415.13a4.13 4.13 0 1 1-4.13 4.13 4.14 4.14 0 0 1 4.13-4.13zm24.84-27.53c11.63-5.7 19.37-18.49 19.37-34.11a45.69 45.69 0 0 0-1.24-10.6v-.45l-5.69-30.28a3 3 0 0 0-2.34-2.37c-.61-.13-15.07-3-24.07-3-9.24 0-23.48 2.92-24.08 3a3 3 0 0 0-2.32 2.37l-5.69 30.28a2.26 2.26 0 0 0 0 .44 45.72 45.72 0 0 0-1.24 10.6c0 15.62 7.73 28.41 19.37 34.11-10.32 4.13-24 13.68-24 25.86v14.13h6v-14.12c0-4.48 3-8.77 7.14-12.37.13 4.94 1 11.54 4.24 16a10 10 0 0 0-.23 2.12 10.12 10.12 0 1 0 3.83-7.9c-1.88-4.49-2-11-1.82-14.68a50.59 50.59 0 0 1 5.25-2.82v.19L211 413.07 224.49 394v-.1c8.23 3.8 18.41 11.39 18.41 19.59v14.13h6v-14.18c-.07-12.16-13.75-21.72-24.08-25.84z"/><path class="cls-3" d="M197.18 353.88c0 4.66-5.49 4.66-5.49 0s5.49-4.65 5.49 0M229.94 353.88c0 4.66-5.49 4.66-5.49 0s5.49-4.65 5.49 0M55.86 130.64V88.05c0-6.63 6.19-7.45 8.27-7.14 5 .72 23.06 4.7 27.66 5.44a150.12 150.12 0 0 0 41.71 1.45 2.16 2.16 0 0 1 2.5 2.26v38.52a2.15 2.15 0 0 1-2.51 2.26 149.29 149.29 0 0 0-41.59 1.48c-4.71.75-22.73 4.75-27.77 5.49-2.28.29-8.27-.51-8.27-7.17zm99-30.79A10.86 10.86 0 0 0 165 104a5.33 5.33 0 1 1 0 10.56 10.7 10.7 0 0 0-10.15 4.18 15.66 15.66 0 0 1-12.5 6.26h-.09V93.58s8.13.49 12.63 6.27zM65 144c5.28-.76 23.32-4.78 27.95-5.5a143.5 143.5 0 0 1 39.89-1.42c2.11.22 7.73-.19 9.12-5.78 0 0 12.17 0 17.93-8.79a4.35 4.35 0 0 1 4.29-1.74 11.59 11.59 0 1 0 0-22.95c-3.88.58-5.59-3.33-6.33-4.07A22.67 22.67 0 0 0 142 87.32c-1.35-5.53-6.85-6-9.1-5.77a142.72 142.72 0 0 1-40-1.38c-4.53-.72-22.57-4.71-27.85-5.47-3.88-.55-15.42 1-15.42 13.34v42.59C49.59 142.31 60.77 144.6 65 144z"/><path class="cls-3" d="M121.27 103.29v-5a3.13 3.13 0 1 0-6.25 0v5a3 3 0 0 0 3.13 3.13 3.13 3.13 0 0 0 3.12-3.13zM106.48 103.31v-5a3.13 3.13 0 0 0-6.25 0v5a3 3 0 0 0 3.13 3.13 3.13 3.13 0 0 0 3.12-3.13zM91.68 103.31v-5a3.13 3.13 0 1 0-6.25 0v5a3 3 0 0 0 3.13 3.13 3.13 3.13 0 0 0 3.12-3.13zM76.86 103.32v-5a3.13 3.13 0 0 0-6.25 0v5a3 3 0 0 0 3.13 3.13 3.13 3.13 0 0 0 3.12-3.13zM967.22 129.06a31.8 31.8 0 1 1 44.07-8.95 31.83 31.83 0 0 1-44.07 8.95zM888 76.58a31.8 31.8 0 1 1 44-8.95 31.83 31.83 0 0 1-44 8.95zm117.59-5.42a37.73 37.73 0 0 0-47.29 4.62A17 17 0 0 0 940.51 64a37.79 37.79 0 1 0-4 7.39A10.94 10.94 0 0 1 953 82.33a37.65 37.65 0 1 0 52.55-11.17zM483.09 269.06a5.63 5.63 0 0 1-5.66 5.66h-59.15a5.63 5.63 0 0 1-5.66-5.66V234a5.63 5.63 0 0 1 5.66-5.66h59.06A5.63 5.63 0 0 1 483 234v35.07zm-54.87-65.65a19.69 19.69 0 0 1 39.37 0v18.43h-39.37zm49.21 18.53H474v-18.53a26.07 26.07 0 0 0-52.14 0v18.43h-3.46a12 12 0 0 0-12 12V269a12 12 0 0 0 12 12h59.06a12 12 0 0 0 12-12v-35a12 12 0 0 0-12.02-12.06z"/><path class="cls-3" d="M449.06 257.33a4.08 4.08 0 1 1 4.08-4.08 4.09 4.09 0 0 1-4.08 4.08zm0-14.66a10.57 10.57 0 1 0 10.57 10.57 10.54 10.54 0 0 0-10.57-10.57zM760.41 459.7a3 3 0 1 0 3 3 3 3 0 0 0-3-3zm0-6a9.07 9.07 0 1 1-9.07 9.07 9 9 0 0 1 9.07-9.12zM683.83 363a11.16 11.16 0 0 0-11.1 11.15v36.75A39.6 39.6 0 0 0 709 450.53v18.24A27.22 27.22 0 0 0 736.23 496c11.61 0 21-7.6 24.9-18.19a15.12 15.12 0 1 0-6.14-1c-3.28 7.93-10.13 13.13-18.76 13.13a21 21 0 0 1-21.16-21.16v-18.25a39.6 39.6 0 0 0 36.28-39.68V374.1a11.16 11.16 0 0 0-11.1-11.15h-8a3 3 0 1 0 0 6h8a5 5 0 0 1 5.06 5.1v36.75a33.26 33.26 0 1 1-66.51 0v-36.7a5 5 0 0 1 5.06-5.1h8a3 3 0 1 0 0-6zM280.32 88.47V68a10.23 10.23 0 0 1 0 20.45zm0 71.59v-20.45a10.23 10.23 0 0 1 0 20.45zm-54.54-68.18v-8.47l17-12.2v20.67zM219 95.61a3.53 3.53 0 0 0 3.41 3.09h23.86a3.54 3.54 0 0 0 3.41-3.41V64.61a3.41 3.41 0 0 0-5.38-2.77l-23.86 17a3.46 3.46 0 0 0-1.44 2.81v13.64a1.89 1.89 0 0 0 0 .32zm-1 52.52a3.54 3.54 0 0 0 3.46 3.36h14.27v15.13a2.55 2.55 0 0 0 0 .37 3.41 3.41 0 1 0 6.82-.37v-15.13h14.28a3.41 3.41 0 1 0 0-6.82H242.5v-15.18a3.41 3.41 0 1 0-6.82 0v15.18h-14.27a3.55 3.55 0 0 0-3.46 3.46zm-9.22 27.27V78.3l45.38-32.44h12.57a7.23 7.23 0 0 1 6.82 6.82V175.4a7.23 7.23 0 0 1-6.82 6.82h-51.18a7.23 7.23 0 0 1-6.82-6.82zm-6.82 0a13.75 13.75 0 0 0 13.59 13.6h51.14a13.75 13.75 0 0 0 13.64-13.64v-8.52a17 17 0 0 0 0-34.09V95.29a17 17 0 0 0 0-34.09v-8.52A13.75 13.75 0 0 0 266.68 39H253a3.46 3.46 0 0 0-2 .64l-47.7 34.13a3.47 3.47 0 0 0-1.38 2.77zM469.58 354.8a2.89 2.89 0 0 0-2.11 1.21l-18.68 25.87a2.88 2.88 0 0 0 2.34 4.58h14.46l-15.36 21.29a2.88 2.88 0 1 0 4.67 3.37l18.68-25.87a2.87 2.87 0 0 0-2.34-4.54h-14.51l15.41-21.33a2.88 2.88 0 0 0-2.56-4.58zm-27.08-17.2h37.37v8.62c0 3 1.9 5.24 3.86 6.69a48.33 48.33 0 0 0 6.27 3.59 20.6 20.6 0 0 1 5.17 3.55 6.19 6.19 0 0 1 1.89 4.72l.09 61.94h-71.9l.09-61.94a6.19 6.19 0 0 1 1.89-4.72 20.6 20.6 0 0 1 5.17-3.55 48.33 48.33 0 0 0 6.24-3.59c2-1.45 3.86-3.73 3.86-6.69zm-8.62-25.87h54.62v20.12h-54.63zm-5.75-2.87v25.87a3 3 0 0 0 2.87 2.87h5.75v8.62c0 .72-.27 1.14-1.53 2.07a53.31 53.31 0 0 1-5.52 3.14 25.14 25.14 0 0 0-6.7 4.67 12.55 12.55 0 0 0-3.46 8.67l-.09 64.81a3 3 0 0 0 2.87 2.87H500a3 3 0 0 0 2.87-2.87l-.09-64.81a12.55 12.55 0 0 0-3.46-8.67 25.14 25.14 0 0 0-6.65-4.67 53.31 53.31 0 0 1-5.52-3.14c-1.26-.93-1.53-1.35-1.53-2.07v-8.62h5.75a3 3 0 0 0 2.87-2.87v-25.88a3 3 0 0 0-2.87-2.87H431a3.1 3.1 0 0 0-2.88 2.87zM906.6 589.92c-3.18 0-5.76 3-5.76 6.76s2.59 6.76 5.76 6.76h35.07c3.18 0 5.75-3 5.75-6.76s-2.59-6.76-5.75-6.76zm35.07 19.54H906.6c-6.5 0-11.78-5.73-11.78-12.78s5.28-12.78 11.78-12.78h35.07c6.49 0 11.78 5.73 11.78 12.78s-5.3 12.79-11.79 12.79z"/><path class="cls-3" d="M964.72 725.32h-81.18a15.87 15.87 0 0 1-15.85-15.85v-99.94a15.87 15.87 0 0 1 15.85-15.85h16v6h-16a9.85 9.85 0 0 0-9.84 9.84v99.94a9.85 9.85 0 0 0 9.84 9.84h81.18a9.85 9.85 0 0 0 9.84-9.84v-99.93a9.85 9.85 0 0 0-9.84-9.84h-16v-6h16a15.87 15.87 0 0 1 15.85 15.85v99.94a15.86 15.86 0 0 1-15.85 15.84z"/><path class="cls-3" d="M956.31 653.39h-64.37a3 3 0 1 0 0 6h64.37a3 3 0 0 0 0-6zM956.31 673.75h-64.37a3 3 0 1 0 0 6h64.37a3 3 0 0 0 0-6zM956.31 694.12h-64.37a3 3 0 1 0 0 6h64.37a3 3 0 0 0 0-6zM938.63 634.26h-28.42a2.87 2.87 0 1 1 0-5.73h28.42a2.87 2.87 0 0 1 0 5.73z"/><path class="cls-3" d="M924.42 648.58a2.87 2.87 0 0 1-2.87-2.87v-28.62a2.87 2.87 0 1 1 5.73 0v28.63a2.87 2.87 0 0 1-2.86 2.86zM76.58 235.88A62.32 62.32 0 0 1 84 206.09l20.19 18.74a37.22 37.22 0 0 0 0 22.1L84 265.68a65.15 65.15 0 0 1-7.42-29.8zM104.21 184l18 19.46a35.46 35.46 0 0 0-15.14 15.14l-19.46-18a60.5 60.5 0 0 1 16.6-16.6zm65.12-3.37l-18.74 20.19a37.22 37.22 0 0 0-22.1 0L110 180.61a61.94 61.94 0 0 1 29.56-7.45 59.73 59.73 0 0 1 29.77 7.45zm22.11 19.95l-19.46 18a36.79 36.79 0 0 0-15.14-15.14l18-19.46a60.5 60.5 0 0 1 16.6 16.58zm3.37 65.12l-20.19-18.74a37.22 37.22 0 0 0 0-22.1l20.19-18.74a62.19 62.19 0 0 1 7.45 29.79 59.73 59.73 0 0 1-7.45 29.77zm-19.95 22.11l-18-19.46A36.79 36.79 0 0 0 172 253.18l19.46 18a60.5 60.5 0 0 1-16.6 16.61zm-65.12 3.37L128.48 271a37.22 37.22 0 0 0 22.1 0l18.74 20.19a62.19 62.19 0 0 1-29.79 7.45 59.73 59.73 0 0 1-29.79-7.48zm6.24-36a5.35 5.35 0 0 0-1-1.21 4.28 4.28 0 0 0-1-1.21c-.24-.24-.48-.72-.72-1-.24-.48-.72-1.21-1-1.68 0-.24-.24-.48-.24-.72a7 7 0 0 1-1-2.4 28.34 28.34 0 0 1-2.02-11.07 30.55 30.55 0 1 1 7.43 19.69zM92 276.74c-.48-.48-.72-1-1.21-1.44-1-1.21-1.68-2.4-2.65-3.6-.24-.24-.24-.48-.48-.48l19.46-18a.88.88 0 0 0 .24.48c.48.72 1 1.68 1.44 2.4 0 .24.24.24.24.48a17.13 17.13 0 0 0 1.93 2.4l.24.24a25.41 25.41 0 0 0 2.4 2.65 44.73 44.73 0 0 0 8.65 6.25l-18 19.46a54.8 54.8 0 0 1-9.86-8.41 7.92 7.92 0 0 1-2.4-2.43zm-8.17.24l.48.48a61.27 61.27 0 0 0 6.25 7.21h.24A68.76 68.76 0 1 0 79.46 270l1.44 2.16a10.58 10.58 0 0 1 1 1.68 1.26 1.26 0 0 1 .48 1c.44.69.92 1.41 1.41 2.16zM958 435.73c-7.36 0-15.26-5.79-15.26-13.15V364.7a24.33 24.33 0 0 1 4.21-.26c3.69 0 6.58 1.05 9.47 1.84a31.61 31.61 0 0 0 8.42 1.58h.26a17 17 0 0 0 8.42-2.37v57.34c-.23 7.38-8.13 12.9-15.52 12.9zm15.26-92.07v13.94c-3.95 3.16-6.58 3.42-8.42 3.42a20.88 20.88 0 0 1-6.58-1.32 34.61 34.61 0 0 0-11.26-2.1 22.74 22.74 0 0 0-4.21.26v-14.2zm13.42-6.58h-57.33a3.2 3.2 0 0 0-3.16 3.16 3.4 3.4 0 0 0 3.16 3.16h6.58v79.18c0 10.52 10.26 19.73 21.83 19.73s21.83-9.21 21.83-19.73v-78.92h6.58a3.2 3.2 0 0 0 3.16-3.16c0-1.58-1.05-3.42-2.62-3.42z"/><path class="cls-3" d="M949.08 398.64a4.13 4.13 0 0 0 0 5.79 4 4 0 0 0 2.89 1.06 5.48 5.48 0 0 0 2.89-1.06 3.81 3.81 0 0 0 0-5.52 4.13 4.13 0 0 0-5.78-.27zM953.56 378.11a3.83 3.83 0 0 0 0 5.78 4 4 0 0 0 2.89 1.06 5.48 5.48 0 0 0 2.89-1.06 3.81 3.81 0 0 0 0-5.52c-1.84-1.83-4.47-1.83-5.78-.26zM964.61 387.85a4.13 4.13 0 0 0 0 5.79 4 4 0 0 0 2.89 1.06 5.48 5.48 0 0 0 2.89-1.06 4 4 0 0 0 1.05-2.89 5.48 5.48 0 0 0-1.05-2.89 4.12 4.12 0 0 0-5.78-.01zM362.06 183.74c-7.36 0-15.26-5.79-15.26-13.15v-57.87a24.33 24.33 0 0 1 4.21-.26c3.69 0 6.58 1.05 9.47 1.84a31.61 31.61 0 0 0 8.42 1.58h.26a17 17 0 0 0 8.42-2.37v57.34c-.26 7.37-8.15 12.89-15.52 12.89zm15.26-92.07v13.94c-3.95 3.16-6.58 3.42-8.42 3.42a20.88 20.88 0 0 1-6.58-1.32 34.61 34.61 0 0 0-11.31-2.1 22.74 22.74 0 0 0-4.21.26v-14.2zm13.42-6.58h-57.35a3.2 3.2 0 0 0-3.16 3.16 3.4 3.4 0 0 0 3.16 3.16H340v79.18c0 10.52 10.26 19.73 21.83 19.73s21.83-9.21 21.83-19.73V91.67h6.58a3.2 3.2 0 0 0 3.16-3.16c-.04-1.57-1.09-3.42-2.66-3.42z"/><path class="cls-3" d="M353.11 146.65a4.13 4.13 0 0 0 0 5.79 4 4 0 0 0 2.89 1.06 5.48 5.48 0 0 0 2.89-1.06 3.81 3.81 0 0 0 0-5.52 4.13 4.13 0 0 0-5.78-.27zM357.59 126.13a3.83 3.83 0 0 0 0 5.78 4 4 0 0 0 2.89 1.06 5.48 5.48 0 0 0 2.89-1.06 3.81 3.81 0 0 0 0-5.52c-1.84-1.84-4.47-1.84-5.78-.26zM368.64 135.86a4.13 4.13 0 0 0 0 5.79 4 4 0 0 0 2.89 1.06 5.48 5.48 0 0 0 2.89-1.06 4 4 0 0 0 1.05-2.89 5.48 5.48 0 0 0-1.05-2.89 4.12 4.12 0 0 0-5.78-.01zM811.71 149.61c2.58 8 5.21 14.64 7.75 21.1s5.13 13 7.72 20.94a197.9 197.9 0 0 1 46.75-6c14.69 0 29.52 1.91 46.43 6 2.59-7.93 5.2-14.55 7.73-21s5.17-13.11 7.75-21.07c-19.7-12.32-40.58-18.58-62.07-18.58s-42.36 6.26-62.06 18.61zm11.65 48.92l-.82-2.58c-2.79-8.89-5.65-16.13-8.41-23.13s-5.7-14.46-8.56-23.57l-.65-2.08 1.83-1.19c21.19-13.75 43.74-20.72 67-20.72s45.84 7 67 20.72l1.83 1.19-.65 2.08c-2.85 9.1-5.75 16.44-8.55 23.55s-5.56 14.25-8.38 23.2l-.81 2.58-2.62-.66c-17.55-4.43-32.68-6.49-47.64-6.49s-30.67 2.12-48 6.49z"/><path class="cls-3" d="M888 161.74h-28.43a2.87 2.87 0 1 1 0-5.73H888a2.87 2.87 0 0 1 0 5.73z"/><path class="cls-3" d="M873.78 176.06a2.87 2.87 0 0 1-2.87-2.87v-28.62a2.87 2.87 0 1 1 5.73 0v28.63a2.87 2.87 0 0 1-2.86 2.86zM332.89 382.3a16.18 16.18 0 1 1 15.78-16.17 16 16 0 0 1-15.78 16.17zm0-38.26a22.09 22.09 0 1 0 21.69 22.09A22 22 0 0 0 332.89 344z"/><path class="cls-3" d="M332.89 401.49c-29.32 0-53.24-28.39-53.24-35.37s23.92-35.37 53.24-35.37 53.24 28.39 53.24 35.37-23.92 35.37-53.24 35.37zm0-76.65c-32.34 0-59.16 30-59.16 41.28s26.82 41.28 59.16 41.28 59.16-30 59.16-41.28-26.82-41.28-59.16-41.28zM880.59 301.46a3.75 3.75 0 0 1-3.75-3.75v-.39a9.41 9.41 0 0 0 3.75-2.32 9.46 9.46 0 0 0 3.75 2.32v.39a3.75 3.75 0 0 1-3.75 3.75zM894 285.62a2.76 2.76 0 0 0-2.76 2.75 3.92 3.92 0 0 1-7.69 1.07 2.75 2.75 0 0 0-1-5.3h-3.82a2.75 2.75 0 0 0-1 5.3 3.92 3.92 0 0 1-7.69-1.07 2.76 2.76 0 0 0-5.51 0 9.45 9.45 0 0 0 6.89 9.08v.27a9.26 9.26 0 0 0 18.52 0v-.27a9.45 9.45 0 0 0 6.89-9.08 2.76 2.76 0 0 0-2.83-2.75zM864.35 272.21c0 7-10.55 7-10.55 0s10.55-7 10.55 0M907.38 272.21c0 7-10.55 7-10.55 0s10.55-7 10.55 0"/><path class="cls-3" d="M880.59 311.71c-12.37 0-41.12-2.83-41.15-29l1.66-45.41 18.55 11.42a2.75 2.75 0 0 0 1.44.41h38.46a2.78 2.78 0 0 0 1.42-.39l19.1-11.48 1.67 45.47c-.03 26.16-28.74 28.98-41.15 28.98zm46.66-29.17l-1.84-50.18a2.75 2.75 0 0 0-4.17-2.26l-22.45 13.5h-36.92L840 230.12a2.75 2.75 0 0 0-4.2 2.24l-1.84 50.18v.1c0 21.65 17.44 34.57 46.66 34.57s46.66-12.92 46.66-34.57zM1084.74 605.23l-30.14 30.1c-4.69 4.69-9.65.89-10.89-.8-3-4.07-13-19.62-15.71-23.41a150.12 150.12 0 0 0-28.45-30.49 2.16 2.16 0 0 1-.18-3.38l27.25-27.25a2.15 2.15 0 0 1 3.38.18 149.29 149.29 0 0 0 30.45 28.36c3.86 2.8 19.43 12.71 23.52 15.76 1.82 1.42 5.49 6.22.77 10.93zM992.95 557a10.86 10.86 0 0 0-4.24-10.11 5.33 5.33 0 1 1 7.47-7.47 10.7 10.7 0 0 0 10.13 4.22 15.66 15.66 0 0 1 13.31 4.42l.07.07-22.23 22.2s-5.46-6.08-4.51-13.33zm94.75 32.34c-4.27-3.2-19.87-13.11-23.65-15.87a143.5 143.5 0 0 1-29.21-27.21c-1.33-1.65-5.6-5.33-10.54-2.36 0 0-8.58-8.62-18.9-6.47a4.35 4.35 0 0 1-4.27-1.8 11.59 11.59 0 1 0-16.23 16.23c3.15 2.34 1.6 6.31 1.6 7.36a22.67 22.67 0 0 0 6.73 15.78c-3 4.87.6 9.09 2.36 10.51a142.72 142.72 0 0 1 27.28 29.23c2.69 3.71 12.63 19.29 15.83 23.56 2.36 3.13 11.62 10.18 20.33 1.47l30.14-30.1c8.26-8.26 1.97-17.78-1.47-20.35zM-44 497.5v-18.15l.45.12.33.12c.38.11.78.23 1.2.4.24.1.45.17.64.24l.76.27v11.17a3 3 0 0 0 2.95 2.95 2.94 2.94 0 0 0 2.93-2.95v-8.55l.57.28.88.4c.07 0 .14.08.21.1l.26.17c.28.16.54.28.8.4s.38.17.52.24l.12.07v6.89a2.93 2.93 0 0 0 2.94 2.95 2.94 2.94 0 0 0 2.94-2.95v-4.37l1.72.54 1.29.36.38.09v3.38a2.94 2.94 0 0 0 2.94 2.95 2.94 2.94 0 0 0 2.94-2.95V489h.61a10.2 10.2 0 0 0 1.25 0h.37c.45 0 .83-.07 1.15-.12v2.84a3 3 0 0 0 2.94 2.95.93.93 0 0 0 .38-.05 2.9 2.9 0 0 0 2.57-2.9v-4.22c.4-.17.73-.29 1-.43l.33-.14a6.16 6.16 0 0 0 .74-.33h1.28v10.9H-44zm21.58-28.5l1.45.64a16 16 0 0 1 1.55.73c.36.18.74.37 1.14.54l.59.29c.4.24.87.45 1.31.65l1.17.59.31.14.14.07a1.79 1.79 0 0 1 .26.12l.23.12a2.37 2.37 0 0 1 .5.23 1.23 1.23 0 0 1 .21.12l.26.1c.21.1.45.19.66.31a1.33 1.33 0 0 1 .45.21.88.88 0 0 1 .26.12c.07 0 .15.07.24.09l.74.31.73.31a.78.78 0 0 0 .26.12 5.44 5.44 0 0 1 .67.26l1.46.55.64.23.33.12.28.09.79.26c.31.1.68.22 1 .31l.54.14.73.21 1.34.33a14.1 14.1 0 0 1-1.05 1.17 3.38 3.38 0 0 1-.29.26 6.88 6.88 0 0 1-1 .85 11.73 11.73 0 0 1-1.62 1.1c-.31.19-.55.31-.78.43 0 0-.08 0-.1.05l-.21.12c-.16.09-.4.19-.61.28l-.38.14c-.32.15-.7.29-1.07.43a2.92 2.92 0 0 1-.57.17 3 3 0 0 1-.57.17c-.42.12-.81.23-1.24.33a11.24 11.24 0 0 1-1.13.14.14.14 0 0 1-.1 0 11.4 11.4 0 0 1-1.36.16H-16.19a7.48 7.48 0 0 1-.83 0c-.33 0-.79-.07-1.24-.14l-.87-.12-.74-.09a4.39 4.39 0 0 1-.69-.14l-.64-.14c-.29-.07-.57-.14-.9-.24h-.1l-1.62-.52c-.57-.23-1.12-.44-1.67-.68-.38-.17-.76-.34-1.12-.48h-.07l-.67-.31c-.3-.14-.56-.28-.85-.4l-.21-.12-.57-.28-.35-.14-.21-.1-.36-.19-.33-.16a2.26 2.26 0 0 0-.5-.29l-.19-.07-.45-.21-1-.52c-.07-.05-.17-.07-.26-.12l-.36-.14-.29-.14c-.21-.09-.4-.19-.59-.28s-.24-.12-.33-.17a4.42 4.42 0 0 1-.55-.24h-.09a5.64 5.64 0 0 1-.74-.33l-1.22-.52c-.15 0-.24-.13-.36-.17s-.08 0-.1 0-.19-.07-.28-.12l-2.43-.9a2.56 2.56 0 0 0-.43-.17l-1.11-.38-.24-.07c-.3-.12-.7-.21-1.07-.33l-.52-.14c-.76-.22-1.45-.38-2.09-.55a1.9 1.9 0 0 0 .21-.26c.23-.28.51-.59.87-.94a12.19 12.19 0 0 1 1.35-1.22 11.83 11.83 0 0 1 1.64-1.1c.31-.19.57-.33.8-.45l.29-.17.54-.23.43-.19.88-.33.28-.12a7.24 7.24 0 0 0 .76-.21l.33-.09c.42-.12.83-.21 1.24-.31l1.22-.19c.48 0 .89-.12 1.34-.14A10.81 10.81 0 0 1-32 467h.4a6.31 6.31 0 0 1 1.07 0c.35 0 .85.07 1.31.14l1.53.21c.19 0 .34.08.5.1l.85.21a11.28 11.28 0 0 1 1.12.33l2 .66zm24.75 28.5v-5h130.06a5.54 5.54 0 0 1-5.5 5zm-49.28 5.89h173.84a11.4 11.4 0 0 0 10.94-14.66 3 3 0 0 0-2.83-2.13H2.33V481a13.57 13.57 0 0 0 1.14-1.57 14.62 14.62 0 0 0 1.26-2.52 8.13 8.13 0 0 0 .38-1.34v-.38a3 3 0 0 0-.64-1.86 2.9 2.9 0 0 0-2-1.15H2.3l-2.3-.47c-.77-.16-1.67-.35-2.64-.61l-.59-.19c-.26-.07-.52-.14-.8-.24l-1.63-.55c-.11 0-.35-.12-.56-.19l-.91-.35c-.26-.12-.55-.21-.83-.33l-.59-.26-.78-.33h-.14c-.29-.14-.57-.26-.83-.4l-.77-.33c-.38-.19-.61-.31-.85-.4s-.57-.26-.78-.36l-1.3-.67c-.33-.15-.64-.29-1-.48s-.69-.33-1-.5-.45-.19-.66-.31c-.69-.38-1.33-.68-2-1l-.4-.19-.28-.12-.89-.38c-.3-.14-.64-.26-1-.4l-2.42-.79c-.48-.14-.92-.29-1.39-.38l-.83-.21a9.67 9.67 0 0 0-1.15-.24l-1.53-.22c-.61-.07-1.17-.14-1.74-.16a8.77 8.77 0 0 0-1.45 0h-1.93a14.57 14.57 0 0 0-1.79.21c-.51.06-1.05.13-1.57.23s-1.15.26-1.67.43l-.31.07c-.4.12-.8.22-1.17.36l-.4.14c-.38.14-.76.28-1.11.45l-.36.17c-.36.14-.69.29-1 .45l-.33.17c-.33.19-.66.36-1 .55a15 15 0 0 0-2.23 1.5 16.34 16.34 0 0 0-1.88 1.64 17.17 17.17 0 0 0-2.59 3.2 13.43 13.43 0 0 0-1.27 2.54 9.1 9.1 0 0 0-.35 1.29 3 3 0 0 0 .54 2.23 3 3 0 0 0 1.95 1.2h.26v22.41a3 3 0 0 0 3 3.03zM85.41 605.23l-30.14 30.1c-4.69 4.69-9.65.89-10.89-.8-3-4.07-13-19.62-15.71-23.41A150.12 150.12 0 0 0 .22 580.63a2.16 2.16 0 0 1-.22-3.38L27.29 550a2.15 2.15 0 0 1 3.38.18 149.29 149.29 0 0 0 30.45 28.36c3.86 2.8 19.43 12.71 23.52 15.76 1.81 1.42 5.48 6.22.77 10.93zM-6.39 557a10.86 10.86 0 0 0-4.24-10.11 5.33 5.33 0 0 1-1.93-5.58 5.3 5.3 0 0 1 3.82-3.82 5.36 5.36 0 0 1 5.58 1.93A10.7 10.7 0 0 0 7 543.62 15.66 15.66 0 0 1 20.29 548l.07.07-22.23 22.2s-5.42-6.02-4.52-13.27zm94.75 32.34c-4.27-3.2-19.87-13.11-23.65-15.87a143.5 143.5 0 0 1-29.21-27.21c-1.33-1.65-5.6-5.33-10.54-2.36 0 0-8.58-8.62-18.9-6.47a4.35 4.35 0 0 1-4.27-1.8 11.5 11.5 0 0 0-12-4.24 11.49 11.49 0 0 0-8.47 8.47 11.54 11.54 0 0 0 4.27 12c3.15 2.34 1.6 6.31 1.6 7.36A22.67 22.67 0 0 0-6.11 575c-3 4.87.6 9.09 2.36 10.51a142.72 142.72 0 0 1 27.28 29.23c2.69 3.71 12.63 19.29 15.83 23.56 2.36 3.13 11.62 10.18 20.33 1.47l30.14-30.1c8.27-8.26 1.98-17.78-1.46-20.35z"/><path class="cls-3" d="M19.82 578.31l-3.53 3.53a3.13 3.13 0 1 0 4.42 4.42l3.53-3.53a3 3 0 0 0 0-4.42 3.13 3.13 0 0 0-4.42 0zM30.29 588.76l-3.53 3.53a3.13 3.13 0 1 0 4.42 4.42l3.53-3.53a3 3 0 0 0 0-4.42 3.13 3.13 0 0 0-4.42 0zM40.76 599.23l-3.53 3.53a3.13 3.13 0 1 0 4.42 4.42l3.53-3.53a3 3 0 0 0 0-4.42 3.13 3.13 0 0 0-4.42 0zM51.25 609.7l-3.53 3.53a3.13 3.13 0 0 0 4.42 4.42l3.53-3.53a3 3 0 0 0 0-4.42 3.13 3.13 0 0 0-4.42 0zM569.49 51.23c-3.18 0-5.76 3-5.76 6.76s2.59 6.76 5.76 6.76h35.07c3.18 0 5.75-3 5.75-6.76s-2.59-6.76-5.75-6.76zm35.07 19.54h-35.07C563 70.77 557.71 65 557.71 58s5.29-12.79 11.78-12.79h35.07c6.49 0 11.78 5.73 11.78 12.78S611 70.77 604.55 70.77z"/><path class="cls-3" d="M627.6 186.62h-81.18a15.87 15.87 0 0 1-15.85-15.85V70.83A15.87 15.87 0 0 1 546.42 55h16v6h-16a9.85 9.85 0 0 0-9.84 9.84v99.94a9.85 9.85 0 0 0 9.84 9.84h81.18a9.85 9.85 0 0 0 9.84-9.84V70.83A9.85 9.85 0 0 0 627.6 61h-16v-6h16a15.87 15.87 0 0 1 15.85 15.85v99.94a15.86 15.86 0 0 1-15.85 15.83z"/><path class="cls-3" d="M619.2 114.69h-64.37a3 3 0 1 0 0 6h64.37a3 3 0 0 0 0-6zM619.2 135h-64.37a3 3 0 1 0 0 6h64.37a3 3 0 0 0 0-6zM619.2 155.42h-64.37a3 3 0 1 0 0 6h64.37a3 3 0 0 0 0-6zM601.52 95.56H573.1a2.87 2.87 0 1 1 0-5.73h28.42a2.87 2.87 0 0 1 0 5.73z"/><path class="cls-3" d="M587.31 109.88a2.87 2.87 0 0 1-2.87-2.87V78.39a2.87 2.87 0 1 1 5.73 0V107a2.87 2.87 0 0 1-2.86 2.88zM361.56 651.7a3 3 0 1 0 3 3 3 3 0 0 0-3-3zm0-6a9.07 9.07 0 1 1-9.07 9.07 9 9 0 0 1 9.07-9.11zM285 555a11.16 11.16 0 0 0-11.1 11.15v36.75a39.6 39.6 0 0 0 36.28 39.68v18.24A27.22 27.22 0 0 0 337.37 688c11.61 0 21-7.6 24.9-18.19a15.12 15.12 0 1 0-6.14-1c-3.28 7.93-10.13 13.13-18.76 13.13a21 21 0 0 1-21.16-21.16v-18.24a39.6 39.6 0 0 0 36.28-39.68V566.1a11.16 11.16 0 0 0-11.1-11.1h-8a3 3 0 1 0 0 6h8a5 5 0 0 1 5.06 5.1v36.75a33.26 33.26 0 1 1-66.51 0V566.1A5 5 0 0 1 285 561h8a3 3 0 1 0 0-6zM754.2 177.84a4.76 4.76 0 1 1-4.76-4.76 4.76 4.76 0 0 1 4.76 4.76zm-31.75-21.63a27.73 27.73 0 0 0-27.19-22.55c-.76 0-1.47 0-2.2.12v-12.67h53.17v35.09zm-27.2 26.39a21.27 21.27 0 0 1-20.67-16.41h8a3.23 3.23 0 0 0 0-6.46h-8.51a21 21 0 0 1 1.53-6.46h14.67a3.23 3.23 0 1 0 0-6.46h-10.42a21.21 21.21 0 1 1 15.4 35.79zM693 105.32h49.53a3.65 3.65 0 0 1 3.64 3.64v5.73H693zm87.58 69.26h-8.06l-9.41-21.24a3.24 3.24 0 0 0-3-1.92h-7.53V109a10.11 10.11 0 0 0-10.1-10.1H693V84.15a3.29 3.29 0 0 0-2-3L672 73a3.24 3.24 0 1 0-2.54 6l17.05 7.32v48.8a27.67 27.67 0 1 0 36.3 27.59h23.32v4.39a11.22 11.22 0 1 0 6.46 0v-9.22h5.43l9.41 21.24a3.24 3.24 0 0 0 3 1.92h10.16a3.22 3.22 0 1 0 0-6.43zM606.33 300.7h-5.65a37 37 0 0 1 33.52-33.52v5.65zm-36.17 0a43.51 43.51 0 0 0-40.07-40.07v-10.81H634.2v10.81a43.51 43.51 0 0 0-40.07 40.07zm-40.07-27.87v-5.65a37 37 0 0 1 33.54 33.52H558zm104.12-49.64v20.13H530.09v-20.13zm3.25-6.5H526.84a3.25 3.25 0 0 0-3.25 3.25v54.22a3.32 3.32 0 0 0 .95 2.3l29.78 29.79a3.25 3.25 0 0 0 2.31.95h51a3.33 3.33 0 0 0 2.31-.95l29.78-29.79a3.25 3.25 0 0 0 .95-2.31v-54.2a3.25 3.25 0 0 0-3.22-3.25zM797.13 624.07a5.63 5.63 0 0 1-5.66 5.66h-59.16a5.63 5.63 0 0 1-5.66-5.66V589a5.63 5.63 0 0 1 5.66-5.66h59.06A5.63 5.63 0 0 1 797 589v35.07zm-54.87-65.65a19.69 19.69 0 0 1 39.37 0v18.43h-39.37zm49.21 18.53H788v-18.53a26.07 26.07 0 0 0-52.14 0v18.43h-3.46a12 12 0 0 0-12 12V624a12 12 0 0 0 12 12h59.06a12 12 0 0 0 12-12v-35a12 12 0 0 0-11.99-12.05z"/><path class="cls-3" d="M763.1 612.34a4.08 4.08 0 1 1 4.08-4.08 4.09 4.09 0 0 1-4.08 4.08zm0-14.66a10.57 10.57 0 1 0 10.57 10.57 10.54 10.54 0 0 0-10.57-10.57zM322.64 511.9c-5.21-5.21-6.69-14.88-1.49-20.09l40.92-40.92a24.33 24.33 0 0 1 3.16 2.79c2.61 2.61 3.9 5.4 5.39 8a31.61 31.61 0 0 0 4.84 7.07l.18.18a17 17 0 0 0 7.63 4.28l-40.55 40.55c-5.38 5.02-14.87 3.35-20.08-1.86zm75.89-54.32l-9.86 9.86c-5-.56-7.07-2.23-8.37-3.54a20.88 20.88 0 0 1-3.72-5.58 34.61 34.61 0 0 0-6.51-9.48 22.74 22.74 0 0 0-3.16-2.79l10-10zm14.14 4.84l-40.55-40.55a3.2 3.2 0 0 0-4.47 0 3.4 3.4 0 0 0 0 4.47l4.65 4.66-56 56c-7.44 7.44-6.69 21.21 1.49 29.39s21.95 8.93 29.39 1.49L403 462l4.65 4.65a3.2 3.2 0 0 0 4.47 0c1.11-1.07 1.67-3.11.56-4.23z"/><path class="cls-3" d="M342.54 479.35a4.13 4.13 0 0 0-4.09 4.09 4 4 0 0 0 1.3 2.79 5.48 5.48 0 0 0 2.79 1.3 3.81 3.81 0 0 0 3.9-3.9 4.13 4.13 0 0 0-3.9-4.28zM360.22 468a3.83 3.83 0 0 0-4.09 4.09 4 4 0 0 0 1.3 2.79 5.48 5.48 0 0 0 2.79 1.3 3.81 3.81 0 0 0 3.9-3.9c0-2.61-1.86-4.47-3.9-4.28zM361.15 482.7a4.13 4.13 0 0 0-4.09 4.09 4 4 0 0 0 1.3 2.79 5.48 5.48 0 0 0 2.79 1.3 4 4 0 0 0 2.79-1.3 5.48 5.48 0 0 0 1.3-2.79 4.12 4.12 0 0 0-4.09-4.09zM768 314h20.45a10.23 10.23 0 0 1-20.45 0zm-71.59 0h20.49a10.23 10.23 0 0 1-20.45 0zm68.18-54.55h8.47l12.2 17h-20.63zm-3.73-6.82a3.53 3.53 0 0 0-3.09 3.41v23.86a3.54 3.54 0 0 0 3.41 3.41h30.72a3.41 3.41 0 0 0 2.77-5.38l-17-23.86a3.46 3.46 0 0 0-2.77-1.44h-14zm-52.52-1a3.54 3.54 0 0 0-3.36 3.46v14.27h-15.5a3.41 3.41 0 1 0 .37 6.82H705v14.28a3.41 3.41 0 1 0 6.82 0v-14.31H727a3.41 3.41 0 1 0 0-6.82h-15.16v-14.27a3.55 3.55 0 0 0-3.46-3.46zm-27.27-9.22h97.11l32.44 45.38v12.57a7.23 7.23 0 0 1-6.82 6.82H681.1a7.23 7.23 0 0 1-6.82-6.82V249.2a7.23 7.23 0 0 1 6.82-6.82zm0-6.82a13.75 13.75 0 0 0-13.64 13.64v51.14A13.75 13.75 0 0 0 681.1 314h8.52a17 17 0 0 0 34.09 0h37.5a17 17 0 0 0 34.09 0h8.52a13.75 13.75 0 0 0 13.64-13.64V286.7a3.46 3.46 0 0 0-.64-2l-34.09-47.73a3.47 3.47 0 0 0-2.77-1.38zM647.34 353.46v42.59c0 6.63-6.19 7.45-8.27 7.14-5-.72-23.06-4.7-27.66-5.44a150.12 150.12 0 0 0-41.68-1.45 2.16 2.16 0 0 1-2.51-2.26v-38.52a2.15 2.15 0 0 1 2.51-2.26 149.29 149.29 0 0 0 41.59-1.48C616 351 634 347 639.08 346.29c2.28-.29 8.27.51 8.26 7.17zm-99 30.79a10.86 10.86 0 0 0-10.15-4.15 5.33 5.33 0 1 1 0-10.56 10.7 10.7 0 0 0 10.15-4.18 15.66 15.66 0 0 1 12.54-6.29h.09v31.42s-8.15-.49-12.66-6.24zm89.87-44.13c-5.28.76-23.32 4.78-27.95 5.5a143.5 143.5 0 0 1-39.91 1.38c-2.11-.22-7.73.19-9.12 5.78 0 0-12.17 0-17.93 8.79a4.35 4.35 0 0 1-4.29 1.74 11.59 11.59 0 1 0 0 22.95c3.88-.58 5.59 3.33 6.33 4.07a22.67 22.67 0 0 0 15.9 6.41c1.35 5.53 6.85 6 9.1 5.77a142.72 142.72 0 0 1 40 1.38c4.53.72 22.57 4.71 27.85 5.47 3.88.55 15.42-1 15.42-13.34v-42.59c.01-11.64-11.17-13.92-15.42-13.31z"/><path class="cls-3" d="M581.93 380.81v5a3.13 3.13 0 0 0 6.25 0v-5a3 3 0 0 0-3.13-3.13 3.13 3.13 0 0 0-3.12 3.13zM596.72 380.8v5a3.13 3.13 0 1 0 6.25 0v-5a3 3 0 0 0-3.13-3.13 3.13 3.13 0 0 0-3.12 3.13zM611.53 380.8v5a3.13 3.13 0 1 0 6.25 0v-5a3 3 0 0 0-3.13-3.13 3.13 3.13 0 0 0-3.12 3.13zM626.35 380.78v5a3.13 3.13 0 1 0 6.25 0v-5a3 3 0 0 0-3.13-3.13 3.13 3.13 0 0 0-3.12 3.13zM395.32 720.58a5.63 5.63 0 0 1 5.66 5.66v59.16a5.63 5.63 0 0 1-5.66 5.66h-35.07a5.63 5.63 0 0 1-5.66-5.66v-59.06a5.63 5.63 0 0 1 5.66-5.66h35.07zm-65.65 54.87a19.69 19.69 0 0 1 0-39.37h18.43v39.37zm18.53-49.21v3.45h-18.53a26.07 26.07 0 0 0 0 52.14h18.43v3.46a12 12 0 0 0 12 12h35.08a12 12 0 0 0 12-12v-59.05a12 12 0 0 0-12-12h-35a12 12 0 0 0-11.97 12zM493.15 765.57a31.8 31.8 0 1 1 45 0 31.83 31.83 0 0 1-45 0zm-67.21-67.21a31.8 31.8 0 1 1 45 0 31.83 31.83 0 0 1-44.99.01zm116.32 18.09a37.73 37.73 0 0 0-47.26-4.87 17 17 0 0 0-15.08-15.08 37.79 37.79 0 1 0-5.38 6.45 10.94 10.94 0 0 1 14 14 37.65 37.65 0 1 0 53.72-.48zM610.53 741.25a2.21 2.21 0 0 0 3.3-1.62l5-47.05a7.43 7.43 0 0 0-8.92-7.17l-6.91 5.23a15.86 15.86 0 0 1-19.18 0l-6.82-5.23a7.39 7.39 0 0 0-1.47-.15 7.47 7.47 0 0 0-7.45 7.32l5 47.13a2.2 2.2 0 0 0 3.29 1.53l10.86-17.52a7.31 7.31 0 0 1 12.43 0zm1.09 6.65a8.55 8.55 0 0 1-5.54-2.06l-.37-.32-11.43-18.45a1 1 0 0 0-1.65 0l-11.43 18.46-.37.32a8.55 8.55 0 0 1-14-5.37l-5.07-47.73a13.83 13.83 0 0 1 13.8-13.83 14 14 0 0 1 3.72.51l.59.16 7.89 6a9.66 9.66 0 0 0 11.51 0l7.89-6 .59-.16a14 14 0 0 1 3.72-.51 13.83 13.83 0 0 1 13.8 13.83v.34l-5.06 47.32a8.61 8.61 0 0 1-8.59 7.5zM227.73 756.25a2.21 2.21 0 0 0 3.3-1.62l5-47.05a7.43 7.43 0 0 0-8.92-7.17l-6.88 5.23a15.86 15.86 0 0 1-19.18 0l-6.88-5.23a7.39 7.39 0 0 0-1.47-.15 7.47 7.47 0 0 0-7.45 7.32l5 47.13a2.2 2.2 0 0 0 3.29 1.53l10.86-17.52a7.31 7.31 0 0 1 12.43 0zm1.09 6.65a8.55 8.55 0 0 1-5.54-2.06l-.37-.32-11.43-18.45a1 1 0 0 0-1.65 0l-11.43 18.46-.37.32a8.55 8.55 0 0 1-14-5.37l-5.07-47.73a13.83 13.83 0 0 1 13.8-13.83 14 14 0 0 1 3.72.51l.59.16 7.89 6a9.66 9.66 0 0 0 11.51 0l7.89-6 .59-.16a14 14 0 0 1 3.72-.51 13.83 13.83 0 0 1 13.8 13.83v.34l-5.06 47.32a8.61 8.61 0 0 1-8.59 7.5zM727.11 694.19c2.58 8 5.21 14.64 7.75 21.1s5.13 13 7.72 20.94a197.9 197.9 0 0 1 46.75-6c14.69 0 29.52 1.91 46.43 6 2.59-7.93 5.2-14.55 7.73-21s5.17-13.11 7.75-21.07c-19.7-12.36-40.58-18.62-62.07-18.62s-42.36 6.29-62.06 18.65zm11.65 48.92l-.82-2.58c-2.79-8.89-5.65-16.13-8.41-23.13s-5.7-14.46-8.56-23.57l-.65-2.08 1.83-1.19c21.19-13.75 43.74-20.72 67-20.72s45.84 7 67 20.72l1.83 1.19-.65 2.08c-2.85 9.1-5.75 16.44-8.55 23.55s-5.62 14.26-8.42 23.16l-.81 2.58-2.62-.66C819.44 738 804.31 736 789.35 736s-30.67 2.12-48 6.49z"/><path class="cls-3" d="M803.39 706.32H775a2.87 2.87 0 1 1 0-5.73h28.42a2.87 2.87 0 0 1 0 5.73z"/><path class="cls-3" d="M789.18 720.64a2.87 2.87 0 0 1-2.87-2.87v-28.62a2.87 2.87 0 1 1 5.73 0v28.63a2.87 2.87 0 0 1-2.86 2.86zM132.55 732.44a10.15 10.15 0 0 1-7.22 3 10.15 10.15 0 0 1-7.22-3l-16.76-16.77a10.21 10.21 0 0 1 14.44-14.44L132.55 718a10.23 10.23 0 0 1 0 14.44zM83.2 776.9v-11.56a6.13 6.13 0 0 0 4.2-5.52c0-3.36-3.24-6.09-7.24-6.09s-7.24 2.73-7.24 6.09a6.16 6.16 0 0 0 4.36 5.59v11.49c-18.59-.47-39.33-5.82-39.33-27.29a39.91 39.91 0 0 1 1-8.76 16 16 0 0 0 7.41-4.21l16.76-16.76a16.12 16.12 0 0 0 4.38-14.67 31.1 31.1 0 0 1 25.24 0 16.56 16.56 0 0 0-.33 3.27 16 16 0 0 0 4.72 11.41l16.76 16.76a16 16 0 0 0 7.41 4.21 39.9 39.9 0 0 1 1 8.76c.07 21.38-20.54 26.77-39.1 27.28zm-3 11a6.79 6.79 0 0 1-6.6-5.22c2.13.13 4.32.2 6.6.2s4.47-.07 6.6-.2a6.78 6.78 0 0 1-6.65 5.2zM27.76 718l16.76-16.76A10.21 10.21 0 0 1 59 715.68l-16.8 16.77A10.21 10.21 0 0 1 27.76 718zm109-4.19L120 697.06a16.12 16.12 0 0 0-25 2.62 37.47 37.47 0 0 0-29.77 0 16.13 16.13 0 0 0-24.94-2.62l-16.72 16.76a16.11 16.11 0 0 0 9.27 27.38 44.87 44.87 0 0 0-.83 8.4c0 18.32 12.48 29.6 35.48 32.51a12.71 12.71 0 0 0 25.34 0c23-2.91 35.47-14.18 35.47-32.51a44.94 44.94 0 0 0-.83-8.4 16.11 16.11 0 0 0 9.27-27.38zM674.54 16.61c-7.36 0-15.26-5.79-15.26-13.15v-57.88a24.33 24.33 0 0 1 4.21-.26c3.69 0 6.58 1.05 9.47 1.84a31.61 31.61 0 0 0 8.42 1.58h.26a17 17 0 0 0 8.42-2.37V3.72c-.26 7.37-8.15 12.89-15.52 12.89zm15.26-92.07v13.94c-3.95 3.16-6.58 3.42-8.42 3.42a20.88 20.88 0 0 1-6.58-1.32 34.61 34.61 0 0 0-11.31-2.1 22.74 22.74 0 0 0-4.21.26v-14.2zM703.22-82h-57.35a3.2 3.2 0 0 0-3.16 3.16 3.4 3.4 0 0 0 3.16 3.16h6.58V3.46c0 10.52 10.26 19.73 21.83 19.73S696.11 14 696.11 3.46v-78.92h6.58a3.2 3.2 0 0 0 3.16-3.16c-.01-1.57-1.06-3.38-2.63-3.38zM395.32-17.42a5.63 5.63 0 0 1 5.68 5.66V47.4a5.63 5.63 0 0 1-5.66 5.66h-35.09a5.63 5.63 0 0 1-5.66-5.66v-59.06a5.63 5.63 0 0 1 5.66-5.66h35.07zm-65.65 54.87a19.69 19.69 0 0 1 0-39.37h18.43v39.37zm18.53-49.21v3.46h-18.53a26.07 26.07 0 0 0 0 52.14h18.43v3.46a12 12 0 0 0 12 12h35.08a12 12 0 0 0 12-12v-59.06a12 12 0 0 0-12-12h-35a12 12 0 0 0-11.97 12z"/><path class="cls-3" d="M383.6 16.62a4.08 4.08 0 1 1-4.08-4.08 4.09 4.09 0 0 1 4.08 4.08zm-14.66 0A10.57 10.57 0 1 0 379.51 6a10.54 10.54 0 0 0-10.57 10.62zM610.53 3.25a2.21 2.21 0 0 0 3.3-1.62l5-47.05a7.47 7.47 0 0 0-7.45-7.32 7.39 7.39 0 0 0-1.47.15L603-47.36a15.75 15.75 0 0 1-9.59 3.23 15.74 15.74 0 0 1-9.59-3.23L577-52.59a7.39 7.39 0 0 0-1.47-.15 7.47 7.47 0 0 0-7.45 7.32l5 47.13a2.2 2.2 0 0 0 3.29 1.53l10.86-17.52a7.27 7.27 0 0 1 6.22-3.47 7.26 7.26 0 0 1 6.22 3.47zm1.09 6.65a8.55 8.55 0 0 1-5.54-2.06l-.37-.32-11.43-18.44a1 1 0 0 0-.83-.46 1 1 0 0 0-.83.46L581.2 7.53l-.37.32a8.55 8.55 0 0 1-5.54 2.06 8.6 8.6 0 0 1-8.5-7.43l-5.07-47.73a13.83 13.83 0 0 1 13.8-13.83 14 14 0 0 1 3.72.51l.59.16 7.89 6a9.66 9.66 0 0 0 11.51 0l7.89-6 .59-.16a14 14 0 0 1 3.72-.51 13.83 13.83 0 0 1 13.8 13.83v.34l-5.1 47.3a8.61 8.61 0 0 1-8.51 7.52zM227.73 18.25a2.21 2.21 0 0 0 3.3-1.62l5-47.05a7.47 7.47 0 0 0-7.45-7.32 7.39 7.39 0 0 0-1.47.15l-6.88 5.23a15.75 15.75 0 0 1-9.59 3.23 15.74 15.74 0 0 1-9.59-3.23l-6.88-5.23a7.39 7.39 0 0 0-1.47-.15 7.47 7.47 0 0 0-7.45 7.32l5 47.13a2.2 2.2 0 0 0 3.29 1.53L204.44.73a7.31 7.31 0 0 1 12.43 0zm1.09 6.65a8.55 8.55 0 0 1-5.54-2.06l-.37-.32-11.43-18.44a1 1 0 0 0-1.65 0L198.4 22.53l-.37.32a8.55 8.55 0 0 1-14-5.37l-5.13-47.74a13.83 13.83 0 0 1 13.8-13.83 14 14 0 0 1 3.72.51l.59.16 7.89 6a9.66 9.66 0 0 0 11.51 0l7.89-6 .59-.16a14 14 0 0 1 3.72-.51 13.83 13.83 0 0 1 13.8 13.83v.34l-5.06 47.32a8.61 8.61 0 0 1-8.53 7.51zM727.11-43.81c2.58 8 5.21 14.64 7.75 21.1s5.13 13 7.72 20.94a197.9 197.9 0 0 1 46.75-6c14.69 0 29.52 1.91 46.43 6 2.59-7.93 5.2-14.55 7.73-21s5.17-13.11 7.75-21.07c-19.7-12.36-40.58-18.62-62.07-18.62s-42.36 6.29-62.06 18.65zm11.65 48.92l-.82-2.58c-2.79-8.89-5.65-16.13-8.41-23.13s-5.7-14.46-8.56-23.57l-.65-2.08 1.83-1.19c21.19-13.75 43.74-20.72 67-20.72s45.84 7 67 20.72l1.85 1.19-.65 2.08c-2.85 9.1-5.75 16.44-8.55 23.55s-5.62 14.26-8.42 23.16l-.81 2.58-2.57-.67C819.44 0 804.31-2 789.35-2s-30.67 2.12-48 6.49zM58.21 6.78c0 8.8-13.2 8.8-13.2 0s13.2-8.79 13.2 0M115.3 6.78c0 8.8-13.19 8.8-13.19 0s13.19-8.78 13.19 0"/><path class="cls-3" d="M132.55-5.56a10.15 10.15 0 0 1-7.22 3 10.15 10.15 0 0 1-7.22-3l-16.76-16.76a10.14 10.14 0 0 1-3-7.22 10.14 10.14 0 0 1 3-7.22 10.14 10.14 0 0 1 7.22-3 10.14 10.14 0 0 1 7.22 3L132.55-20a10.23 10.23 0 0 1 0 14.44zM83.2 38.9V27.34a6.13 6.13 0 0 0 4.2-5.52c0-3.36-3.24-6.09-7.24-6.09s-7.24 2.73-7.24 6.09a6.16 6.16 0 0 0 4.36 5.59V38.9c-18.59-.47-39.33-5.82-39.33-27.29a39.91 39.91 0 0 1 1-8.76 16 16 0 0 0 7.41-4.21l16.79-16.76a16.12 16.12 0 0 0 4.38-14.67 32.31 32.31 0 0 1 12.62-2.68 32.27 32.27 0 0 1 12.62 2.68 16.56 16.56 0 0 0-.33 3.27 16 16 0 0 0 4.72 11.41l16.76 16.75a16 16 0 0 0 7.41 4.21 39.9 39.9 0 0 1 1 8.76C122.37 33 101.76 38.39 83.2 38.9zm-3 11a6.79 6.79 0 0 1-6.6-5.22c2.13.13 4.32.2 6.6.2s4.47-.07 6.6-.2a6.78 6.78 0 0 1-6.65 5.2zM27.76-20l16.76-16.75a10.14 10.14 0 0 1 7.22-3 10.14 10.14 0 0 1 7.22 3 10.21 10.21 0 0 1 0 14.43L42.2-5.55a10.14 10.14 0 0 1-7.22 3 10.14 10.14 0 0 1-7.22-3 10.22 10.22 0 0 1 0-14.45zm109-4.19L120-40.94a16 16 0 0 0-11.41-4.72 16 16 0 0 0-11.41 4.72A16.17 16.17 0 0 0 95-38.32a38.46 38.46 0 0 0-14.84-3.08 38.46 38.46 0 0 0-14.89 3.08 15.94 15.94 0 0 0-2.12-2.62 16 16 0 0 0-11.41-4.72 16 16 0 0 0-11.41 4.72L23.57-24.18a16 16 0 0 0-4.72 11.41 16 16 0 0 0 4.72 11.41 16 16 0 0 0 9.27 4.56 44.87 44.87 0 0 0-.83 8.4c0 18.32 12.48 29.6 35.48 32.51a12.71 12.71 0 0 0 25.34 0c23-2.91 35.47-14.18 35.47-32.51a44.94 44.94 0 0 0-.83-8.4 16 16 0 0 0 9.27-4.57 16.14 16.14 0 0 0 0-22.81zM446.32 98.11a16.18 16.18 0 1 1 16.17 15.78 16 16 0 0 1-16.17-15.78zm38.26 0a22.09 22.09 0 1 0-22.09 21.69 22 22 0 0 0 22.09-21.69z"/><path class="cls-3" d="M427.13 98.11c0-29.32 28.39-53.24 35.37-53.24s35.37 23.92 35.37 53.24-28.39 53.24-35.37 53.24-35.37-23.92-35.37-53.24zm76.65 0c0-32.34-30-59.16-41.28-59.16s-41.28 26.82-41.28 59.16 30 59.16 41.28 59.16 41.27-26.82 41.27-59.16zM493.15 27.57a31.8 31.8 0 1 1 45 0 31.83 31.83 0 0 1-45 0zm-67.2-67.2a31.83 31.83 0 0 1 0-45 31.83 31.83 0 0 1 45 0 31.83 31.83 0 0 1 0 45 31.83 31.83 0 0 1-45 0zm116.31 18.09A37.73 37.73 0 0 0 495-26.42a16 16 0 0 0-4.87-10.21 16.09 16.09 0 0 0-10.21-4.87A37.72 37.72 0 0 0 475-88.76a37.71 37.71 0 0 0-53.26 0 37.7 37.7 0 0 0 0 53.26 37.69 37.69 0 0 0 52.76.45 10.79 10.79 0 0 1 11.5 2.56 10.77 10.77 0 0 1 2.56 11.44A37.7 37.7 0 0 0 489 31.7a37.7 37.7 0 0 0 53.26 0 37.66 37.66 0 0 0 0-53.24zM-32.75 129.06A31.83 31.83 0 0 1-41.7 85a31.83 31.83 0 0 1 44.07-9 31.83 31.83 0 0 1 8.95 44.07 31.83 31.83 0 0 1-44.07 8.99zM-112 76.58a31.83 31.83 0 0 1-8.95-44.07 31.83 31.83 0 0 1 44.07-8.95 31.83 31.83 0 0 1 8.95 44.07A31.83 31.83 0 0 1-112 76.58zM5.61 71.16a37.73 37.73 0 0 0-47.29 4.62 16 16 0 0 0-6.81-9 16.09 16.09 0 0 0-11-2.74 37.72 37.72 0 0 0-14.16-45.38 37.71 37.71 0 0 0-52.19 10.6 37.7 37.7 0 0 0 10.6 52.19A37.69 37.69 0 0 0-63.45 71.4a10.79 10.79 0 0 1 11.72.23 10.77 10.77 0 0 1 4.78 10.7A37.7 37.7 0 0 0-36 133.94a37.7 37.7 0 0 0 52.19-10.6A37.66 37.66 0 0 0 5.61 71.16zM832.18 99.17h-38.11a.62.62 0 0 1-.66-.66V40.7a.62.62 0 0 1 .66-.66h38.11a.62.62 0 0 1 .66.66v57.82a.62.62 0 0 1-.66.65zm3.94-65.7h-46a3.25 3.25 0 0 0-3.28 3.28v65.7a3.25 3.25 0 0 0 3.28 3.28h46a3.25 3.25 0 0 0 3.28-3.28V36.76a3.25 3.25 0 0 0-3.28-3.29z"/><rect class="cls-3" x="815.1" y="48.59" width="10.51" height="10.51" rx=".66" ry=".66"/><rect class="cls-3" x="800.64" y="48.59" width="10.51" height="10.51" rx=".66" ry=".66"/><rect class="cls-3" x="815.1" y="63.04" width="10.51" height="10.51" rx=".66" ry=".66"/><rect class="cls-3" x="800.64" y="63.04" width="10.51" height="10.51" rx=".66" ry=".66"/><rect class="cls-3" x="815.1" y="77.49" width="10.51" height="10.51" rx=".66" ry=".66"/><rect class="cls-3" x="800.64" y="77.49" width="10.51" height="10.51" rx=".66" ry=".66"/><path class="cls-3" d="M988.27 158.42h6.16v24.28h-6.16zM973.63 158.42h6.16v24.28h-6.16zM957.43 270.54h97.15v-42.09h-97.15zm100.22 6.17h-103.3a3.09 3.09 0 0 1-3.09-3.09v-48.25a3.09 3.09 0 0 1 3.09-3.08h103.31a3.09 3.09 0 0 1 3.09 3.08v48.26a3.09 3.09 0 0 1-3.1 3.08z"/><path class="cls-3" d="M1054.57 284.68a9.4 9.4 0 0 1-9.39 9.39h-78.36a9.4 9.4 0 0 1-9.39-9.39v-59.44c0-5.65 4.92-10.66 9.68-15.51s9-9.22 9-14.62v-9.32h59.69v9.32c0 5.39 4.39 9.88 9 14.62s9.68 9.86 9.68 15.51zM966 176.47v-11.82a3.16 3.16 0 0 1 3.15-3.15h73.62a3.16 3.16 0 0 1 3.15 3.15v11.82a3.16 3.16 0 0 1-3.15 3.15h-73.58a3.16 3.16 0 0 1-3.19-3.15zm83.26 28.95c-3.58-3.65-7.29-7.42-7.29-10.3v-9.32h.8a9.33 9.33 0 0 0 9.31-9.32v-11.82a9.32 9.32 0 0 0-9.31-9.33h-73.58a9.33 9.33 0 0 0-9.32 9.32v11.82a9.33 9.33 0 0 0 9.32 9.32h.8v9.32c0 2.88-3.71 6.65-7.29 10.3-5.37 5.47-11.44 11.67-11.44 19.83v59.44a15.57 15.57 0 0 0 15.55 15.55h78.36a15.57 15.57 0 0 0 15.55-15.55v-59.44c.02-8.16-6.06-14.36-11.43-19.83z"/><path class="cls-3" d="M1002.47 263h7.07v-7.51A2.44 2.44 0 0 1 1012 253h7.52v-7H1012a2.43 2.43 0 0 1-2.43-2.43V236h-7.07v7.51a2.43 2.43 0 0 1-2.5 2.49h-7.52v7h7.52a2.43 2.43 0 0 1 2.43 2.44zm9.39 4.63h-11.7a2.32 2.32 0 0 1-2.31-2.31v-7.64h-7.65a2.31 2.31 0 0 1-2.32-2.31v-11.7a2.32 2.32 0 0 1 2.32-2.32h7.64v-7.65a2.31 2.31 0 0 1 2.31-2.31h11.7a2.32 2.32 0 0 1 2.31 2.31v7.64h7.64a2.32 2.32 0 0 1 2.31 2.32v11.7a2.32 2.32 0 0 1-2.31 2.31h-7.64v7.64a2.33 2.33 0 0 1-2.31 2.31zM2.91 158.42h6.16v24.28H2.91zM17.56 158.42h6.16v24.28h-6.16zM32.2 158.42h6.16v24.28H32.2zM-42.57 270.54h97.15v-42.09h-97.15zm100.22 6.17h-103.3a3.09 3.09 0 0 1-3.09-3.09v-48.25a3.09 3.09 0 0 1 3.09-3.08h103.3a3.09 3.09 0 0 1 3.09 3.08v48.26a3.09 3.09 0 0 1-3.09 3.08z"/><path class="cls-3" d="M54.57 284.68a9.4 9.4 0 0 1-9.39 9.39h-78.36a9.4 9.4 0 0 1-9.39-9.39v-59.44c0-5.65 4.92-10.66 9.68-15.51s9-9.22 9-14.62v-9.32h59.73v9.32c0 5.39 4.39 9.88 9 14.62s9.68 9.86 9.68 15.51zM-34 176.47v-11.82a3.16 3.16 0 0 1 3.15-3.15h73.66a3.16 3.16 0 0 1 3.19 3.15v11.82a3.16 3.16 0 0 1-3.15 3.15h-73.66a3.16 3.16 0 0 1-3.19-3.15zm83.26 28.95C45.71 201.76 42 198 42 195.11v-9.32h.8a9.33 9.33 0 0 0 9.31-9.32v-11.81a9.32 9.32 0 0 0-9.31-9.33h-73.61a9.33 9.33 0 0 0-9.32 9.32v11.82a9.33 9.33 0 0 0 9.32 9.32h.8v9.32c0 2.88-3.71 6.65-7.29 10.3-5.37 5.47-11.44 11.67-11.44 19.83v59.44a15.57 15.57 0 0 0 15.55 15.55h78.37a15.57 15.57 0 0 0 15.55-15.55v-59.44c.01-8.16-6.07-14.36-11.44-19.83z"/><path class="cls-3" d="M2.47 263h7.07v-7.51A2.44 2.44 0 0 1 12 253h7.52v-7H12a2.43 2.43 0 0 1-2.43-2.43V236h-7.1v7.51A2.43 2.43 0 0 1 0 246h-7.48v7H0a2.43 2.43 0 0 1 2.43 2.44zm9.39 4.63H.15a2.32 2.32 0 0 1-2.31-2.31v-7.64H-9.8a2.31 2.31 0 0 1-2.32-2.31v-11.7a2.32 2.32 0 0 1 2.32-2.32h7.64v-7.65a2.31 2.31 0 0 1 2.31-2.31h11.7a2.32 2.32 0 0 1 2.31 2.31v7.64h7.64a2.32 2.32 0 0 1 2.31 2.32v11.7a2.32 2.32 0 0 1-2.31 2.31h-7.63v7.64a2.33 2.33 0 0 1-2.32 2.31zM443.63 606.25h-39a3.25 3.25 0 0 1-3.25-3.25v-12.21h45.52V603a3.29 3.29 0 0 1-3.27 3.25zm-26-36.2a3.25 3.25 0 0 0 3.25-3.25v-4.88h6.5v13a3.25 3.25 0 1 0 6.5 0v-13h13v22.35h-45.52v-22.35h13v4.88a3.27 3.27 0 0 0 3.26 3.25zm-10-30.64a18.42 18.42 0 0 0 9.74-16.27v-7.34h13.4v7.35a18.42 18.42 0 0 0 9.7 16.24.09.09 0 0 1 .05 0 11.93 11.93 0 0 1 6.31 10.53v5.48h-45.47v-5.48a11.94 11.94 0 0 1 6.31-10.51zm4.65-37.21h23.59v7.1h-23.55zm31.36 31.52a11.93 11.93 0 0 1-6.32-10.53v-7.39h1.84a3.25 3.25 0 0 0 3.25-3.25V502.2a6.51 6.51 0 0 0-6.49-6.49h-23.6a6.5 6.5 0 0 0-6.49 6.49v10.35a3.25 3.25 0 0 0 3.25 3.25h1.84v7.35a11.91 11.91 0 0 1-6.32 10.53 18.42 18.42 0 0 0-9.74 16.27v53a9.76 9.76 0 0 0 9.74 9.74h39a9.76 9.76 0 0 0 9.74-9.74V550a18.36 18.36 0 0 0-9.67-16.28z"/></svg>