<svg width="27" height="26" viewBox="0 0 27 26" xmlns="http://www.w3.org/2000/svg"><title>Fill 488</title><path d="M18.892 10.35c.006.114.008.229.008.344 0 3.525-2.677 7.589-7.573 7.589a7.518 7.518 0 0 1-4.08-1.199 5.325 5.325 0 0 0 3.94-1.104 2.666 2.666 0 0 1-2.485-1.851 2.68 2.68 0 0 0 1.2-.046 2.67 2.67 0 0 1-2.133-2.616v-.034c.359.2.77.32 1.205.334a2.664 2.664 0 0 1-1.183-2.22c0-.49.13-.947.36-1.34a7.547 7.547 0 0 0 5.485 2.785 2.664 2.664 0 0 1 4.536-2.433 5.297 5.297 0 0 0 1.69-.647 2.677 2.677 0 0 1-1.17 1.476 5.298 5.298 0 0 0 1.528-.419 5.397 5.397 0 0 1-1.328 1.38zM13.734 0C6.569 0 .76 5.82.76 13s5.808 13 12.973 13c7.164 0 12.973-5.82 12.973-13S20.898 0 13.734 0z" fill="#FFF" fill-rule="evenodd"/></svg>