<svg width="27" height="26" viewBox="0 0 27 26" xmlns="http://www.w3.org/2000/svg"><title>Fill 506</title><path d="M14.574 15.895c-.805 0-1.562-.436-1.82-.93 0 0-.434 1.72-.525 2.051-.323 1.175-1.273 2.35-1.345 2.444-.052.067-.166.046-.177-.043-.021-.149-.264-1.629.022-2.837l.959-4.07s-.239-.474-.239-1.18c0-1.107.641-1.933 1.438-1.933.678 0 1.004.51 1.004 1.12 0 .683-.433 1.705-.657 2.651-.187.792.396 1.438 1.176 1.438 1.411 0 2.362-1.817 2.362-3.97 0-1.637-1.099-2.862-3.1-2.862-2.26 0-3.669 1.69-3.669 3.577 0 .65.192 1.11.492 1.463.138.164.157.23.107.418-.036.136-.117.468-.152.598-.049.19-.203.257-.373.187-1.041-.425-1.526-1.568-1.526-2.853 0-2.12 1.785-4.664 5.326-4.664 2.845 0 4.717 2.063 4.717 4.279 0 2.927-1.625 5.116-4.02 5.116zM13.234 0C6.07 0 .261 5.82.261 13S6.07 26 13.234 26c7.164 0 12.973-5.82 12.973-13S20.398 0 13.234 0z" fill="#FFF" fill-rule="evenodd"/></svg>