<svg width="27" height="26" viewBox="0 0 27 26" xmlns="http://www.w3.org/2000/svg"><title>Fill 490</title><path d="M19.981 19.212H17.2v-4.484c0-1.127-.402-1.896-1.41-1.896-.767 0-1.225.52-1.426 1.02-.074.18-.092.427-.092.68v4.68h-2.78s.036-7.596 0-8.381h2.78v1.187c.37-.573 1.03-1.384 2.506-1.384 1.83 0 3.203 1.197 3.203 3.772v4.806zM8.562 9.685h-.018c-.933 0-1.536-.644-1.536-1.449 0-.822.622-1.448 1.572-1.448.952 0 1.538.626 1.555 1.448 0 .805-.603 1.449-1.573 1.449zm-1.39 9.527h2.782v-8.381H7.172v8.381zM13.495 0C6.329 0 .522 5.82.522 13s5.807 13 12.973 13c7.164 0 12.973-5.82 12.973-13S20.658 0 13.495 0z" fill="#FFF" fill-rule="evenodd"/></svg>