<svg width="80" height="80" xmlns="http://www.w3.org/2000/svg" xmlns:xlink="http://www.w3.org/1999/xlink" viewBox="0 0 100 24"><defs><path d="M10.5 19.17h-4a1.06 1.06 0 0 1-.73-.27L3 16.9a1.32 1.32 0 0 1-.52-1.06A1.29 1.29 0 0 1 3 14.77l2.69-2a1.21 1.21 0 0 1 .73-.27h13.41a1.34 1.34 0 0 1 1.33 1.33v4a1.34 1.34 0 0 1-1.33 1.33H14.5v3.34h-4zm12-13.33A1.34 1.34 0 0 1 22 6.9l-2.69 2a1.1 1.1 0 0 1-.73.27h-4v2h-4v-2H5.17a1.34 1.34 0 0 1-1.34-1.34v-4A1.34 1.34 0 0 1 5.17 2.5h13.37a1.21 1.21 0 0 1 .73.27l2.69 2a1.29 1.29 0 0 1 .54 1.06z" id="a"/></defs><use xlink:href="#a" fill="#4d4d4d"/><use xlink:href="#a" x="24" fill="#b3b3b3"/><use xlink:href="#a" x="48" fill="#fff"/><use xlink:href="#a" x="72" fill="#00a4a5"/></svg>