<svg xmlns="http://www.w3.org/2000/svg" viewBox="0 0 19.6 17.9"><g fill="#FFF"><path d="M9.8 4.6c.5 0 .9-.4.9-.9V.9c0-.5-.4-.9-.9-.9s-.9.4-.9.9v2.8c0 .5.4.9.9.9zM4.1 2.9c-.3-.3-.9-.3-1.3 0-.3.3-.3.9 0 1.3l2 2c.3.3.9.3 1.3 0 .3-.3.3-.9 0-1.3l-2-2zM18.7 8.9h-2.8c-.5 0-.9.4-.9.9s.4.9.9.9h2.8c.5 0 .9-.4.9-.9s-.4-.9-.9-.9zM3.7 8.9H.9c-.5 0-.9.4-.9.9s.4.9.9.9h2.8c.5 0 .9-.4.9-.9s-.4-.9-.9-.9zM16.8 2.8c-.3-.3-.9-.3-1.3 0l-2.1 2c-.3.3-.3.9 0 1.3.3.3.9.3 1.3 0l2.1-2c.3-.3.3-.9 0-1.3zM10.4 11.7c-1.2-.4-1.6-.6-1.6-1 0-.3.4-.6 1.2-.6.9 0 1.5.3 1.7.4h.2c.2 0 .3-.1.4-.2l.4-.8v-.3c0-.1-.1-.2-.2-.2-.4-.2-.9-.3-1.5-.4h-.2v-.9c0-.2-.2-.4-.4-.4h-1c-.2 0-.4.2-.4.4v.9h-.2c-1.3.3-2.1 1.2-2.1 2.2 0 1.4 1.4 2 2.7 2.4 1.2.4 1.4.8 1.4 1 0 .5-.6.8-1.4.8-.7 0-1.4-.2-2-.5h-.2-.1c-.1 0-.2.1-.2.2l-.4.8c-.1.2 0 .4.2.5.5.3 1.1.5 1.9.5h.2v.8c0 .2.2.4.4.4h.9c.2 0 .4-.2.4-.4v-.9h.2c1.6-.4 2.2-1.5 2.2-2.3.1-1.4-1.2-2-2.5-2.4z"/></g></svg>