<svg width="63" height="63" viewBox="0 0 63 63" xmlns="http://www.w3.org/2000/svg"><title>Slice 1</title><path d="M61.875 63H1.125A1.125 1.125 0 0 1 0 61.875V1.125a1.125 1.125 0 0 1 2.25 0V60.75h59.625a1.125 1.125 0 0 1 0 2.25M51 22.5a4.502 4.502 0 0 1-4.5-4.5c0-2.484 2.016-4.5 4.5-4.5s4.5 2.016 4.5 4.5-2.016 4.5-4.5 4.5M42.75 45a4.502 4.502 0 0 1-4.5-4.5c0-2.484 2.016-4.5 4.5-4.5s4.5 2.016 4.5 4.5-2.016 4.5-4.5 4.5M25.5 35.25a4.502 4.502 0 0 1-4.5-4.5c0-2.484 2.016-4.5 4.5-4.5s4.5 2.016 4.5 4.5-2.016 4.5-4.5 4.5M13.5 54A4.502 4.502 0 0 1 9 49.5c0-2.484 2.016-4.5 4.5-4.5s4.5 2.016 4.5 4.5-2.016 4.5-4.5 4.5" fill="#FFF" fill-rule="evenodd"/></svg>