<svg width="24" height="24" viewBox="0 0 24 24" xmlns="http://www.w3.org/2000/svg"><title>Page 1</title><path d="M23.594 22.875c-.57.571-1.471.571-2.01 0l-6.124-6.124a9.358 9.358 0 0 1-6.004 2.16A9.454 9.454 0 0 1 0 9.457 9.454 9.454 0 0 1 9.456 0a9.455 9.455 0 0 1 9.456 9.456 9.41 9.41 0 0 1-1.53 5.163l6.212 6.213a1.49 1.49 0 0 1 0 2.043zM9.456 2.913c-3.602 0-6.545 2.942-6.545 6.544 0 3.603 2.943 6.545 6.545 6.545S16 13.06 16 9.457a6.54 6.54 0 0 0-6.545-6.544z" fill="#4D4D4D" fill-rule="evenodd"/></svg>