<svg width="27" height="26" viewBox="0 0 27 26" xmlns="http://www.w3.org/2000/svg"><title>Group</title><g fill="#FFF" fill-rule="evenodd"><path d="M10.839 7.124c-1.03-.03-1.722 1.008-1.543 2.363.178 1.357 1.157 2.304 2.188 2.336 1.03.03 1.622-.843 1.444-2.2-.177-1.355-1.059-2.467-2.09-2.499M11.272 14.598c-1.536-.018-2.837.971-2.837 2.118 0 1.17 1.11 2.145 2.645 2.145 2.159 0 2.911-.915 2.911-2.086 0-.14-.017-.279-.05-.412-.169-.662-.84-1.025-1.674-1.606a3.31 3.31 0 0 0-.995-.159"/><path d="M19.955 9.33H18.19v1.765h-.882V9.33h-1.763v-.883h1.763V6.678h.882v1.768h1.764v.883zm-5.49.236c0 .847-.468 1.53-1.13 2.047-.646.506-.767.718-.767 1.147 0 .367.77.913 1.126 1.18 1.234.928 1.484 1.512 1.484 2.672 0 1.45-1.557 2.888-4.09 2.888-2.222 0-4.096-.904-4.096-2.353 0-1.47 1.555-3.003 3.776-3.003.243 0 .464-.007.694-.007-.304-.294-.55-.55-.55-.997 0-.267.084-.521.203-.748-.12.008-.244.016-.37.016-1.825 0-2.888-1.286-2.888-2.896 0-1.577 1.617-3.012 3.558-3.012h3.823l-.854.9H13.38c.709.406 1.085 1.243 1.085 2.166zM13.473 0C6.31 0 .5 5.82.5 13S6.31 26 13.473 26c7.165 0 12.973-5.82 12.973-13S20.638 0 13.473 0z"/></g></svg>