<svg xmlns="http://www.w3.org/2000/svg" width="45" height="38" viewBox="0 0 45 38"><title>  Icon &#x2F; Identity Theft</title><desc>  Created with Sketch.</desc><g fill="none"><g fill="#4D4D4D"><path d="M22.8 21.4L22.8 21.4C22.5 25 22.4 28.2 25.3 31.9 24.9 32.1 24.6 32.3 24.2 32.4 24 32.5 23.9 32.6 23.7 32.6 20.6 28.6 20.8 25.1 20.9 21.4L20.9 21.3C21 20.3 21 19.4 21 18.4 21 16.9 19.8 15.7 18.3 15.7 16.9 15.7 15.7 16.9 15.6 18.4 15.3 24.8 16 29.6 17.8 33.6 17.5 33.6 17.2 33.6 16.9 33.6 16.6 33.5 16.3 33.5 16 33.4 15.9 33.2 15.8 33 15.7 32.8 15.7 32.8 15.7 32.7 15.7 32.6 15.6 32.5 15.5 32.4 15.5 32.2 15.5 32.1 15.5 32 15.4 32 15.4 31.7 15.3 31.5 15.2 31.2 15.2 31.2 15.2 31.2 15.2 31.1 15.1 30.9 15.1 30.7 15 30.5 14.9 30.4 14.9 30.4 14.9 30.3L14.9 30.3C14.9 30.2 14.9 30 14.8 29.8 14.8 29.8 14.8 29.8 14.8 29.7 14.8 29.7 14.8 29.6 14.8 29.6L14.8 29.6C14.7 29.4 14.7 29.3 14.7 29.2 14.7 29.1 14.7 29 14.6 28.8 14.6 28.7 14.6 28.6 14.5 28.4 14.5 28.2 14.5 28.1 14.5 28 14.5 27.9 14.4 27.8 14.4 27.7 14.4 27.5 14.4 27.2 14.4 27.1 14.3 26.5 14.2 26 14.2 25.4 14.1 24.9 14.1 24.3 14.1 23.8 14.1 23.5 14 23.2 14 22.9 14 22.6 14 22.4 14 22.1L14 21.1C14 20.2 14 19.3 14.1 18.4 14.1 15.9 16.1 14 18.5 14 20.9 14 22.9 16 22.9 18.4 22.9 19.4 22.8 20.5 22.8 21.4ZM19.3 20.3L19.3 20.3C19.2 24.6 19.2 28.7 22.3 33.3 21.8 33.4 21.5 33.5 21.1 33.5 20.9 33.6 20.6 33.6 20.4 33.6 17.4 28.8 17.4 24.7 17.5 20.3L17.5 18.3C17.5 17.9 17.9 17.5 18.4 17.5 18.9 17.5 19.3 17.9 19.3 18.3L19.3 20.3ZM26.4 21L26.4 21C26.2 24.2 26.1 27.3 28.4 30.2 28 30.6 27.6 30.9 27.2 31.2 27.1 31.2 27.1 31.2 27.1 31.3 24.3 27.9 24.5 24.2 24.7 21 24.7 20.2 24.8 19.4 24.8 18.6 24.8 15.1 21.9 12.3 18.5 12.3 15 12.3 12.2 15.1 12.2 18.7L12.2 18.7C12.2 20 12.1 27 13.8 33.2 13.5 33.1 13.2 33 13 32.9 12.6 32.8 12.2 32.6 11.8 32.4 10.5 26.8 10.5 21 10.5 18.8L10.5 18.6C10.5 14.1 14.1 10.5 18.5 10.5 22.9 10.5 26.5 14.2 26.5 18.6 26.5 19.4 26.4 20.2 26.4 21Z"/><path d="M36.8 15C35.1 6.4 27.6 0 18.6 0 8.3 0 0 8.3 0 18.6 0 23.2 1.7 27.7 4.9 31.1 5.6 31.9 6.4 32.7 7.2 33.3 7.8 33.7 8.3 34.1 8.8 34.4 9.6 34.9 10.4 35.3 11.2 35.7 11.9 36 12.6 36.2 13.3 36.4 14.1 36.6 14.9 36.8 15.7 36.9 16.3 37.1 17.1 37.1 17.9 37.1L17.9 37.1 18.6 37.1C19.1 37.1 19.6 37.1 20.2 37.1 21 37 21.8 36.9 22.7 36.7 23.4 36.5 24.1 36.3 24.8 36.1 25.3 35.9 25.9 35.7 26.4 35.4 27 35.1 27.6 34.8 28.2 34.4 28.7 34.1 29.2 33.8 29.6 33.5 30.2 33.1 30.7 32.6 31.2 32.2 31.6 31.7 32 31.3 32.5 30.9 33.7 31.6 35.1 31.9 36.5 31.9 41.2 31.9 45 28.1 45 23.5 45 18.8 41.3 15.1 36.8 15L36.8 15ZM28.4 32.5C27.9 32.8 27.5 33.1 27 33.4 26.4 33.8 25.7 34.1 25.1 34.3 24.6 34.6 24.1 34.7 23.6 34.9 22.9 35.1 22.2 35.3 21.5 35.4 20.7 35.6 19.9 35.6 19.1 35.6L18.9 35.6 18.5 35.6C17.9 35.6 17.4 35.6 16.8 35.6 16.1 35.5 15.4 35.4 14.8 35.2 14 35 13.2 34.8 12.4 34.5 11.7 34.2 11.1 33.9 10.5 33.6 9.7 33.2 8.9 32.6 8.1 32.1 7.6 31.6 7 31.1 6.5 30.6 5.6 29.7 4.8 28.7 4.1 27.6 2.4 24.9 1.5 21.8 1.5 18.6 1.5 9.2 9.2 1.6 18.6 1.6 26.7 1.6 33.6 7.4 35.2 15.1 34.6 15.2 34.1 15.3 33.6 15.6 32.1 8.6 25.9 3.4 18.6 3.4 10.2 3.4 3.3 10.2 3.3 18.7 3.3 21.5 4.1 24.3 5.6 26.7 5.2 23 4.9 19.9 4.9 18.5 4.9 14.9 6.3 11.5 8.9 8.9 11.5 6.3 14.9 4.9 18.5 4.9 22.1 4.9 25.5 6.3 28.1 8.9 30.1 11 31.4 13.6 31.9 16.4 31.3 16.8 30.8 17.2 30.3 17.8 30.3 15.2 29.4 12.8 27.6 10.8 25.3 8.3 22 6.9 18.6 6.9 12.2 6.9 6.9 12.1 6.9 18.6 6.9 18.8 6.9 23.6 7.7 29.3 7.8 29.4 7.8 29.4 7.8 29.4 8.3 29.9 8.8 30.3 9.3 30.7 9.5 30.8 9.6 30.9 9.8 31.1 8.7 24.7 8.7 18.7 8.7 18.6 8.7 13.1 13.1 8.6 18.6 8.6 21.5 8.6 24.4 9.9 26.4 12 28 13.8 28.8 16.2 28.6 18.5 28.6 18.8 28.5 19.1 28.5 19.3 28.5 19.6 28.5 19.8 28.5 20.1 28.4 20.8 28.3 21.5 28.3 22.2 28.2 22.6 28.2 23 28.2 23.5 28.2 24.1 28.2 24.6 28.3 25.1 28.5 26.4 29 27.6 29.9 28.6 30.3 29.1 30.7 29.6 31.3 30 30.8 30.4 30.4 30.8 30 31.3 29.5 31.7 29 32.1 28.4 32.5ZM36.6 30.4C32.7 30.4 29.6 27.3 29.6 23.5 29.6 19.6 32.7 16.5 36.6 16.5 40.4 16.5 43.5 19.6 43.5 23.5 43.5 27.3 40.4 30.4 36.6 30.4Z"/><path d="M39.2 20.9L39.2 20.5C39.2 19.1 38.1 17.9 36.7 17.9 35.3 17.9 34.2 19 34.2 20.5L34.2 20.9C33.4 21.1 32.8 21.7 32.8 22.6L32.8 26.4C32.8 27.3 33.5 28 34.3 28L39.1 28C39.9 28 40.6 27.3 40.6 26.4L40.6 22.6C40.6 21.7 40 21.1 39.2 20.9L39.2 20.9ZM36.7 19.4C37.3 19.4 37.7 19.9 37.7 20.4L37.7 20.9 35.7 20.9 35.7 20.4C35.7 19.9 36.1 19.4 36.7 19.4ZM39.1 26.4C39.1 26.4 39.1 26.4 39.1 26.4L34.3 26.4C34.3 26.4 34.2 26.4 34.2 26.4L34.2 22.6C34.2 22.5 34.3 22.4 34.4 22.4L39 22.4C39.1 22.4 39.2 22.5 39.2 22.6L39.2 26.4 39.1 26.4Z"/></g></g></svg>