<svg width="17" height="20" viewBox="0 0 17 20" xmlns="http://www.w3.org/2000/svg"><title>Page 1 Copy 11</title><desc>Created with Sketch.</desc><path d="M16.097 2.927h-.436c-2.753 0-4.756-.753-6.501-2.443l-.296-.296c-.258-.251-.669-.251-.927 0l-.304.296c-1.737 1.688-3.739 2.443-6.501 2.443h-.428c-.367 0-.665.297-.665.665v.436c0 .468 0 .954-.019 1.456-.092 4.895-.218 11.599 8.02 14.455.233.081.487.081.721 0 8.238-2.856 8.112-9.561 8.028-14.458l-.019-1.456v-.433c0-.178-.071-.348-.197-.473-.127-.125-.298-.194-.476-.192zm-1.715 7.594h-5.981v7.208c-4.098-1.542-5.513-4.247-5.981-7.208h5.981v-7.774c1.734 1.416 3.735 2.175 6.17 2.345v.432c.039 1.642.071 3.358-.189 4.998z" fill="#4D4D4D"/></svg>