<?xml version="1.0" encoding="UTF-8"?>
<svg width="26px" height="26px" viewBox="0 0 26 26" version="1.1" xmlns="http://www.w3.org/2000/svg" xmlns:xlink="http://www.w3.org/1999/xlink">
    <!-- Generator: Sketch 44.1 (41455) - http://www.bohemiancoding.com/sketch -->
    <title>Fill 490</title>
    <desc>Created with Sketch.</desc>
    <defs></defs>
    <g id="Newsletter-3.0" stroke="none" stroke-width="1" fill="none" fill-rule="evenodd">
        <g id="Newsletter-3.0-V2.0-Copy" transform="translate(-143.000000, -1488.000000)" fill="#007AB8">
            <g id="Group-5-Copy" transform="translate(65.000000, 1488.000000)">
                <path d="M97.5,19.212375 L94.713125,19.212375 L94.713125,14.7281875 C94.713125,13.60125 94.310125,12.8318125 93.301,12.8318125 C92.5315625,12.8318125 92.0725,13.352625 91.871,13.8523125 C91.7970625,14.031875 91.7791875,14.278875 91.7791875,14.5315625 L91.7791875,19.212375 L88.993125,19.212375 C88.993125,19.212375 89.028875,11.6163125 88.993125,10.830625 L91.7791875,10.830625 L91.7791875,12.0176875 C92.1505,11.444875 92.811875,10.634 94.290625,10.634 C96.123625,10.634 97.5,11.8308125 97.5,14.405625 L97.5,19.212375 Z M86.0575625,9.685 L86.038875,9.685 C85.1045,9.685 84.5,9.0406875 84.5,8.2363125 C84.5,7.4140625 85.1231875,6.787625 86.0754375,6.787625 C87.0293125,6.787625 87.61675,7.4140625 87.6338125,8.2363125 C87.6338125,9.0406875 87.0293125,9.685 86.0575625,9.685 Z M84.664125,19.212375 L87.4518125,19.212375 L87.4518125,10.830625 L84.664125,10.830625 L84.664125,19.212375 Z M91,0 C83.8199375,0 78,5.82075 78,13 C78,20.180875 83.8199375,26 91,26 C98.17925,26 104,20.180875 104,13 C104,5.82075 98.17925,0 91,0 L91,0 Z" id="Fill-490"></path>
            </g>
        </g>
    </g>
</svg>