<svg version="1" xmlns="http://www.w3.org/2000/svg" width="154pt" height="112pt" viewBox="0 0 154.000000 112.000000"><path d="M6.5.9c-1.1.5-2.9 1.9-4 3.1-1.9 2.1-2 3.6-2 41.1v38.9l2.8 2.7 2.7 2.8h47.8c44.6 0 47.7-.1 48-1.7.3-1.7-2.4-1.8-46.3-1.8h-46.6l-2.4-2.5-2.5-2.4v-36c0-19.8.4-36.2.8-36.5.4-.2 13.7 9.8 29.5 22.4 15.8 12.5 29.4 23.1 30.2 23.4.8.3 2.3.2 3.3-.1.9-.4 14.4-10.7 29.9-23 15.5-12.4 28.6-22.5 29-22.6.4-.1 1 11.3 1.3 25.3.4 21.8.7 25.5 2 25.5s1.5-3.6 1.5-26.7v-26.8l-2.8-2.7-2.7-2.8-58.8-.2c-32.3-.1-59.6.2-60.7.6zm116.4 3.8c0 1.4-55.3 44.8-56.9 44.8-1.6 0-56.9-43.4-56.9-44.8-.1-.4 25.5-.7 56.9-.7s57 .3 56.9.7zm-.9 60.6c-4.9 1.6-13.3 10.2-14.8 15.3-2.8 9.4-.8 16.9 6.3 23.9 7 7.1 14.5 9.1 23.9 6.3 5.5-1.6 13.8-9.9 15.4-15.4 2.8-9.4.8-16.9-6.3-23.9-7-7.1-15.2-9.1-24.5-6.2zm15.6 4.8c4.7 1.4 9.5 7 11 12.8 3.8 14.8-8.9 27.5-23.7 23.7-18.7-4.9-18.9-32.2-.3-37.1 4.8-1.3 7-1.2 13 .6zm-4.5 15.5l-7.3 7.6-3.3-3.2c-2.1-2-4-3-4.9-2.7-2.7 1.1-1.8 3.1 3.5 8.2l5.1 5 8.9-9.4c5.1-5.3 8.9-10.1 8.7-11-.7-3.5-3.7-1.9-10.7 5.5z"/></svg>