<svg width="20" height="20" viewBox="0 0 20 20" xmlns="http://www.w3.org/2000/svg"><title>Page 1</title><desc>Created with Sketch.</desc><g fill="#4D4D4D"><path d="M19.654 6.891c-.225-.602-.604-1.039-1.096-1.26-.225-.102-.463-.153-.703-.153-1.029 0-2.075.959-2.603 2.388-.653 1.769-.273 3.502.883 4.031.232.107.481.16.74.16 1.049 0 2.113-.88 2.651-2.19.406-.991.453-2.103.127-2.976zM4.748 7.865c-.527-1.429-1.574-2.388-2.603-2.388-.242 0-.478.051-.703.153-.491.222-.871.658-1.096 1.26-.326.873-.279 1.985.128 2.976.537 1.31 1.602 2.19 2.65 2.19.258 0 .508-.054.74-.16 1.155-.529 1.535-2.262.883-4.031zM7.036 7.667l.286-.008c.554-.054 1.056-.339 1.449-.822.636-.781.812-2.004.678-3.261-.204-1.938-1.225-3.384-2.597-3.444l-.296.01c-.605.06-1.155.374-1.591.91-.632.776-.935 1.931-.812 3.089.203 1.915 1.469 3.464 2.882 3.526zM10 9.178c-3.289 0-6.579 3.91-6.579 7.664 0 1.12.562 2.022 1.113 2.391.682.456 1.162.635 2.161.635 1.187 0 1.507-.415 2.063-.781.402-.265.749-.493 1.242-.493.492 0 .84.229 1.242.493.556.366.876.781 2.063.781.999 0 1.479-.179 2.161-.635.551-.369 1.113-1.271 1.113-2.391 0-3.754-3.289-7.664-6.579-7.664zM12.687 7.649l.286.008c1.414-.062 2.68-1.611 2.882-3.526.123-1.159-.181-2.313-.812-3.089-.436-.536-.965-.834-1.571-.894l-.316-.016c-1.372.06-2.393 1.497-2.598 3.434-.134 1.257.043 2.479.678 3.261.394.484.895.768 1.449.822z"/></g></svg>