<?xml version="1.0" encoding="UTF-8" standalone="no"?>
<svg width="89px" height="71px" viewBox="0 0 89 71" version="1.1" xmlns="http://www.w3.org/2000/svg" xmlns:xlink="http://www.w3.org/1999/xlink">
    <!-- Generator: Sketch 41 (35326) - http://www.bohemiancoding.com/sketch -->
    <title>Group 2</title>
    <desc>Created with Sketch.</desc>
    <defs>
        <rect id="path-1" x="0" y="0" width="83" height="65" rx="6"></rect>
        <filter x="-50%" y="-50%" width="200%" height="200%" filterUnits="objectBoundingBox" id="filter-2">
            <feOffset dx="0" dy="2" in="SourceAlpha" result="shadowOffsetOuter1"></feOffset>
            <feGaussianBlur stdDeviation="1.5" in="shadowOffsetOuter1" result="shadowBlurOuter1"></feGaussianBlur>
            <feColorMatrix values="0 0 0 0 0   0 0 0 0 0   0 0 0 0 0  0 0 0 0.2 0" type="matrix" in="shadowBlurOuter1"></feColorMatrix>
        </filter>
    </defs>
    <g id="Navigation-2.5" stroke="none" stroke-width="1" fill="none" fill-rule="evenodd">
        <g id="Group-2" transform="translate(3.000000, 1.000000)">
            <g id="Rectangle-3">
                <use fill="black" fill-opacity="1" filter="url(#filter-2)" xlink:href="#path-1"></use>
                <use fill="#EE7832" fill-rule="evenodd" xlink:href="#path-1"></use>
            </g>
            <g id="Group" transform="translate(10.000000, 18.000000)">
                <g id="Group-3" transform="translate(2.032248, 4.800000)"></g>
                <path d="M3.01282655,13.6608 C3.55332715,14.0936 4.65332731,14.9188 6.15308077,14.9188 C8.49499156,14.9188 9.4146956,12.8992 9.4146956,9.9664 C9.4146956,6.8908 8.51399051,5.7352 6.55360955,5.7352 C5.13334147,5.7352 3.71307339,6.642 3.01282655,7.4264 L3.01282655,13.6608 L3.01282655,13.6608 Z M2.03224834,5.0944 L2.89224141,5.0944 L2.97172679,6.4368 C3.7917833,5.714 5.07401823,4.8892 6.73468113,4.8892 C8.85480832,4.8892 10.4352104,6.2296 10.4352104,10.0688 C10.4352104,14.1368 8.47521715,15.828 6.15308077,15.828 C4.87394771,15.828 3.75262221,15.2304 2.97172679,14.6728 L2.97172679,19.9572 L2.03224834,19.9572 L2.03224834,5.0944 L2.03224834,5.0944 Z" id="Fill-1" fill="#FFFFFF"></path>
                <path d="M20.2417679,10.2336 C20.2417679,6.932 19.0010205,5.8172 16.8998923,5.8172 C14.7386653,5.8172 13.218362,7.2008 13.218362,10.2968 C13.218362,13.3728 14.4183974,14.9 16.8002447,14.9 C18.9005975,14.9 20.2417679,13.6008 20.2417679,10.2336 L20.2417679,10.2336 Z M12.2377838,10.3788 C12.2377838,6.9736 13.9387709,4.8892 16.9793776,4.8892 C20.0013731,4.8892 21.2816694,6.9736 21.2816694,10.1124 C21.2816694,13.5572 19.9815987,15.828 16.7199839,15.828 C13.3389471,15.828 12.2377838,13.4548 12.2377838,10.3788 L12.2377838,10.3788 Z" id="Fill-4" fill="#FFFFFF"></path>
                <polygon id="Fill-5" fill="#FFFFFF" points="23.7511445 15.7952 24.7309473 15.7952 24.7309473 0.2116 23.7511445 0.2116"></polygon>
                <path d="M28.0266826,15.7952 L29.0080363,15.7952 L29.0080363,5.3092 L28.0266826,5.3092 L28.0266826,15.7952 Z M28.5671832,2.6908 C27.9879093,2.6908 27.6474792,2.3772 27.6474792,1.8212 C27.6474792,1.2428 27.9879093,0.9328 28.5671832,0.9328 C29.1480081,0.9328 29.4876627,1.2428 29.4876627,1.8212 C29.4876627,2.3772 29.1480081,2.6908 28.5671832,2.6908 L28.5671832,2.6908 Z" id="Fill-6" fill="#FFFFFF"></path>
                <path d="M31.6748678,10.5936 C31.6748678,6.8992 33.435566,5.1048 36.397075,5.1048 C38.3182949,5.1048 39.898697,6.2376 39.9983445,8.5084 L38.9378932,8.6328 C38.7579848,6.8376 37.9177661,5.99 36.2768776,5.99 C34.5762782,5.99 32.6946071,6.9804 32.6946071,10.4484 C32.6946071,14.1852 34.4564685,15.0928 36.1559048,15.0928 C37.7176956,15.0928 38.7979213,14.3516 39.0782527,12.6984 L40.0786053,12.9056 C39.6982387,15.1564 37.9565395,16.0436 36.1772301,16.0436 C32.8349667,16.0436 31.6748678,13.7728 31.6748678,10.5936" id="Fill-7" fill="#FFFFFF"></path>
                <path d="M41.4787113,5.3092 L42.5193882,5.3092 L45.7007422,14.4132 L45.7205166,14.4132 L48.9821314,5.3092 L50.0224206,5.3092 C48.6017648,9.1288 46.8205167,13.958 45.3800865,17.758 C44.5999665,19.7796 43.6604881,20.4 42.3592542,20.4 C41.6384575,20.4 40.9789227,20.1728 40.6183305,20.0256 L40.818401,19.1804 C41.1185068,19.3264 41.7993669,19.5116 42.4201284,19.5116 C43.2599593,19.5116 43.9598184,19.0984 44.5805799,17.3844 L45.1598538,15.7952 L41.4787113,5.3092" id="Fill-8" fill="#FFFFFF"></path>
                <path d="M5.77814241,24.0048 C4.43697197,24.0048 3.45716923,24.708 3.45716923,26.254 C3.45716923,27.4328 4.07754295,28.3188 5.7180437,28.3188 C7.09876296,28.3188 8.01924247,27.4944 8.01924247,26.2132 C8.01924247,24.7892 7.17941154,24.0048 5.77814241,24.0048 L5.77814241,24.0048 Z M3.69640084,33.5008 C3.33658409,33.8928 2.93644304,34.4092 2.93644304,34.9452 C2.93644304,35.8944 3.99766983,36.2072 5.73898131,36.2072 C6.75833288,36.2072 8.69932715,36.0392 8.69932715,34.718 C8.69932715,33.81 7.93936935,33.7688 6.77888276,33.6868 L3.69640084,33.5008 L3.69640084,33.5008 Z M9.29915099,24.1712 C9.69967978,24.708 10.060272,25.3468 10.060272,26.2968 C10.060272,28.6916 8.22008846,30.0124 5.87778993,30.0124 C5.21786739,30.0124 4.57733153,29.95 4.19774036,29.8272 L3.27648538,31.3952 L5.73898131,31.5188 C9.29915099,31.7056 11.0005259,31.8908 11.0005259,34.3884 C11.0005259,36.5764 9.15917917,37.858 5.67810714,37.858 C2.15593535,37.858 0.895801236,36.8852 0.895801236,35.3172 C0.895801236,34.3256 1.43668957,33.728 2.11638653,33.0672 C1.45568852,32.7772 1.19590702,32.2836 1.19590702,31.7868 C1.19590702,31.3548 1.35565325,31.0032 1.69647107,30.6108 C2.016739,30.2392 2.43626673,29.7244 2.79608348,29.332 C1.87637945,28.8148 1.23661905,27.7408 1.23661905,26.2968 C1.23661905,24.0048 2.79608348,22.3328 5.65833273,22.3328 C6.37796624,22.3328 7.11892511,22.4156 7.5392283,22.5384 L11.1804343,22.5384 L11.1804343,24.046 L9.29915099,24.1712 L9.29915099,24.1712 Z" id="Fill-9" fill="#FFFFFF"></path>
                <path d="M18.7133222,26.7928 C18.7133222,24.7688 17.8130048,24.1296 16.7320036,24.1296 C15.5924546,24.1296 14.611101,24.914 14.510678,26.7928 L18.7133222,26.7928 L18.7133222,26.7928 Z M20.8346126,32.49 C19.7338369,33.0672 18.453153,33.4592 16.9921728,33.4592 C13.2703183,33.4592 12.049733,31.0032 12.049733,27.8244 C12.049733,24.0884 14.1512489,22.3328 16.7727156,22.3328 C19.2933716,22.3328 21.0141332,23.718 21.0141332,27.308 C21.0141332,27.5772 20.9947465,28.1116 20.9540345,28.5048 L14.4912913,28.5048 C14.5909388,30.4248 15.312511,31.56 17.2531175,31.56 C18.2329203,31.56 18.9940413,31.3548 20.1933012,30.8376 L20.8346126,32.49 L20.8346126,32.49 Z" id="Fill-10" fill="#FFFFFF"></path>
                <path d="M28.8793088,33.2124 L28.8793088,31.9108 L29.8792737,31.7868 C30.159605,31.7452 30.1999293,31.622 30.1999293,31.3744 L30.1999293,26.5852 C30.1999293,25.3468 30.0599575,24.314 28.7788858,24.314 C27.758371,24.314 26.6979197,24.8916 26.0372217,25.3884 L26.0372217,31.3336 C26.0372217,31.664 26.0577715,31.7056 26.3578773,31.7452 L27.4179409,31.8908 L27.4179409,33.2124 L22.4557266,33.2124 L22.4557266,31.8704 L23.4169182,31.7452 C23.6964741,31.7056 23.7367984,31.6436 23.7367984,31.3336 L23.7367984,24.686 C23.7367984,24.4584 23.6759242,24.314 23.4758537,24.2516 L22.3762413,23.8608 L22.5755363,22.5384 L25.5374331,22.5384 L25.6975671,23.6744 L25.7778279,23.6968 C26.8983779,22.91 28.0790267,22.3328 29.5202324,22.3328 C31.6806838,22.3328 32.5015158,23.7376 32.5015158,26.11 L32.5015158,31.3336 C32.5015158,31.664 32.5205148,31.7056 32.8198451,31.7452 L33.9210084,31.8908 L33.9210084,33.2124 L28.8793088,33.2124" id="Fill-11" fill="#FFFFFF"></path>
                <path d="M37.6219254,20.5164 C36.6611216,20.5164 36.1210087,19.9592 36.1210087,18.9688 C36.1210087,17.9992 36.6611216,17.4608 37.6219254,17.4608 C38.5629548,17.4608 39.1228421,17.9992 39.1228421,18.9688 C39.1228421,19.9592 38.5629548,20.5164 37.6219254,20.5164 L37.6219254,20.5164 Z M35.2005292,33.2124 L35.2005292,31.9108 L36.4021156,31.7452 C36.6816715,31.7056 36.7212203,31.6436 36.7212203,31.3336 L36.7212203,24.686 C36.7212203,24.4584 36.6611216,24.314 36.4610511,24.2516 L35.3610509,23.8608 L35.5611215,22.5384 L39.0216436,22.5384 L39.0216436,31.3336 C39.0216436,31.664 39.042969,31.7056 39.3430747,31.7452 L40.5233357,31.8908 L40.5233357,33.2124 L35.2005292,33.2124 L35.2005292,33.2124 Z" id="Fill-12" fill="#FFFFFF"></path>
                <path d="M49.4695125,33.2124 L49.2892164,31.9524 L49.2295054,31.932 C48.3485747,32.654 47.227637,33.4592 45.4874887,33.4592 C43.3270372,33.4592 42.6058528,32.3236 42.6058528,29.95 L42.6058528,24.5828 C42.6058528,24.2516 42.5864661,24.1908 42.2871358,24.1296 L41.2654578,23.8812 L41.4457539,22.5384 L44.9070515,22.5384 L44.9070515,29.4352 C44.9070515,30.8172 45.1280597,31.56 46.2478342,31.56 C47.4090963,31.56 48.4082857,30.7756 49.0290472,30.114 L49.0290472,24.5828 C49.0290472,24.2516 49.008885,24.1908 48.7087792,24.1296 L47.7479754,23.8812 L47.9282715,22.5384 L51.3298582,22.5384 L51.3298582,31.3336 C51.3298582,31.6008 51.3701825,31.7056 51.5900274,31.7452 L52.6307043,31.8908 L52.6307043,33.2124 L49.4695125,33.2124" id="Fill-13" fill="#FFFFFF"></path>
                <path d="M60.1690205,25.6164 L59.9491756,24.4172 C59.9301766,24.2736 59.8886891,24.1908 59.7297184,24.1296 C59.4687737,24.046 58.9088864,23.9244 58.2885127,23.9244 C57.0082164,23.9244 56.3882304,24.396 56.3882304,25.2244 C56.3882304,26.318 57.5083927,26.5664 58.7685268,26.8744 C60.3500921,27.2664 62.1301769,27.7616 62.1301769,30.114 C62.1301769,32.5508 60.1690205,33.4592 57.8879839,33.4592 C56.16761,33.4592 54.4863972,32.9844 54.1265805,32.7368 L54.1265805,29.9296 L55.7876311,30.0312 L55.9880894,31.2936 C56.0280259,31.458 56.0481881,31.5188 56.2277087,31.5804 C56.4874902,31.664 57.1276383,31.8704 58.027568,31.8704 C59.2687031,31.8704 60.0290487,31.4992 60.0290487,30.4452 C60.0290487,29.2892 58.7491401,29.1048 57.4083574,28.7944 C55.8876664,28.4436 54.2867144,27.9484 54.2867144,25.76 C54.2867144,23.2624 56.3075818,22.3328 58.4691965,22.3328 C59.9491756,22.3328 61.3496692,22.7252 61.8296834,22.9328 L61.8296834,25.7188 L60.1690205,25.6164" id="Fill-14" fill="#FFFFFF"></path>
            </g>
        </g>
    </g>
</svg>