<?xml version="1.0" encoding="UTF-8" standalone="no"?>
<svg width="85px" height="52px" viewBox="0 0 85 52" version="1.1" xmlns="http://www.w3.org/2000/svg" xmlns:xlink="http://www.w3.org/1999/xlink">
    <!-- Generator: Sketch 41.2 (35397) - http://www.bohemiancoding.com/sketch -->
    <title>Group 2</title>
    <desc>Created with Sketch.</desc>
    <defs></defs>
    <g id="Footer-1.3" stroke="none" stroke-width="1" fill="none" fill-rule="evenodd">
        <g id="Footer-Gradient-Copy-8" transform="translate(-36.000000, -36.000000)">
            <g id="Group-18" transform="translate(36.000000, 36.000000)">
                <g id="Group-2">
                    <g id="Group">
                        <g id="Group-3" transform="translate(1.806438, 6.568421)"></g>
                        <path d="M3.16057,18.6937263 C3.90697559,19.2859789 5.42602342,20.4152 7.49711154,20.4152 C10.7311788,20.4152 12.0012463,17.6515368 12.0012463,13.6382316 C12.0012463,9.42951579 10.7574155,7.84816842 8.05022272,7.84816842 C6.08890013,7.84816842 4.12757754,9.08905263 3.16057,10.1624421 L3.16057,18.6937263 L3.16057,18.6937263 Z M1.80643819,6.97128421 L2.99404766,6.97128421 L3.10381319,8.80825263 C4.23627218,7.81915789 6.00697756,6.69048421 8.30027395,6.69048421 C11.2280686,6.69048421 13.4105286,8.52471579 13.4105286,13.7783579 C13.4105286,19.3450947 10.7038713,21.6593684 7.49711154,21.6593684 C5.73068969,21.6593684 4.18219258,20.8416 3.10381319,20.0785684 L3.10381319,27.3098526 L1.80643819,27.3098526 L1.80643819,6.97128421 L1.80643819,6.97128421 Z" id="Fill-1" fill="#FFFFFF"></path>
                        <path d="M26.9529176,14.0038737 C26.9529176,9.48589474 25.2395045,7.96037895 22.3379464,7.96037895 C19.353395,7.96037895 17.2539284,9.85372632 17.2539284,14.0903579 C17.2539284,18.2996211 18.9111202,20.3894737 22.200338,20.3894737 C25.1008251,20.3894737 26.9529176,18.6116211 26.9529176,14.0038737 L26.9529176,14.0038737 Z M15.8997966,14.2025684 C15.8997966,9.54282105 18.2487789,6.69048421 22.447712,6.69048421 C26.6209438,6.69048421 28.388972,9.54282105 28.388972,13.8380211 C28.388972,18.5519579 26.5936363,21.6593684 22.0895015,21.6593684 C17.4204508,21.6593684 15.8997966,18.4118316 15.8997966,14.2025684 L15.8997966,14.2025684 Z" id="Fill-4" fill="#FFFFFF"></path>
                        <polygon id="Fill-5" fill="#FFFFFF" points="31.7991996 21.6144842 33.1522605 21.6144842 33.1522605 0.289557895 31.7991996 0.289557895"></polygon>
                        <path d="M37.7035141,21.6144842 L39.0587168,21.6144842 L39.0587168,7.26522105 L37.7035141,7.26522105 L37.7035141,21.6144842 Z M38.4499197,3.68214737 C37.64997,3.68214737 37.1798522,3.25301053 37.1798522,2.49216842 C37.1798522,1.70067368 37.64997,1.27646316 38.4499197,1.27646316 C39.2520112,1.27646316 39.7210581,1.70067368 39.7210581,2.49216842 C39.7210581,3.25301053 39.2520112,3.68214737 38.4499197,3.68214737 L38.4499197,3.68214737 Z" id="Fill-6" fill="#FFFFFF"></path>
                        <path d="M42.7414842,14.4965053 C42.7414842,9.44101053 45.1729245,6.98551579 49.2626274,6.98551579 C51.9157406,6.98551579 54.0982006,8.53566316 54.2358091,11.6430737 L52.7713763,11.8133053 C52.5229314,9.35671579 51.3626294,8.19684211 49.0966405,8.19684211 C46.7481937,8.19684211 44.1496956,9.55212632 44.1496956,14.2978105 C44.1496956,19.4113263 46.5827422,20.6533053 48.9295828,20.6533053 C51.0863415,20.6533053 52.5780818,19.6390316 52.9652061,17.3767579 L54.3466455,17.6602947 C53.8213772,20.7403368 51.4161736,21.9544 48.9590321,21.9544 C44.3435254,21.9544 42.7414842,18.8469895 42.7414842,14.4965053" id="Fill-7" fill="#FFFFFF"></path>
                        <path d="M56.2801251,7.26522105 L57.7172504,7.26522105 L62.1105487,19.7233263 L62.1378562,19.7233263 L66.641991,7.26522105 L68.0785808,7.26522105 C66.1167228,12.4920421 63.6569041,19.1004211 61.6677385,24.3004211 C60.59043,27.0668211 59.293055,27.9157895 57.496113,27.9157895 C56.500727,27.9157895 55.5899409,27.6048842 55.0919802,27.4034526 L55.368268,26.2468632 C55.7826998,26.4466526 56.7229353,26.7000842 57.5801773,26.7000842 C58.7399438,26.7000842 59.7064159,26.1346526 60.5636579,23.7891789 L61.3636077,21.6144842 L56.2801251,7.26522105" id="Fill-8" fill="#FFFFFF"></path>
                        <path d="M6.97933951,32.8486737 C5.12724701,32.8486737 3.77418608,33.8109474 3.77418608,35.9265263 C3.77418608,37.5396211 4.63089264,38.7520421 6.89634606,38.7520421 C8.80305361,38.7520421 10.074192,37.6239158 10.074192,35.8706947 C10.074192,33.9220632 8.91442546,32.8486737 6.97933951,32.8486737 L6.97933951,32.8486737 Z M4.10455355,45.8432 C3.60766374,46.3796211 3.055088,47.0862737 3.055088,47.8197474 C3.055088,49.1186526 4.52059167,49.5466947 6.92525991,49.5466947 C8.33293588,49.5466947 11.0133565,49.3168 11.0133565,47.5088421 C11.0133565,46.2663158 9.96389101,46.2099368 8.36131429,46.0977263 L4.10455355,45.8432 L4.10455355,45.8432 Z M11.8416847,33.0763789 C12.3947959,33.8109474 12.8927566,34.6850947 12.8927566,35.9850947 C12.8927566,39.2621895 10.3515507,41.0696 7.116948,41.0696 C6.2056264,41.0696 5.32107687,40.9842105 4.79687954,40.8161684 L3.52467029,42.9618526 L6.92525991,43.1309895 C11.8416847,43.3866105 14.1912025,43.6400421 14.1912025,47.0578105 C14.1912025,50.0519158 11.6483903,51.8056842 6.84119558,51.8056842 C1.97724406,51.8056842 0.237058849,50.4744842 0.237058849,48.3288 C0.237058849,46.9718737 0.983999885,46.1541053 1.92262901,45.2498526 C1.01023652,44.8530105 0.65149065,44.1775579 0.65149065,43.4977263 C0.65149065,42.9065684 0.87209259,42.4254316 1.34274576,41.8884632 C1.78502052,41.3799579 2.36436834,40.6754947 2.86125814,40.1385263 C1.59119066,39.4307789 0.707712018,37.9610947 0.707712018,35.9850947 C0.707712018,32.8486737 2.86125814,30.5606737 6.81388806,30.5606737 C7.80766767,30.5606737 8.83089657,30.6739789 9.41131527,30.8420211 L14.4396474,30.8420211 L14.4396474,32.9050526 L11.8416847,33.0763789 L11.8416847,33.0763789 Z" id="Fill-9" fill="#FFFFFF"></path>
                        <path d="M24.8422068,36.6638316 C24.8422068,33.8941474 23.5989114,33.0194526 22.1061002,33.0194526 C20.5324374,33.0194526 19.1772347,34.0928421 19.0385553,36.6638316 L24.8422068,36.6638316 L24.8422068,36.6638316 Z M27.7716078,44.46 C26.2514891,45.2498526 24.4829255,45.7862737 22.4653815,45.7862737 C17.3256776,45.7862737 15.6401074,42.4254316 15.6401074,38.0754947 C15.6401074,32.9630737 18.5422009,30.5606737 22.1623216,30.5606737 C25.6432275,30.5606737 28.0195173,32.4562105 28.0195173,37.3688421 C28.0195173,37.7372211 27.9927452,38.4685053 27.9365238,39.0065684 L19.0117832,39.0065684 C19.1493917,41.6339368 20.1458485,43.1873684 22.8257337,43.1873684 C24.1787947,43.1873684 25.2298665,42.9065684 26.8859874,42.1988211 L27.7716078,44.46 L27.7716078,44.46 Z" id="Fill-10" fill="#FFFFFF"></path>
                        <path d="M38.8809502,45.4485474 L38.8809502,43.6674105 L40.2618541,43.4977263 C40.6489784,43.4408 40.7046643,43.2722105 40.7046643,42.9333895 L40.7046643,36.3797474 C40.7046643,34.6850947 40.5113699,33.2717895 38.7422708,33.2717895 C37.3329885,33.2717895 35.8685557,34.0621895 34.9561633,34.7420211 L34.9561633,42.8775579 C34.9561633,43.3296842 34.9845417,43.3866105 35.3989735,43.4408 L36.8628708,43.6400421 L36.8628708,45.4485474 L30.0102892,45.4485474 L30.0102892,43.6121263 L31.3376489,43.4408 C31.7237023,43.3866105 31.7793882,43.3017684 31.7793882,42.8775579 L31.7793882,33.7808421 C31.7793882,33.4693895 31.6953239,33.2717895 31.419036,33.1864 L29.9005236,32.6516211 L30.1757406,30.8420211 L34.265979,30.8420211 L34.4871164,32.3965474 L34.5979528,32.4272 C36.1453791,31.3505263 37.7757987,30.5606737 39.7660352,30.5606737 C42.7495158,30.5606737 43.8830457,32.4830316 43.8830457,35.7294737 L43.8830457,42.8775579 C43.8830457,43.3296842 43.9092823,43.3866105 44.3226432,43.4408 L45.8432974,43.6400421 L45.8432974,45.4485474 L38.8809502,45.4485474" id="Fill-11" fill="#FFFFFF"></path>
                        <path d="M50.9540875,28.0750737 C49.6272632,28.0750737 48.881393,27.3125895 48.881393,25.9573053 C48.881393,24.6304842 49.6272632,23.8937263 50.9540875,23.8937263 C52.2536042,23.8937263 53.0267819,24.6304842 53.0267819,25.9573053 C53.0267819,27.3125895 52.2536042,28.0750737 50.9540875,28.0750737 L50.9540875,28.0750737 Z M47.6102547,45.4485474 L47.6102547,43.6674105 L49.2695882,43.4408 C49.6556416,43.3866105 49.7102566,43.3017684 49.7102566,42.8775579 L49.7102566,33.7808421 C49.7102566,33.4693895 49.6272632,33.2717895 49.3509753,33.1864 L47.8319275,32.6516211 L48.1082153,30.8420211 L52.8870317,30.8420211 L52.8870317,42.8775579 C52.8870317,43.3296842 52.9164809,43.3866105 53.3309127,43.4408 L54.960797,43.6400421 L54.960797,45.4485474 L47.6102547,45.4485474 L47.6102547,45.4485474 Z" id="Fill-12" fill="#FFFFFF"></path>
                        <path d="M67.3150411,45.4485474 L67.0660607,43.7243368 L66.9836027,43.6964211 C65.7670794,44.6844211 64.2191177,45.7862737 61.8160558,45.7862737 C58.8325752,45.7862737 57.8366538,44.2322947 57.8366538,40.9842105 L57.8366538,33.6396211 C57.8366538,33.1864 57.8098817,33.1032 57.3965208,33.0194526 L55.9856322,32.6795368 L56.2346126,30.8420211 L61.0144997,30.8420211 L61.0144997,40.2797474 C61.0144997,42.1709053 61.3197015,43.1873684 62.8660568,43.1873684 C64.4697044,43.1873684 65.8495374,42.1139789 66.7067794,41.2086316 L66.7067794,33.6396211 C66.7067794,33.1864 66.6789365,33.1032 66.2645047,33.0194526 L64.9376804,32.6795368 L65.1866607,30.8420211 L69.8840899,30.8420211 L69.8840899,42.8775579 C69.8840899,43.2432 69.9397758,43.3866105 70.2433712,43.4408 L71.6804965,43.6400421 L71.6804965,45.4485474 L67.3150411,45.4485474" id="Fill-13" fill="#FFFFFF"></path>
                        <path d="M82.0905521,35.0540211 L81.7869567,33.4130105 C81.7607201,33.2165053 81.7034278,33.1032 81.4838968,33.0194526 C81.1235446,32.9050526 80.3503669,32.7386526 79.4936603,32.7386526 C77.7256322,32.7386526 76.869461,33.384 76.869461,34.5176 C76.869461,36.0141053 78.4163518,36.3540211 80.156537,36.7754947 C82.3406033,37.3119158 84.7988157,37.9895579 84.7988157,41.2086316 C84.7988157,44.5432 82.0905521,45.7862737 78.9405492,45.7862737 C76.5647948,45.7862737 74.24312,45.1365474 73.7462302,44.7977263 L73.7462302,40.9562947 L76.040062,41.0953263 L76.3168853,42.8228211 C76.3720358,43.0477895 76.3998788,43.1309895 76.6477882,43.2152842 C77.0065341,43.3296842 77.8905482,43.6121263 79.1333081,43.6121263 C80.8472567,43.6121263 81.8972577,43.1041684 81.8972577,41.6618526 C81.8972577,40.0799579 80.129765,39.8276211 78.2782079,39.4028632 C76.1782059,38.9228211 73.9673676,38.2451789 73.9673676,35.2505263 C73.9673676,31.8327579 76.7580892,30.5606737 79.7431761,30.5606737 C81.7869567,30.5606737 83.7209718,31.0976421 84.3838485,31.3817263 L84.3838485,35.1941474 L82.0905521,35.0540211" id="Fill-14" fill="#FFFFFF"></path>
                    </g>
                </g>
            </g>
        </g>
    </g>
</svg>