<?xml version="1.0" encoding="UTF-8" standalone="no"?>
<svg width="77px" height="27px" viewBox="0 0 77 27" version="1.1" xmlns="http://www.w3.org/2000/svg" xmlns:xlink="http://www.w3.org/1999/xlink">
    <!-- Generator: Sketch 41 (35326) - http://www.bohemiancoding.com/sketch -->
    <title>protective (1)</title>
    <desc>Created with Sketch.</desc>
    <defs></defs>
    <g id="Page-1" stroke="none" stroke-width="1" fill="none" fill-rule="evenodd">
        <g id="protective-(1)" fill="#999999">
            <g id="Page-1">
                <g id="Group">
                    <path d="M51.69,12.64 C51.56,12.13 51.51,11.77 51.39,11.44 C50.0301785,7.38458724 46.8225026,4.21774987 42.75,2.91 C42.2122874,2.76522183 41.7592815,2.40281704 41.5,1.91 C40.9157906,0.808036708 39.7794468,0.110048395 38.5324099,0.0871860515 C37.285373,0.064323708 36.1242086,0.720191038 35.5,1.8 C35.1707317,2.37614354 34.6343697,2.80523318 34,3 C30.0159154,4.33516466 26.890446,7.46433715 25.56,11.45 C25.43,11.81 25.36,12.19 25.24,12.65 L27.9,12.65 C28.9765685,9.10162448 31.7832246,6.34394361 35.35,5.33 C37.54,7.56 38.89,7.56 41.69,5.33 C45.21253,6.39143302 47.9802905,9.12923132 49.08,12.64 L51.69,12.64 Z" id="Shape"></path>
                    <path d="M47.47,20.29 C47.4820908,19.3310179 47.0127134,18.4298133 46.22,17.89 C45.0399578,17.0597195 43.5278258,16.8607572 42.1731736,17.3575295 C40.8185213,17.8543019 39.7935106,18.9836743 39.43,20.38 C38.67,23.76 40.31,26.81 44.43,26.29 C46.194801,26.1015853 47.5086984,24.5730847 47.43,22.8 C47.18,22.8 46.93,22.75 46.68,22.75 L45.68,22.75 C45.6,22.95 45.54,23.11 45.47,23.28 C44.99,24.34 44.47,24.73 43.47,24.69 C42.5033119,24.6894422 41.6845389,23.9772802 41.55,23.02 C41.4058435,22.192901 41.4058435,21.347099 41.55,20.52 C41.7266711,19.6158653 42.4694893,18.9308647 43.3849485,18.8278755 C44.3004077,18.7248863 45.1768572,19.2277194 45.55,20.07 C45.5968539,20.138562 45.654225,20.1993079 45.72,20.25 L47.47,20.29 Z" id="Shape"></path>
                    <polygon id="Shape" points="66 17.45 63.54 23.62 63.3 23.62 60.78 17.51 58.58 17.51 62.21 26.09 64.52 26.09 68.1 17.49"></polygon>
                    <path d="M48.07,17.45 L48.07,18.88 L49.44,19.07 L49.44,20.32 L49.44,24.32 C49.351442,25.0449397 49.7619396,25.7386806 50.44,26.01 C51.2870796,26.350411 52.2329204,26.350411 53.08,26.01 L53.08,24.67 L51.55,24.4 L51.55,19 L53.1,18.82 L53.1,17.47 L51.51,17.32 L51.4,14.84 L49.49,14.84 L49.37,17.34 L48.07,17.45 Z" id="Shape"></path>
                    <path d="M24.11,17.45 L24.11,18.88 L25.55,19.07 L25.55,23.94 C25.55,25.55 26.11,26.19 27.8,26.2 C28.27,26.2 28.73,26.12 29.29,26.07 L29.23,24.66 L27.64,24.42 L27.64,19 L29.21,18.83 L29.21,17.47 L27.61,17.33 L27.45,14.86 L25.59,14.86 L25.59,17.36 L24.11,17.45 Z" id="Shape"></path>
                    <path d="M14.75,19.06 L14.75,17.29 C13.44,16.9 12.59,17.63 11.75,18.38 L11.53,17.48 L9.74,17.48 L9.74,26 L11.74,26 L11.74,22.19 C11.72,20 12.51,19.16 14.75,19.06 Z" id="Shape"></path>
                    <polygon id="Shape" points="55.34 17.46 55.34 26 57.23 26 57.23 17.46"></polygon>
                    <polygon id="Shape" points="57.26 14.21 55.34 14.21 55.34 15.93 57.26 15.93"></polygon>
                    <path d="M51.69,12.64 L49.08,12.64 C47.9802905,9.12923132 45.21253,6.39143302 41.69,5.33 C38.89,7.54 37.54,7.55 35.35,5.33 C31.7832246,6.34394361 28.9765685,9.10162448 27.9,12.65 L25.24,12.65 C25.36,12.2 25.43,11.81 25.56,11.45 C26.890446,7.46433715 30.0159154,4.33516466 34,3 C34.6261156,2.81753215 35.1612355,2.4072736 35.5,1.85 C36.1242086,0.770191038 37.285373,0.114323708 38.5324099,0.137186051 C39.7794468,0.160048395 40.9157906,0.858036708 41.5,1.96 C41.7592815,2.45281704 42.2122874,2.81522183 42.75,2.96 C46.8225026,4.26774987 50.0301785,7.43458724 51.39,11.49 C51.51,11.77 51.57,12.13 51.69,12.64 Z" id="Shape"></path>
                    <path d="M2.23,21.64 L2.23,26 L0.1,26 L0.1,14.22 C1.91859637,14.1189138 3.74140363,14.1189138 5.56,14.22 C6.45883764,14.2971245 7.2872526,14.7377836 7.85357344,15.4400214 C8.41989429,16.1422593 8.67504824,17.0452256 8.56,17.94 C8.6090952,18.8271566 8.30374251,19.6974782 7.71112149,20.3594884 C7.11850046,21.0214986 6.28715989,21.4209641 5.4,21.47 C4.4,21.6 3.37,21.59 2.23,21.64 Z M2.3,19.79 L3.96,19.79 C4.25351178,19.7748049 4.54486708,19.7312691 4.83,19.66 C5.74847954,19.5212071 6.40340415,18.6960021 6.33,17.77 C6.35451962,17.3242748 6.2006373,16.8871173 5.90232313,16.5550318 C5.60400896,16.2229462 5.18579375,16.0232403 4.74,16 C3.92392983,15.9558577 3.10607017,15.9558577 2.29,16 L2.3,19.79 Z" id="Shape"></path>
                    <path d="M36.5,23.38 L38.21,23.38 C38.1274438,24.4388944 37.4764336,25.369456 36.51,25.81 C34.9988858,26.6918888 33.1102758,26.6017684 31.69,25.58 C30.06,24.42 29.79,22.65 30.09,20.82 C30.2535188,19.1032461 31.4989002,17.6845593 33.18,17.3 C34.5962167,16.938286 36.0985711,17.3407438 37.1443167,18.3619797 C38.1900623,19.3832156 38.6280308,20.8756045 38.3,22.3 L32.1,22.3 C32.2,23.65 32.67,24.35 33.58,24.64 C34.68,25 35.51,24.63 36.5,23.38 Z M36.3,20.9 C36.04,19.45 35.23,18.7 34.11,18.78 C32.9769208,18.8233859 32.0873637,19.7663164 32.11,20.9 L36.3,20.9 Z" id="Shape"></path>
                    <path d="M76.81,22.31 L70.61,22.31 C70.61,23.59 71.1,24.31 72.02,24.63 C73.16,24.99 74.02,24.63 74.94,23.39 L76.89,23.39 C76.6112497,23.9838953 76.2763949,24.5497998 75.89,25.08 C74.6834136,26.350288 72.8197925,26.7476486 71.2,26.08 C69.6707344,25.6037065 68.611082,24.2109058 68.56,22.61 C68.4701751,21.8786477 68.5108046,21.1371594 68.68,20.42 C68.9031687,19.3405045 69.548621,18.3950195 70.4726846,17.7940026 C71.3967482,17.1929856 72.5227316,16.9863172 73.6,17.22 C75.8700771,17.7698843 77.2919722,20.0245404 76.81,22.31 L76.81,22.31 Z M70.55,20.94 L74.78,20.94 C74.51,19.49 73.78,18.77 72.69,18.78 C71.6,18.79 70.87,19.5 70.55,20.94 L70.55,20.94 Z" id="Shape"></path>
                    <path d="M23.91,21.74 C23.91,24.56 22.25,26.32 19.55,26.34 C18.3132596,26.4481773 17.0920227,26.0036704 16.2141761,25.1258239 C15.3363296,24.2479773 14.8918227,23.0267404 15,21.79 C14.8896544,20.5773085 15.3072736,19.3758862 16.1460151,18.4931011 C16.9847566,17.6103161 18.1632525,17.1318091 19.38,17.18 C22.18,17.16 23.89,18.89 23.91,21.74 Z M21.98,21.74 C21.8395818,21.1023364 21.6386724,20.4795171 21.38,19.88 C21.1117165,19.3524866 20.636958,18.9596267 20.0685605,18.7947914 C19.5001629,18.6299562 18.8888817,18.7078645 18.38,19.01 C17.4708845,19.5540479 16.9450516,20.5631832 17.02,21.62 C16.8921269,22.7081608 17.3820553,23.7767448 18.29,24.39 C18.5778578,24.5538498 18.8994037,24.6496294 19.23,24.67 C20.79,24.84 21.85,23.64 22,21.78 L21.98,21.74 Z" id="Shape"></path>
                    <path d="M47.47,20.29 L45.68,20.29 C45.614225,20.2393079 45.5568539,20.178562 45.51,20.11 C45.1368572,19.2677194 44.2604077,18.7648863 43.3449485,18.8678755 C42.4294893,18.9708647 41.6866711,19.6558653 41.51,20.56 C41.3658435,21.387099 41.3658435,22.232901 41.51,23.06 C41.6445389,24.0172802 42.4633119,24.7294422 43.43,24.73 C44.43,24.73 44.96,24.38 45.43,23.32 C45.5,23.16 45.56,22.99 45.64,22.79 L46.64,22.79 C46.96,22.79 47.14,22.79 47.39,22.84 C47.4686984,24.6130847 46.154801,26.1415853 44.39,26.33 C40.3,26.85 38.65,23.8 39.39,20.42 C39.7535106,19.0236743 40.7785213,17.8943019 42.1331736,17.3975295 C43.4878258,16.9007572 44.9999578,17.0997195 46.18,17.93 C46.9761423,18.4527916 47.4597923,19.3376086 47.47,20.29 L47.47,20.29 Z" id="Shape"></path>
                    <polygon id="Shape" points="66 17.45 68.1 17.45 64.52 26.05 62.21 26.05 58.58 17.47 60.78 17.47 63.3 23.58 63.54 23.58"></polygon>
                    <path d="M48.07,17.45 L49.38,17.34 L49.5,14.84 L51.43,14.84 L51.54,17.32 L53.13,17.47 L53.13,18.86 L51.57,19 L51.57,24.4 L53.1,24.67 L53.1,26 C52.2529204,26.340411 51.3070796,26.340411 50.46,26 C49.7819396,25.7286806 49.371442,25.0349397 49.46,24.31 L49.46,20.31 L49.46,19.06 L48.09,18.87 L48.07,17.45 Z" id="Shape"></path>
                    <path d="M24.11,17.45 L25.59,17.35 L25.59,14.85 L27.45,14.85 L27.61,17.32 L29.21,17.46 L29.21,18.87 L27.63,19 L27.63,24.37 L29.22,24.61 L29.28,26.02 C28.72,26.07 28.28,26.16 27.79,26.15 C26.1,26.15 25.55,25.58 25.54,23.89 C25.53,22.2 25.54,20.67 25.54,19.02 L24.1,18.83 L24.11,17.45 Z" id="Shape"></path>
                    <path d="M14.75,19.06 C12.51,19.16 11.75,19.98 11.75,22.21 L11.75,26.02 L9.75,26.02 L9.75,17.48 L11.5,17.48 L11.72,18.38 C12.59,17.63 13.44,16.9 14.72,17.29 L14.75,19.06 Z" id="Shape"></path>
                    <polygon id="Shape" points="55.34 17.46 57.23 17.46 57.23 26 55.34 26"></polygon>
                    <polygon id="Shape" points="57.26 14.21 57.26 15.93 55.34 15.93 55.34 14.21"></polygon>
                </g>
            </g>
        </g>
    </g>
</svg>