<?xml version="1.0" encoding="UTF-8" standalone="no"?>
<svg width="75px" height="14px" viewBox="0 0 75 14" version="1.1" xmlns="http://www.w3.org/2000/svg" xmlns:xlink="http://www.w3.org/1999/xlink">
    <!-- Generator: Sketch 41 (35326) - http://www.bohemiancoding.com/sketch -->
    <title>prudential (1)</title>
    <desc>Created with Sketch.</desc>
    <defs></defs>
    <g id="Page-1" stroke="none" stroke-width="1" fill="none" fill-rule="evenodd">
        <g id="prudential-(1)" transform="translate(0.000000, -1.000000)" fill="#999999">
            <g id="Page-1">
                <path d="M14.56,5.84 C13.22,5.37 12.07,5.4 10.92,4.93 C10.3680334,4.65322726 9.83368338,4.34263629 9.32,4 C8.5736504,3.42622299 7.67808334,3.07910397 6.74,3 C6.34,3.86 7.19,4.12 7.42,4.59 C7.09223756,4.51545266 6.75544549,4.48850929 6.42,4.51 C6.71,4.86 6.92,5.44 7.42,5.65 C7.81886689,5.73109644 8.22340474,5.78124576 8.63,5.8 C9,5.86 9.35,5.97 9.69,6.03 C10.91,6.23 12.03,6.22 12.69,6.79 C12.26,7.1 11.31,6.87 10.69,7.02 C10.3515937,8.0391969 10.0744324,9.07771681 9.86,10.13 C9.37620628,10.4968649 8.86840521,10.8309446 8.34,11.13 C7.48,11.71 6.98,12.4 5.15,12.13 C5.15,11.62 5.49,11.46 5.53,10.99 C4.93,11.1 4.46,11.99 3.63,12.13 C3.87,10.91 5.85,9.98 5.15,7.88 C4.78,8.14 4.86,8.65 4.77,9.02 C4.68383405,9.48694509 4.55667527,9.94538596 4.39,10.39 C4.21,10.75 3.8,11.01 3.56,11.3 C3.32,11.59 3.14,12.04 2.73,12.13 C2.67,11.65 3.19,11.41 3.41,10.99 C3.96,9.99 4.09,8.5 4.55,7.35 C4.06,7.54 4.05,8.21 3.87,8.72 C3.68392294,8.86214243 3.50691125,9.01577522 3.34,9.18 C3.01630214,10.1385346 2.6356239,11.0768731 2.2,11.99 C1.3457097,11.0248404 0.860412702,9.78857287 0.83,8.5 C0.672496599,6.43802215 1.43479647,4.41192392 2.91243314,2.96515172 C4.39006982,1.51837951 6.43180571,0.799011933 8.49,1 C10.2463872,1.15743135 11.8885848,1.93774121 13.12,3.2 C13.8192874,3.94914083 14.3150406,4.8649072 14.56,5.86 M8.72,1.44 C6.97643984,1.19320966 5.20678939,1.65667431 3.80802676,2.72642691 C2.40926414,3.79617951 1.49848481,5.38266721 1.28,7.13 C1.09472455,8.51343389 1.41809637,9.91708079 2.19,11.08 C2.83,9.59 3.35,8 3.94,6.45 C4.05,6.26 4.46,6.36 4.47,6.07 C4.8134693,5.50503125 5.06968902,4.89145244 5.23,4.25 C6,4 6.06,3.06 6.59,2.58 C7.28723125,2.66470641 7.96417514,2.8711743 8.59,3.19 C9.23416715,3.62940265 9.90182586,4.03333618 10.59,4.4 C11.1126363,4.55570696 11.6434371,4.68256502 12.18,4.78 C12.6989207,4.94921146 13.2306449,5.0762902 13.77,5.16 C12.9019221,3.08325674 10.9607404,1.65331698 8.72,1.44" id="Shape"></path>
                <path d="M11.3,7.21 C11.6957032,7.32111034 12.0779978,7.47536957 12.44,7.67 C12.11,8.3 12.01,9.16 11.23,9.34 C11.1614713,8.63294344 11.1883793,7.91988111 11.31,7.22" id="Shape"></path>
                <path d="M12.74,7.82 C13.0557788,7.87731183 13.3620482,7.97827975 13.65,8.12 C13.54,8.75 13.19,9.12 13.04,9.71 C12.16,10.22 11.8,11.25 11.22,12.06 L10.46,12.06 C10.7268818,11.2902607 11.231062,10.625023 11.9,10.16 C12.1173531,9.35696388 12.3948025,8.57141449 12.73,7.81" id="Shape"></path>
                <path d="M14.94,8.58 C14.8468563,9.85512762 14.3691646,11.072021 13.57,12.07 L12.13,12.07 C12.28,11.18 13.19,10.57 13.57,9.64 C13.6884654,9.17589682 13.8320095,8.71855879 14,8.27 C14.3514891,8.29442416 14.6931105,8.39691057 15,8.57" id="Shape"></path>
                <path d="M10.92,9.94 C10.99,10.72 10.28,11.37 10.01,12.06 L9.1,12.06 C9.51,11.23 10.26,10.74 10.69,9.94 L10.92,9.94 Z" id="Shape"></path>
                <path d="M2.65,12.37 L13.12,12.37 C13.19,12.77 12.71,13.05 12.44,13.28 C11.4187952,14.12811 10.1835401,14.6782656 8.87,14.87 C6.57147376,15.1704247 4.27213854,14.321727 2.72,12.6 C2.72,12.54 2.48,12.54 2.64,12.37" id="Shape"></path>
                <path d="M17.69,11.38 L17.69,4.63 C17.7055061,4.42643912 17.6326387,4.22605366 17.49,4.08 C17.3162172,3.94605106 17.098663,3.88185473 16.88,3.9 L16.7,3.9 L16.7,3.31 L21.11,3.31 C21.9155029,3.26185764 22.7112004,3.50696088 23.35,4 C23.9012379,4.47333904 24.2037176,5.1742065 24.17,5.9 C24.2196345,6.61859442 23.9222217,7.31751457 23.37,7.78 C22.6732044,8.25106618 21.8392019,8.47628206 21,8.42 L20.5,8.42 L20.02,8.42 L20.02,11.42 C20.0044939,11.6235609 20.0773613,11.8239463 20.22,11.97 C20.3937828,12.1039489 20.611337,12.1681453 20.83,12.15 L21,12.15 L21,12.74 L16.7,12.74 L16.7,12.1 L16.88,12.1 C17.098663,12.1181453 17.3162172,12.0539489 17.49,11.92 C17.6326387,11.7739463 17.7055061,11.5735609 17.69,11.37 M20,4.77 L20,7.87 L20.25,7.87 C20.6939428,7.91188104 21.1315327,7.74129517 21.43,7.41 C21.709825,6.95871212 21.8361151,6.42899544 21.79,5.9 C21.8185563,5.38799683 21.7224753,4.87670863 21.51,4.41 C21.3641488,4.09518446 21.0469305,3.89545441 20.7,3.9 C20.5001905,3.88310584 20.3040131,3.9608365 20.17,4.11 C20.0400658,4.30057682 19.9800075,4.53021158 20,4.76" id="Shape"></path>
                <path d="M24.37,6.1 L24.81,6.1 C25.098931,6.0904014 25.3865755,6.05695436 25.67,6 C25.9685524,5.94939652 26.262758,5.87584513 26.55,5.78 L26.55,7.27 L26.67,7.32 C26.8156283,6.90378665 27.0512185,6.52479375 27.36,6.21 C27.6000196,5.96506146 27.9271,5.82488416 28.27,5.82 C28.559097,5.80392434 28.839471,5.92197655 29.03,6.14 C29.2248678,6.39798967 29.3206751,6.71734747 29.3,7.04 C29.3074522,7.28835194 29.2298322,7.5317967 29.08,7.73 C28.9531277,7.90724261 28.7479649,8.01168914 28.53,8.01 C28.3383162,8.02140134 28.1492892,7.96077004 28,7.84 C27.8652784,7.70934812 27.7925478,7.52752141 27.8,7.34 C27.7882874,7.24703413 27.7882874,7.15296587 27.8,7.06 C27.8064047,6.9901465 27.8064047,6.9198535 27.8,6.85 C27.8131548,6.80086524 27.8131548,6.74913476 27.8,6.7 C27.7716952,6.68573714 27.7383048,6.68573714 27.71,6.7 C27.51,6.7 27.31,6.9 27.11,7.3 C26.9030865,7.70905801 26.7968079,8.16159902 26.8,8.62 L26.8,11.49 C26.7922125,11.6805222 26.8647765,11.8655605 27,12 C27.1583605,12.1181666 27.3525812,12.1781984 27.55,12.17 L27.55,12.74 L24.33,12.74 L24.33,12.17 L24.45,12.17 C24.6363078,12.2009192 24.8261581,12.1407811 24.960685,12.0082326 C25.0952119,11.875684 25.1581558,11.6867454 25.13,11.5 L25.13,7.53 C25.169014,7.29508487 25.1229162,7.05395787 25,6.85 C24.8280069,6.72008817 24.6151017,6.65621661 24.4,6.67 L24.37,6.1 Z" id="Shape"></path>
                <path d="M33.75,7.25 C33.7698879,7.06808783 33.7275911,6.88480164 33.63,6.73 C33.495149,6.61833395 33.3250728,6.55809862 33.15,6.56 L33.15,6 L33.63,6 C33.9098222,6.01410967 34.1901778,6.01410967 34.47,6 C34.7833333,6 35.1166667,5.95 35.47,5.85 L35.47,11.18 C35.4420526,11.4202725 35.4948228,11.6630155 35.62,11.87 C35.7923957,11.9991157 36.0050005,12.0628971 36.22,12.05 L36.22,12.63 L35.75,12.63 C35.4154044,12.6288788 35.0811763,12.6522748 34.75,12.7 C34.4450526,12.7420378 34.1440507,12.8089271 33.85,12.9 L33.85,11.44 L33.72,11.44 C33.5993661,11.8510918 33.3633713,12.2189661 33.04,12.5 C32.7455757,12.7450482 32.3730067,12.8763344 31.99,12.87 C31.5000083,12.8992359 31.0288742,12.6768606 30.74,12.28 C30.4227075,11.7573684 30.2726766,11.1502666 30.31,10.54 L30.31,7.25 C30.3276431,7.06373058 30.2818324,6.87696411 30.18,6.72 C30.0683741,6.60417619 29.910187,6.54531587 29.75,6.56 L29.7,6.56 L29.7,6 L30.16,6 C30.4398269,6.01392577 30.7201731,6.01392577 31,6 C31.3266667,6 31.66,5.95333333 32,5.86 L32,10.86 C31.9860637,11.1031944 32.0490403,11.3446046 32.18,11.55 C32.2928625,11.713453 32.4815201,11.8077818 32.68,11.8 C32.9466667,11.8 33.18,11.62 33.38,11.26 C33.5919347,10.8707963 33.6987792,10.4330787 33.69,9.99 L33.75,7.25 Z" id="Shape"></path>
                <path d="M40.79,11.71 L40.67,11.63 C40.5301298,11.9900152 40.3074546,12.3120378 40.02,12.57 C39.7675338,12.7709822 39.4526176,12.8771337 39.13,12.87 C38.4762552,12.8469538 37.8899443,12.4612229 37.61,11.87 C37.1809231,11.0976175 36.9700601,10.2230545 37,9.34 C36.9686929,8.44720779 37.1980275,7.5646172 37.66,6.8 C37.9733347,6.21123826 38.573783,5.83120771 39.24,5.8 C39.5083172,5.78250246 39.7750517,5.85269574 40,6 C40.2532705,6.202285 40.4582447,6.45850282 40.6,6.75 L40.6,4.33 C40.6169304,4.14192422 40.5512334,3.95578266 40.42,3.82 C40.2557136,3.69925943 40.0531212,3.64239137 39.85,3.66 L39.72,3.66 L39.72,3.11 L39.93,3.11 L41.12,3.11 C41.52,3.11 41.92,3.06333333 42.32,2.97 L42.32,11.43 C42.3041241,11.6128104 42.3576783,11.7948947 42.47,11.94 C42.6285953,12.0388547 42.8233194,12.0608989 43,12 L43.12,12 L43.12,12.64 L41.8,12.64 C41.4635528,12.6607859 41.1292202,12.7075925 40.8,12.78 L40.79,11.71 Z M40.67,9.46 C40.7010535,8.73066406 40.6132397,8.00113398 40.41,7.3 C40.2366667,6.81333333 39.9766667,6.57 39.63,6.57 C39.2833333,6.57 39.0733333,6.78 39,7.2 C38.8493308,7.94335317 38.7888941,8.70216917 38.82,9.46 C38.7862347,10.1682022 38.8467648,10.8777504 39,11.57 C39.12,11.9433333 39.3366667,12.13 39.65,12.13 C39.9633333,12.13 40.2133333,11.8933333 40.4,11.42 C40.6072049,10.7744644 40.6986125,10.0973709 40.67,9.42 L40.67,9.46 Z" id="Shape"></path>
                <path d="M45.37,9.29 L45.37,9.53 L45.37,9.92 C45.3278417,10.5245177 45.4271339,11.1305428 45.66,11.69 C45.8487179,12.0603292 46.2468355,12.2753127 46.66,12.23 C47.0028968,12.2298739 47.3324955,12.0973179 47.58,11.86 C47.8982595,11.5393259 48.1438139,11.1539421 48.3,10.73 L48.73,10.91 C48.5261877,11.4851769 48.1825432,12.0006436 47.73,12.41 C47.3217232,12.7349909 46.8116159,12.9050266 46.29,12.89 C45.5144379,12.9004475 44.7840952,12.5259129 44.34,11.89 C43.8123709,11.147546 43.5483538,10.249888 43.59,9.34 C43.556604,8.43734155 43.8200574,7.54862527 44.34,6.81 C44.7647013,6.22894141 45.4378655,5.88135221 46.1575208,5.87152085 C46.877176,5.8616895 47.5595842,6.19075994 48,6.76 C48.5082431,7.50327836 48.7641586,8.39021836 48.73,9.29 L45.37,9.29 Z M47,8.7 L47,8.64 L47,7.96 C47.0293741,7.53528136 46.9680147,7.10917465 46.82,6.71 C46.7067656,6.48013679 46.4655902,6.34175745 46.21,6.36 C45.9010166,6.35451204 45.6283624,6.56106824 45.55,6.86 C45.3920144,7.46324605 45.3279291,8.08723464 45.36,8.71 L47,8.7 Z" id="Shape"></path>
                <path d="M52,11.45 C51.9838885,11.6284972 52.0259866,11.8074145 52.12,11.96 C52.2259858,12.0728093 52.3752851,12.1347139 52.53,12.13 L52.53,12.7 L49.53,12.7 L49.53,12.13 L49.62,12.13 C49.804592,12.1473523 49.9884006,12.0896868 50.13,11.97 C50.2477307,11.8273322 50.3051364,11.6443516 50.29,11.46 L50.29,7.53 C50.3180033,7.29290905 50.26515,7.05330713 50.14,6.85 C49.9641391,6.72017671 49.7481685,6.6564477 49.53,6.67 L49.53,6.1 L50,6.1 C50.3346112,6.10159616 50.6688743,6.07819774 51,6.03 C51.3054047,5.98560815 51.6064869,5.91535564 51.9,5.82 L51.9,7.26 L52,7.26 C52.1603284,6.87068702 52.4145602,6.52713051 52.74,6.26 C53.0285652,6.04527602 53.3803851,5.93269366 53.74,5.94 C54.2208597,5.91716572 54.6817009,6.13447293 54.97,6.52 C55.2884501,7.00173804 55.4427778,7.57345198 55.41,8.15 L55.41,11.44 C55.393774,11.6244715 55.4513065,11.8078562 55.57,11.95 C55.7115994,12.0696868 55.895408,12.1273523 56.08,12.11 L56.17,12.11 L56.17,12.68 L53.17,12.68 L53.17,12.11 C53.3247149,12.1147139 53.4740142,12.0528093 53.58,11.94 C53.6740134,11.7874145 53.7161115,11.6084972 53.7,11.43 L53.7,7.85 C53.7153293,7.60666932 53.6522418,7.36483388 53.52,7.16 C53.4048604,7.00033397 53.2165953,6.90996675 53.02,6.92 C52.7533333,6.92 52.52,7.1 52.32,7.46 C52.1016235,7.85432865 51.9912364,8.29932651 52,8.75 L52,11.45 Z" id="Shape"></path>
                <path d="M58.91,10.93 C58.8953664,11.1366445 58.9225759,11.3441172 58.99,11.54 C59.0361792,11.652924 59.1480958,11.7248705 59.27,11.72 C59.4629967,11.7174405 59.6306414,11.5865958 59.68,11.4 C59.8023557,10.9702578 59.8695616,10.5266994 59.88,10.08 L60.31,10.08 C60.3258353,10.8066193 60.1681391,11.526537 59.85,12.18 C59.6174775,12.6182136 59.1558279,12.8858927 58.66,12.87 C58.2420789,12.8941322 57.8363299,12.7244553 57.56,12.41 C57.2837428,12.0313516 57.1492496,11.567704 57.18,11.1 L57.18,6.54 L56.58,6.54 L56.58,6.14 C57.0314251,5.87224899 57.4201686,5.51078571 57.72,5.08 C58.0433751,4.57026857 58.27677,4.00876766 58.41,3.42 L58.9,3.42 L58.9,6 L60.22,6 L60.22,6.54 L58.91,6.54 L58.91,10.93 Z" id="Shape"></path>
                <path d="M63.42,11.45 C63.4019027,11.6316205 63.4598246,11.8126267 63.58,11.95 C63.7418055,12.0688953 63.9394053,12.1288809 64.14,12.12 L64.14,12.69 L60.89,12.69 L60.89,12.12 L61,12.12 C61.1875882,12.1367283 61.3742635,12.0792897 61.52,11.96 C61.6443121,11.8205667 61.7057897,11.6361339 61.69,11.45 L61.69,7.53 C61.7230829,7.29268271 61.6698534,7.05137547 61.54,6.85 C61.3668326,6.72242183 61.1547975,6.65881129 60.94,6.67 L60.94,6.1 L61.43,6.1 C61.7354181,6.08962119 62.0396164,6.0561928 62.34,6 C62.66,5.95333333 63.02,5.88 63.42,5.78 L63.42,11.45 Z M61.49,3.88 C61.4819222,3.62081805 61.583597,3.37026218 61.77,3.19 C61.9594488,3.01256246 62.2104681,2.91574075 62.47,2.92 C62.7398106,2.90772423 63.0031136,3.00511026 63.2,3.19 C63.3890439,3.37262156 63.4909479,3.62738171 63.48,3.89 C63.4937056,4.14922418 63.3996034,4.40257627 63.22,4.59 C63.0199113,4.76763871 62.7569799,4.8576837 62.49,4.84 C62.2216121,4.85496968 61.9584986,4.76125803 61.76,4.58 C61.5746239,4.39563147 61.4764468,4.14109839 61.49,3.88 L61.49,3.88 Z" id="Shape"></path>
                <path d="M69.74,8.1 L69.74,11.55 C69.7182221,11.6690119 69.7182221,11.7909881 69.74,11.91 C69.7577547,11.9789038 69.8188794,12.0278035 69.89,12.03 C69.9592967,12.0265847 70.0272486,12.0095967 70.09,11.98 C70.1465662,11.9528069 70.2075128,11.9358773 70.27,11.93 C70.3084852,11.914432 70.3515148,11.914432 70.39,11.93 C70.4052857,11.9719853 70.4052857,12.0180147 70.39,12.06 C70.39,12.2133333 70.2566667,12.3766667 69.99,12.55 C69.7383808,12.7183291 69.4427299,12.8087635 69.14,12.81 C68.8879632,12.8198824 68.6415015,12.7341566 68.45,12.57 C68.245201,12.332551 68.1041173,12.0469424 68.04,11.74 C67.746606,12.0700766 67.4102757,12.3593207 67.04,12.6 C66.7752146,12.7638448 66.4713132,12.8536339 66.16,12.86 C65.7728277,12.8726934 65.4022984,12.7022499 65.16,12.4 C64.896826,12.0644846 64.7620725,11.6460396 64.78,11.22 C64.7559744,10.5818929 65.0524204,9.97399098 65.57,9.6 C66.2992414,9.14174878 67.1389499,8.88949068 68,8.87 L68,7.39 C68.0153924,7.10701866 67.9099914,6.83079544 67.71,6.63 C67.4923788,6.4396833 67.2085823,6.34268957 66.92,6.36 C66.7888572,6.35698741 66.6587967,6.38436858 66.54,6.44 C66.44,6.49 66.39,6.55 66.39,6.62 C66.4160803,6.74244476 66.4671449,6.8581912 66.54,6.96 C66.6318577,7.10008842 66.6837227,7.2625987 66.69,7.43 C66.7001562,7.6544162 66.6210603,7.87372745 66.47,8.04 C66.3177807,8.1950712 66.107126,8.2786067 65.89,8.27 C65.6724231,8.26795544 65.4670997,8.1689602 65.33,8 C65.1816136,7.82088337 65.1065799,7.5922094 65.12,7.36 C65.1161568,6.90070281 65.3410822,6.46959577 65.72,6.21 C66.173034,5.89344483 66.7178813,5.73526335 67.27,5.76 C67.9363528,5.71299182 68.5952338,5.92426347 69.11,6.35 C69.5539478,6.80426594 69.7831146,7.42629002 69.74,8.06 L69.74,8.1 Z M68,9.42 C67.591376,9.43919948 67.2008018,9.59402171 66.89,9.86 C66.6304534,10.1257913 66.4959617,10.4892823 66.52,10.86 C66.5025222,11.1040536 66.5582298,11.3477745 66.68,11.56 C66.7861102,11.7194696 66.9687582,11.8107936 67.16,11.8 C67.444492,11.8123296 67.7038871,11.6380486 67.8,11.37 C67.9632328,10.863549 68.031048,10.3312001 68,9.8 L68,9.42 Z" id="Shape"></path>
                <path d="M73.53,11.45 C73.5116946,11.6382457 73.5775895,11.8249481 73.71,11.96 C73.8867661,12.0791741 74.0969921,12.1387381 74.31,12.13 L74.31,12.7 L71,12.7 L71,12.13 L71.13,12.13 C71.3269903,12.1483491 71.5235929,12.0911556 71.68,11.97 C71.8053737,11.8311838 71.8670093,11.6462772 71.85,11.46 L71.85,4.61 C71.8830829,4.37268271 71.8298534,4.13137547 71.7,3.93 C71.5235761,3.80213204 71.3071284,3.74181053 71.09,3.76 L71.09,3.18 L71.58,3.18 C71.8779545,3.17787741 72.1753773,3.15448461 72.47,3.11 C72.79,3.06333333 73.15,2.99333333 73.55,2.9 L73.53,11.45 Z" id="Shape"></path>
            </g>
        </g>
    </g>
</svg>