<svg width="21" height="22" viewBox="0 0 21 22" xmlns="http://www.w3.org/2000/svg"><title>Page 1 Copy 12</title><desc>Created with Sketch.</desc><g fill="#4D4D4D"><path d="M7.062 9.669c1.299 1.301 3.188 1.625 4.732.975l.363.246.682-.095-.634.837.78.782 1.445-.098-.277 1.098.671.695 1.186-.053-.219.916.851.853.924-.394.496.397-.242.548.058.042 2.898.172.221-1.049-7.066-7.182c.668-1.543.34-3.29-.958-4.59-1.686-1.689-4.378-1.732-6.006-.106-1.638 1.634-1.59 4.316.096 6.004zm.747-3.343c-.538-.538-.544-1.386-.024-1.904.524-.521 1.37-.514 1.906.025.538.539.552 1.393.032 1.915-.521.52-1.378.505-1.913-.036zM6.323 10.406c-1.008-1.008-1.576-2.338-1.599-3.742-.008-.446.06-.878.159-1.299-.887 1.079-1.233 2.582-.764 4.048.557 1.751 2.089 2.904 3.759 3.035l.209.383.65.23-.945.454.334 1.051 1.329.574-.749.85.278.924 1.078.497-.616.715.367 1.149 1.004.074.259.581-.467.375.032.063 2.497 1.483.678-.83-2.821-9.078c-.271.043-.546.068-.826.068-1.445 0-2.811-.571-3.844-1.606zM4.693.101c-2.522 0-4.574 2.052-4.574 4.574 0 1.957 1.251 3.595 2.983 4.244l-.05-.431-.011-.482c-1.236-.611-2.098-1.862-2.098-3.331 0-2.068 1.682-3.75 3.75-3.75s3.75 1.682 3.75 3.75c0 .249-.032.489-.081.724.032.16.127.319.381.368.23.044.361-.089.438-.24.053-.276.085-.56.085-.853.003-2.522-2.048-4.573-4.571-4.573z"/></g></svg>