<svg width="80" height="80" xmlns="http://www.w3.org/2000/svg" xmlns:xlink="http://www.w3.org/1999/xlink" viewBox="0 0 180 36"><defs><path d="M2.21 27c.09-2-.16-4.48.12-7a5.81 5.81 0 0 1 .17-.85c.32-1.21.33-1.21-1-1.25C0 17.85-.27 17.43.22 16c.74-2.15 1.1-2.45 3.33-2.46a1.06 1.06 0 0 0 1.16-.83c.94-2.65 2-5.27 2.87-7.93a5.45 5.45 0 0 1 3-3.19A16.36 16.36 0 0 1 17.33.15a70.76 70.76 0 0 1 13.61.37 15.06 15.06 0 0 1 2.81.76 5.54 5.54 0 0 1 3.67 3.66c.83 2.53 1.88 5 2.75 7.51a1.27 1.27 0 0 0 1.52 1.09c2.32-.26 2.83 1.4 3.28 3.34a.75.75 0 0 1-.69.93 4.89 4.89 0 0 1-1.18.08c-.82-.06-1 .22-.71 1a7 7 0 0 1 .38 2.56v12.13c0 1.93-.5 2.42-2.45 2.42h-4.44a1.78 1.78 0 0 1-2.06-2c0-.82.36-1.88-.18-2.4s-1.65-.18-2.5-.18H12.29a.92.92 0 0 0-1.15 1.14c0 3.3-.12 3.42-3.38 3.42H4.29c-1.46 0-2.05-.58-2.07-2-.03-2.18-.01-4.35-.01-6.98zm20.33-11.26a62 62 0 0 0 13.68-1.31c.88-.19 1-.53.76-1.32-.63-2.11-1.4-4.17-2-6.27a3.75 3.75 0 0 0-3.31-2.92 58.66 58.66 0 0 0-18.1-.11A4 4 0 0 0 10 6.86C9.32 9 8.61 11 8 13.15c-.26.87 0 1.11.83 1.28a61.74 61.74 0 0 0 13.71 1.31zM9.58 25c.75 0 1.51 0 2.26-.11s1.55-.22 1.71-1.17a1.54 1.54 0 0 0-1.15-1.62 30.72 30.72 0 0 0-4.66-2c-2.64-.82-3.44-.19-3.39 2.54a1.82 1.82 0 0 0 1.59 2 18.33 18.33 0 0 0 3.64.36zm25.77 0a14.94 14.94 0 0 0 3.87-.38 1.66 1.66 0 0 0 1.4-1.78c0-.47 0-.94-.06-1.4a1.51 1.51 0 0 0-2-1.57 19.8 19.8 0 0 0-6.49 2.57 1.19 1.19 0 0 0-.67 1.36 1.34 1.34 0 0 0 1.21 1.06 14.12 14.12 0 0 0 2.74.14z" id="a"/></defs><use xlink:href="#a" fill="#4d4d4d"/><use xlink:href="#a" x="45" fill="#b3b3b3"/><use xlink:href="#a" x="90" fill="#fff"/><use xlink:href="#a" x="135" fill="#00a4a5"/></svg>