<svg width="80" height="80" xmlns="http://www.w3.org/2000/svg" xmlns:xlink="http://www.w3.org/1999/xlink" viewBox="0 0 131.2 36"><defs><path d="M32.77 6.73v-.5l-13.68 19a3.25 3.25 0 0 1-5.32-.06L3.79 10.58h7.27l5.51 7.26 12.6-15A29.19 29.19 0 0 0 16.4 0C7 0 1.2 4.22 1 4.4a2.29 2.29 0 0 0-1 1.79v.54a39.72 39.72 0 0 0 1.69 13.72A25.49 25.49 0 0 0 15.4 35.77a2.29 2.29 0 0 0 2 0 25.49 25.49 0 0 0 13.71-15.32 39.72 39.72 0 0 0 1.66-13.72z" id="a"/></defs><use xlink:href="#a" fill="#4d4d4d"/><use xlink:href="#a" x="32.8" fill="#b3b3b3"/><use xlink:href="#a" x="65.6" fill="#fff"/><use xlink:href="#a" x="98.4" fill="#00a4a5"/></svg>