<svg width="80" height="80" xmlns="http://www.w3.org/2000/svg" xmlns:xlink="http://www.w3.org/1999/xlink" viewBox="0 0 144 36"><defs><path class="cls-1" d="M6663.42 803.95a18.06 18.06 0 0 1 18.25 18.32 18 18 0 1 1-18.25-18.32zm.15 3.76a8.77 8.77 0 0 0-1.9.12c-.34.07-.68.11-1 .19s-.92.23-1.37.38a14 14 0 0 0-1.44.53 12.51 12.51 0 0 0-2.42 1.39c-.48.36-1 .72-1.4 1.12s-.62.63-.92 1a12.56 12.56 0 0 0-1.18 1.49 13.4 13.4 0 0 0-1.4 2.52c-.18.45-.35.9-.49 1.36a1.34 1.34 0 0 0-.09.86 1.06 1.06 0 0 0 .46.61 1.92 1.92 0 0 0 .93.16 8.29 8.29 0 0 0 1.31 0c.32 0 .65-.08 1-.12a5.64 5.64 0 0 0 1.31-.38 6.51 6.51 0 0 0 2-1.27c.36-.32.66-.69 1-1a11.74 11.74 0 0 1 1-.9 9.75 9.75 0 0 1 1.19-.82 5.53 5.53 0 0 1 1.71-.65 5.22 5.22 0 0 1 .9-.17 9.12 9.12 0 0 1 2.77.17 11.14 11.14 0 0 1 1.14.34 7 7 0 0 1 2.25 1.47c.34.34.64.73 1 1.07a11.13 11.13 0 0 0 .88.81 3.85 3.85 0 0 0 .7.46c.47.24.95.47 1.44.67a4.39 4.39 0 0 0 .78.2c.19 0 .38.05.57.08.35 0 .71.09 1.07.11a8.8 8.8 0 0 0 .9 0 2.09 2.09 0 0 0 .58-.08.94.94 0 0 0 .67-.93 2.09 2.09 0 0 0-.13-.68c-.21-.54-.39-1.09-.62-1.62a10.63 10.63 0 0 0-1.13-2 17.39 17.39 0 0 0-1.1-1.45 14.81 14.81 0 0 0-1.9-1.81 14.28 14.28 0 0 0-1.83-1.24c-.4-.22-.8-.44-1.22-.63s-1-.39-1.49-.57c-.25-.09-.52-.14-.78-.21l-.62-.14-.53-.1-.57-.07c-.29 0-.57-.09-.86-.11s-.82-.16-1.17-.16zm.09 22l-1.12.08a.86.86 0 0 0-.67.42c-.25.38-.46.79-.69 1.18-.48.83-1 1.66-1.44 2.49a2.3 2.3 0 0 0-.33.7 1 1 0 0 0 .9 1.22c.26.06.52.09.78.14s.7.13 1.05.17a5.79 5.79 0 0 0 .81.06c.54 0 1.07 0 1.61-.05l1-.07a5.6 5.6 0 0 0 .65-.07 9 9 0 0 0 1-.25 1.1 1.1 0 0 0 .49-.29 1 1 0 0 0 .11-1.19l-1.19-2.07c-.32-.55-.63-1.11-1-1.65a3 3 0 0 0-.43-.56 1.08 1.08 0 0 0-.78-.24h-.76zm-11.89-5.23h-.69a1.46 1.46 0 0 0-.81.23 1.09 1.09 0 0 0-.38 1 11.31 11.31 0 0 0 .38 1.21c.24.58.51 1.15.79 1.72a10.7 10.7 0 0 0 1 1.6 12.66 12.66 0 0 0 1.35 1.59 1 1 0 0 0 1 .35.82.82 0 0 0 .49-.3c.23-.34.44-.69.64-1s.57-1 .85-1.48.64-1.09.94-1.65a1 1 0 0 0 .14-.55 1.25 1.25 0 0 0-.38-.73 4.88 4.88 0 0 0-1.12-.83c-.4-.22-.82-.42-1.24-.6a4.81 4.81 0 0 0-.73-.22c-.22-.06-.44-.1-.67-.13s-.51-.09-.77-.11-.56-.05-.79-.05zm18.07 2.78a1.81 1.81 0 0 0 .12.35q.38.71.79 1.41l1.56 2.67a1 1 0 0 0 .84.48.92.92 0 0 0 .7-.32c.32-.36.64-.71.95-1.07a11 11 0 0 0 1.2-1.78c.23-.41.45-.83.64-1.26s.38-1 .55-1.45a2.06 2.06 0 0 0 .17-1 .87.87 0 0 0-.47-.65 1.35 1.35 0 0 0-.73-.18c-.45 0-.9 0-1.34.05a5.14 5.14 0 0 0-1.55.2 9.68 9.68 0 0 0-1.18.42 8.78 8.78 0 0 0-1.17.67 5.94 5.94 0 0 0-.81.68 1.09 1.09 0 0 0-.27.83z" transform="translate(-6645.65 -803.95)" id="a"/></defs><use xlink:href="#a" fill="#4d4d4d"/><use xlink:href="#a" x="36" fill="#b3b3b3"/><use xlink:href="#a" x="72" fill="#fff"/><use xlink:href="#a" x="108" fill="#00a4a5"/></svg>