<svg width="14" height="12" viewBox="0 0 14 12" xmlns="http://www.w3.org/2000/svg"><title>Fill-488</title><desc>Created with Sketch.</desc><path d="M12.169 3.35l.008.345c0 3.525-2.683 7.589-7.589 7.589-1.506 0-2.908-.441-4.088-1.198.21.024.422.037.636.037 1.25 0 2.399-.425 3.312-1.141-1.166-.022-2.151-.794-2.49-1.852.162.03.329.047.501.047.244 0 .479-.033.702-.093-1.219-.246-2.139-1.324-2.139-2.615v-.033c.36.2.771.319 1.208.333-.716-.477-1.186-1.294-1.186-2.22 0-.489.132-.947.361-1.341 1.315 1.614 3.281 2.676 5.497 2.786-.045-.195-.069-.398-.069-.608 0-1.472 1.194-2.666 2.667-2.666.766 0 1.46.323 1.947.841.607-.119 1.178-.341 1.694-.648-.2.624-.622 1.146-1.173 1.476.54-.063 1.054-.208 1.532-.419-.357.535-.809 1.004-1.331 1.38z" fill-rule="nonzero" fill="#fff"/></svg>