<?xml version="1.0" encoding="UTF-8"?>
<svg width="36px" height="36px" viewBox="0 0 36 36" version="1.1" xmlns="http://www.w3.org/2000/svg" xmlns:xlink="http://www.w3.org/1999/xlink">
    <!-- Generator: Sketch 44.1 (41455) - http://www.bohemiancoding.com/sketch -->
    <title>Combined Shape</title>
    <desc>Created with Sketch.</desc>
    <defs></defs>
    <g id="Layouts" stroke="none" stroke-width="1" fill="none" fill-rule="evenodd">
        <g id="Mobile-Share" transform="translate(-252.000000, -622.000000)" fill="#25D366">
            <g id="Share-color-circles" transform="translate(0.000000, 601.000000)">
                <g id="Group-Expanded" transform="translate(12.000000, 0.000000)">
                    <g id="Shift" transform="translate(0.000000, 21.000000)">
                        <g id="WhatsApp" transform="translate(240.000000, 0.000000)">
                            <path d="M18,0 L18,0 L18,0 C27.9411255,-1.82615513e-15 36,8.0588745 36,18 L36,18 C36,27.9411255 27.9411255,36 18,36 L18,36 C8.0588745,36 4.77015043e-15,27.9411255 3.55271368e-15,18 L0,18 L0,18 C-1.21743675e-15,8.0588745 8.0588745,1.82615513e-15 18,0 L18,0 Z M22.0608898,19.7865708 C22.2837541,19.8981527 22.4323303,19.953965 22.4880143,20.0469427 C22.543741,20.1398776 22.543741,20.5860766 22.3580422,21.1067348 C22.1723006,21.6273074 21.2819127,22.1024604 20.853719,22.1664413 C20.4697475,22.2238361 19.9839026,22.2477862 19.4499863,22.0780826 C19.1263606,21.9754393 18.7112112,21.8382822 18.1794761,21.6086605 C15.9437767,20.6432575 14.4836757,18.3922043 14.3722649,18.2434143 C14.2608114,18.0946671 13.4622037,17.0349605 13.4622037,15.9379602 C13.4622037,14.8410027 14.0379471,14.301826 14.2422501,14.0786623 C14.4465102,13.8555842 14.6879786,13.7998147 14.8365548,13.7998147 C14.9850882,13.7998147 15.1338355,13.8011832 15.2636792,13.8076412 C15.4004942,13.8145696 15.5842257,13.7557208 15.7651345,14.1902014 C15.9508334,14.6364859 16.3965619,15.733529 16.4522887,15.845068 C16.5080154,15.9566071 16.5451381,16.0867502 16.47085,16.2355402 C16.3965619,16.3841592 16.3594393,16.4771797 16.2479857,16.6073228 C16.136575,16.7374232 16.013959,16.8978889 15.9137107,16.9977523 C15.8021289,17.1089064 15.6859709,17.2295123 15.815943,17.4525904 C15.9459578,17.6757541 16.393226,18.405548 17.0557885,18.996474 C17.9070437,19.7558206 18.6251619,19.9911304 18.8480689,20.1027122 C19.0708904,20.214294 19.2009053,20.1956044 19.3308773,20.0469427 C19.460935,19.8981527 19.8880166,19.3961414 20.0365928,19.1730205 C20.185169,18.9499851 20.3337452,18.9871506 20.5380481,19.0615242 C20.7423511,19.1359406 21.8380255,19.6750745 22.0608898,19.7865708 Z M24.3039026,11.615779 C22.6199109,9.92982002 20.3804051,9.0009409 17.9943332,9 C13.0780184,9 9.07672587,13.0009932 9.07475854,17.9188049 C9.07411702,19.4908726 9.48481853,21.0253044 10.2653781,22.3780149 L9,27 L13.7283493,25.7596412 C15.0311494,26.4702323 16.497965,26.8447948 17.9907835,26.845308 L17.9944188,26.845308 L17.9944615,26.845308 C22.9102631,26.845308 26.9119406,22.8438871 26.9139079,17.9259471 C26.9148061,15.542698 25.9878943,13.3016953 24.3039026,11.615779 Z" id="Combined-Shape"></path>
                        </g>
                    </g>
                </g>
            </g>
        </g>
    </g>
</svg>