<?xml version="1.0" encoding="UTF-8" standalone="no"?>
<svg width="34px" height="21px" viewBox="0 0 34 21" version="1.1" xmlns="http://www.w3.org/2000/svg" xmlns:xlink="http://www.w3.org/1999/xlink">
    <!-- Generator: Sketch 41 (35326) - http://www.bohemiancoding.com/sketch -->
    <title>wall-street-journal (1)</title>
    <desc>Created with Sketch.</desc>
    <defs></defs>
    <g id="Page-1" stroke="none" stroke-width="1" fill="none" fill-rule="evenodd">
        <g id="wall-street-journal-(1)" fill="#999999">
            <g id="Page-1">
                <g id="Group-3">
                    <path d="M1.04193548,1.68 L0.131612903,1.52526316 L0.0658064516,1.52526316 L0.0658064516,0.751578947 L4.94645161,0.751578947 L4.94645161,1.52526316 L4.80387097,1.52526316 C4.24451613,1.44789474 3.97032258,1.68 3.97032258,2.29894737 L3.97032258,2.68578947 L6.06516129,14.5784211 L7.31548387,6.77526316 L6.58064516,2.84052632 C6.43806452,1.83473684 6.09806452,1.44789474 5.48387097,1.52526316 L5.48387097,1.52526316 L5.48387097,0.751578947 L10.2219355,0.751578947 L10.2219355,1.52526316 L10.156129,1.52526316 C9.3883871,1.44789474 9.05935484,1.75736842 9.05935484,2.45368421 L11.1541935,14.5010526 L11.2967742,14.5010526 L13.1064516,3.07263158 L13.1064516,2.60842105 C13.1064516,1.75736842 12.7554839,1.50315789 12.0096774,1.50315789 L11.8012903,1.50315789 L11.8012903,0.751578947 L15.9141935,0.751578947 L15.9141935,1.52526316 L15.683871,1.52526316 L14.7077419,1.68 L14.0825806,3.22736842 L10.7922581,20.4473684 L9.87096774,20.4473684 L7.80903226,9.17368421 L5.71419355,20.4473684 L4.61741935,20.4473684 L1.52451613,2.84052632 L1.04193548,1.73526316 L1.04193548,1.68 Z" id="Shape"></path>
                    <path d="M23.1419355,0.519473684 L23.1419355,7.31684211 L22.5167742,7.31684211 L22.5167742,7.08473684 C22.5167742,3.22368421 21.5406452,1.29315789 19.5883871,1.29315789 C18.2612903,1.21578947 17.5483871,1.98947368 17.636129,3.69157895 C17.6276332,4.56787899 17.8714558,5.42786321 18.3380645,6.16736842 L20.4329032,8.25631579 L23.0322581,11.0526316 C23.7754873,12.3399347 24.1547904,13.8077319 24.1290323,15.2968421 C24.1290323,18.5463158 22.736129,20.16 20.016129,20.16 C18.8590191,20.1299293 17.749016,19.6918783 16.8793548,18.9221053 L16.4625806,20.0826316 L15.9690323,20.0826316 L15.9690323,13.2631579 L16.4516129,13.2631579 L16.4516129,13.4952632 C16.350612,15.1507151 16.7646923,16.7966739 17.636129,18.2036842 C18.1284889,18.8772611 18.9011406,19.2849219 19.7309677,19.3089474 C21.3322581,19.3089474 22.1767742,18.3031579 22.1767742,16.2142105 C22.1767742,14.1252632 21.08,12.4342105 19.04,10.6878947 C17,8.94157895 15.7496774,6.98526316 15.7496774,4.74157895 C15.6309879,3.55278953 16.0313101,2.37076684 16.8464516,1.50315789 C17.4334198,0.693198801 18.3860514,0.236053625 19.38,0.287368421 C20.4603828,0.296122711 21.4919166,0.742199336 22.2425806,1.52526316 L22.7251613,0.519473684 L23.1419355,0.519473684 Z" id="Shape"></path>
                    <path d="M28.0335484,15.5842105 C28.0335484,16.6894737 27.5509677,17.3636842 26.4980645,17.4410526 L26.9806452,18.9110526 C27.3050272,19.357527 27.8245338,19.6172296 28.3735484,19.6073684 L29.6129032,18.9773684 L29.963871,16.7668421 L29.963871,2.68578947 C29.8980645,1.91210526 29.6129032,1.58052632 28.9877419,1.58052632 L28.516129,1.58052632 L28.516129,0.751578947 L33.8903226,0.751578947 L33.8903226,1.52526316 L33.4077419,1.52526316 C32.7825806,1.52526316 32.4316129,1.91210526 32.4974194,2.63052632 L32.4974194,16.2252632 C32.4206452,19.0105263 31.1045161,20.3921053 28.516129,20.4694737 C27.6542973,20.464332 26.8437615,20.0559273 26.3225806,19.3642105 C25.5598236,18.4962164 25.1659457,17.3610068 25.2258065,16.2031579 L25.7851613,14.6557895 L26.6954839,14.1142105 C27.4632258,14.1142105 27.9458065,14.5784211 28.0225806,15.5068421" id="Shape"></path>
                </g>
            </g>
        </g>
    </g>
</svg>